<?xml version="1.0" standalone="no"?>
 <!DOCTYPE svg PUBLIC "-//W3C//DTD SVG 1.1//EN" 
 "http://www.w3.org/Graphics/SVG/1.1/DTD/svg11.dtd"> 
<svg xmlns="http://www.w3.org/2000/svg" version="1.1" 
    width="29.7002cm" height="21.0007cm" viewBox="0 0 116929 82679 ">
<title>SVG Picture created as parity_checker.svg date 2021/05/15 21:24:43 </title>
  <desc>Picture generated by Eeschema-SVG </desc>
<g style="fill:#000000; fill-opacity:1;stroke:#000000; stroke-opacity:1;
stroke-linecap:round; stroke-linejoin:round; "
 transform="translate(0 0) scale(1 1)">
</g>
<g style="fill:#000000; fill-opacity:0.0; 
stroke:#000000; stroke-width:-10; stroke-opacity:1; 
stroke-linecap:round; stroke-linejoin:round;">
</g>
<g style="fill:#840000; fill-opacity:0.0; 
stroke:#840000; stroke-width:-10; stroke-opacity:1; 
stroke-linecap:round; stroke-linejoin:round;">
</g>
<g style="fill:#840000; fill-opacity:0.0; 
stroke:#840000; stroke-width:100; stroke-opacity:1; 
stroke-linecap:round; stroke-linejoin:round;">
</g>
<g style="fill:#840000; fill-opacity:0.0; 
stroke:#840000; stroke-width:60; stroke-opacity:1; 
stroke-linecap:round; stroke-linejoin:round;">
<rect x="69690" y="65360" width="42520" height="12600" rx="0" />
</g>
<g style="fill:#840000; fill-opacity:0.0; 
stroke:#840000; stroke-width:100; stroke-opacity:1; 
stroke-linecap:round; stroke-linejoin:round;">
</g>
<g style="fill:#840000; fill-opacity:0.0; 
stroke:#840000; stroke-width:60; stroke-opacity:1; 
stroke-linecap:round; stroke-linejoin:round;">
<rect x="3940" y="3940" width="109050" height="74800" rx="0" />
</g>
<g style="fill:#840000; fill-opacity:0.0; 
stroke:#840000; stroke-width:100; stroke-opacity:1; 
stroke-linecap:round; stroke-linejoin:round;">
</g>
<g style="fill:#840000; fill-opacity:0.0; 
stroke:#840000; stroke-width:60; stroke-opacity:1; 
stroke-linecap:round; stroke-linejoin:round;">
<rect x="4720" y="4720" width="107490" height="73240" rx="0" />
</g>
<g style="fill:#840000; fill-opacity:0.0; 
stroke:#840000; stroke-width:100; stroke-opacity:1; 
stroke-linecap:round; stroke-linejoin:round;">
</g>
<g style="fill:#840000; fill-opacity:0.0; 
stroke:#840000; stroke-width:60; stroke-opacity:1; 
stroke-linecap:round; stroke-linejoin:round;">
<path d="M23620 4720
L23620 3940
" />
</g>
<g style="fill:#840000; fill-opacity:0.0; 
stroke:#840000; stroke-width:100; stroke-opacity:1; 
stroke-linecap:round; stroke-linejoin:round;">
</g>
<g style="fill:#840000; fill-opacity:0.0; 
stroke:#840000; stroke-width:60; stroke-opacity:1; 
stroke-linecap:round; stroke-linejoin:round;">
<path d="M43310 4720
L43310 3940
" />
</g>
<g style="fill:#840000; fill-opacity:0.0; 
stroke:#840000; stroke-width:100; stroke-opacity:1; 
stroke-linecap:round; stroke-linejoin:round;">
</g>
<g style="fill:#840000; fill-opacity:0.0; 
stroke:#840000; stroke-width:60; stroke-opacity:1; 
stroke-linecap:round; stroke-linejoin:round;">
<path d="M62990 4720
L62990 3940
" />
</g>
<g style="fill:#840000; fill-opacity:0.0; 
stroke:#840000; stroke-width:100; stroke-opacity:1; 
stroke-linecap:round; stroke-linejoin:round;">
</g>
<g style="fill:#840000; fill-opacity:0.0; 
stroke:#840000; stroke-width:60; stroke-opacity:1; 
stroke-linecap:round; stroke-linejoin:round;">
<path d="M82680 4720
L82680 3940
" />
</g>
<g style="fill:#840000; fill-opacity:0.0; 
stroke:#840000; stroke-width:100; stroke-opacity:1; 
stroke-linecap:round; stroke-linejoin:round;">
</g>
<g style="fill:#840000; fill-opacity:0.0; 
stroke:#840000; stroke-width:60; stroke-opacity:1; 
stroke-linecap:round; stroke-linejoin:round;">
<path d="M102360 4720
L102360 3940
" />
</g>
<g style="fill:#840000; fill-opacity:0.0; 
stroke:#840000; stroke-width:100; stroke-opacity:1; 
stroke-linecap:round; stroke-linejoin:round;">
</g>
<g style="fill:#840000; fill-opacity:0.0; 
stroke:#840000; stroke-width:60; stroke-opacity:1; 
stroke-linecap:round; stroke-linejoin:round;">
<path d="M14170 4560
L13880 4560
" />
<path d="M14020 4560
L14020 4050
L13970 4120
L13930 4170
L13880 4190
" />
</g>
<g style="fill:#840000; fill-opacity:0.0; 
stroke:#840000; stroke-width:100; stroke-opacity:1; 
stroke-linecap:round; stroke-linejoin:round;">
</g>
<g style="fill:#840000; fill-opacity:0.0; 
stroke:#840000; stroke-width:60; stroke-opacity:1; 
stroke-linecap:round; stroke-linejoin:round;">
<path d="M33560 4090
L33580 4070
L33630 4050
L33750 4050
L33800 4070
L33820 4090
L33850 4140
L33850 4190
L33820 4260
L33530 4560
L33850 4560
" />
</g>
<g style="fill:#840000; fill-opacity:0.0; 
stroke:#840000; stroke-width:100; stroke-opacity:1; 
stroke-linecap:round; stroke-linejoin:round;">
</g>
<g style="fill:#840000; fill-opacity:0.0; 
stroke:#840000; stroke-width:60; stroke-opacity:1; 
stroke-linecap:round; stroke-linejoin:round;">
<path d="M53220 4050
L53540 4050
L53370 4240
L53440 4240
L53490 4260
L53510 4290
L53540 4340
L53540 4460
L53510 4510
L53490 4530
L53440 4560
L53300 4560
L53250 4530
L53220 4510
" />
</g>
<g style="fill:#840000; fill-opacity:0.0; 
stroke:#840000; stroke-width:100; stroke-opacity:1; 
stroke-linecap:round; stroke-linejoin:round;">
</g>
<g style="fill:#840000; fill-opacity:0.0; 
stroke:#840000; stroke-width:60; stroke-opacity:1; 
stroke-linecap:round; stroke-linejoin:round;">
<path d="M73170 4220
L73170 4560
" />
<path d="M73050 4020
L72930 4390
L73240 4390
" />
</g>
<g style="fill:#840000; fill-opacity:0.0; 
stroke:#840000; stroke-width:100; stroke-opacity:1; 
stroke-linecap:round; stroke-linejoin:round;">
</g>
<g style="fill:#840000; fill-opacity:0.0; 
stroke:#840000; stroke-width:60; stroke-opacity:1; 
stroke-linecap:round; stroke-linejoin:round;">
<path d="M92880 4050
L92640 4050
L92620 4290
L92640 4260
L92690 4240
L92810 4240
L92860 4260
L92880 4290
L92910 4340
L92910 4460
L92880 4510
L92860 4530
L92810 4560
L92690 4560
L92640 4530
L92620 4510
" />
</g>
<g style="fill:#840000; fill-opacity:0.0; 
stroke:#840000; stroke-width:100; stroke-opacity:1; 
stroke-linecap:round; stroke-linejoin:round;">
</g>
<g style="fill:#840000; fill-opacity:0.0; 
stroke:#840000; stroke-width:60; stroke-opacity:1; 
stroke-linecap:round; stroke-linejoin:round;">
<path d="M112540 4050
L112440 4050
L112390 4070
L112370 4090
L112320 4170
L112300 4260
L112300 4460
L112320 4510
L112350 4530
L112390 4560
L112490 4560
L112540 4530
L112560 4510
L112590 4460
L112590 4340
L112560 4290
L112540 4260
L112490 4240
L112390 4240
L112350 4260
L112320 4290
L112300 4340
" />
</g>
<g style="fill:#840000; fill-opacity:0.0; 
stroke:#840000; stroke-width:100; stroke-opacity:1; 
stroke-linecap:round; stroke-linejoin:round;">
</g>
<g style="fill:#840000; fill-opacity:0.0; 
stroke:#840000; stroke-width:60; stroke-opacity:1; 
stroke-linecap:round; stroke-linejoin:round;">
<path d="M23620 77960
L23620 78740
" />
</g>
<g style="fill:#840000; fill-opacity:0.0; 
stroke:#840000; stroke-width:100; stroke-opacity:1; 
stroke-linecap:round; stroke-linejoin:round;">
</g>
<g style="fill:#840000; fill-opacity:0.0; 
stroke:#840000; stroke-width:60; stroke-opacity:1; 
stroke-linecap:round; stroke-linejoin:round;">
<path d="M43310 77960
L43310 78740
" />
</g>
<g style="fill:#840000; fill-opacity:0.0; 
stroke:#840000; stroke-width:100; stroke-opacity:1; 
stroke-linecap:round; stroke-linejoin:round;">
</g>
<g style="fill:#840000; fill-opacity:0.0; 
stroke:#840000; stroke-width:60; stroke-opacity:1; 
stroke-linecap:round; stroke-linejoin:round;">
<path d="M62990 77960
L62990 78740
" />
</g>
<g style="fill:#840000; fill-opacity:0.0; 
stroke:#840000; stroke-width:100; stroke-opacity:1; 
stroke-linecap:round; stroke-linejoin:round;">
</g>
<g style="fill:#840000; fill-opacity:0.0; 
stroke:#840000; stroke-width:60; stroke-opacity:1; 
stroke-linecap:round; stroke-linejoin:round;">
<path d="M82680 77960
L82680 78740
" />
</g>
<g style="fill:#840000; fill-opacity:0.0; 
stroke:#840000; stroke-width:100; stroke-opacity:1; 
stroke-linecap:round; stroke-linejoin:round;">
</g>
<g style="fill:#840000; fill-opacity:0.0; 
stroke:#840000; stroke-width:60; stroke-opacity:1; 
stroke-linecap:round; stroke-linejoin:round;">
<path d="M102360 77960
L102360 78740
" />
</g>
<g style="fill:#840000; fill-opacity:0.0; 
stroke:#840000; stroke-width:100; stroke-opacity:1; 
stroke-linecap:round; stroke-linejoin:round;">
</g>
<g style="fill:#840000; fill-opacity:0.0; 
stroke:#840000; stroke-width:60; stroke-opacity:1; 
stroke-linecap:round; stroke-linejoin:round;">
<path d="M14170 78580
L13880 78580
" />
<path d="M14020 78580
L14020 78070
L13970 78140
L13930 78190
L13880 78210
" />
</g>
<g style="fill:#840000; fill-opacity:0.0; 
stroke:#840000; stroke-width:100; stroke-opacity:1; 
stroke-linecap:round; stroke-linejoin:round;">
</g>
<g style="fill:#840000; fill-opacity:0.0; 
stroke:#840000; stroke-width:60; stroke-opacity:1; 
stroke-linecap:round; stroke-linejoin:round;">
<path d="M33560 78110
L33580 78090
L33630 78070
L33750 78070
L33800 78090
L33820 78110
L33850 78160
L33850 78210
L33820 78280
L33530 78580
L33850 78580
" />
</g>
<g style="fill:#840000; fill-opacity:0.0; 
stroke:#840000; stroke-width:100; stroke-opacity:1; 
stroke-linecap:round; stroke-linejoin:round;">
</g>
<g style="fill:#840000; fill-opacity:0.0; 
stroke:#840000; stroke-width:60; stroke-opacity:1; 
stroke-linecap:round; stroke-linejoin:round;">
<path d="M53220 78070
L53540 78070
L53370 78260
L53440 78260
L53490 78280
L53510 78310
L53540 78360
L53540 78480
L53510 78530
L53490 78550
L53440 78580
L53300 78580
L53250 78550
L53220 78530
" />
</g>
<g style="fill:#840000; fill-opacity:0.0; 
stroke:#840000; stroke-width:100; stroke-opacity:1; 
stroke-linecap:round; stroke-linejoin:round;">
</g>
<g style="fill:#840000; fill-opacity:0.0; 
stroke:#840000; stroke-width:60; stroke-opacity:1; 
stroke-linecap:round; stroke-linejoin:round;">
<path d="M73170 78240
L73170 78580
" />
<path d="M73050 78040
L72930 78410
L73240 78410
" />
</g>
<g style="fill:#840000; fill-opacity:0.0; 
stroke:#840000; stroke-width:100; stroke-opacity:1; 
stroke-linecap:round; stroke-linejoin:round;">
</g>
<g style="fill:#840000; fill-opacity:0.0; 
stroke:#840000; stroke-width:60; stroke-opacity:1; 
stroke-linecap:round; stroke-linejoin:round;">
<path d="M92880 78070
L92640 78070
L92620 78310
L92640 78280
L92690 78260
L92810 78260
L92860 78280
L92880 78310
L92910 78360
L92910 78480
L92880 78530
L92860 78550
L92810 78580
L92690 78580
L92640 78550
L92620 78530
" />
</g>
<g style="fill:#840000; fill-opacity:0.0; 
stroke:#840000; stroke-width:100; stroke-opacity:1; 
stroke-linecap:round; stroke-linejoin:round;">
</g>
<g style="fill:#840000; fill-opacity:0.0; 
stroke:#840000; stroke-width:60; stroke-opacity:1; 
stroke-linecap:round; stroke-linejoin:round;">
<path d="M112540 78070
L112440 78070
L112390 78090
L112370 78110
L112320 78190
L112300 78280
L112300 78480
L112320 78530
L112350 78550
L112390 78580
L112490 78580
L112540 78550
L112560 78530
L112590 78480
L112590 78360
L112560 78310
L112540 78280
L112490 78260
L112390 78260
L112350 78280
L112320 78310
L112300 78360
" />
</g>
<g style="fill:#840000; fill-opacity:0.0; 
stroke:#840000; stroke-width:100; stroke-opacity:1; 
stroke-linecap:round; stroke-linejoin:round;">
</g>
<g style="fill:#840000; fill-opacity:0.0; 
stroke:#840000; stroke-width:60; stroke-opacity:1; 
stroke-linecap:round; stroke-linejoin:round;">
<path d="M3940 23620
L4720 23620
" />
</g>
<g style="fill:#840000; fill-opacity:0.0; 
stroke:#840000; stroke-width:100; stroke-opacity:1; 
stroke-linecap:round; stroke-linejoin:round;">
</g>
<g style="fill:#840000; fill-opacity:0.0; 
stroke:#840000; stroke-width:60; stroke-opacity:1; 
stroke-linecap:round; stroke-linejoin:round;">
<path d="M3940 43310
L4720 43310
" />
</g>
<g style="fill:#840000; fill-opacity:0.0; 
stroke:#840000; stroke-width:100; stroke-opacity:1; 
stroke-linecap:round; stroke-linejoin:round;">
</g>
<g style="fill:#840000; fill-opacity:0.0; 
stroke:#840000; stroke-width:60; stroke-opacity:1; 
stroke-linecap:round; stroke-linejoin:round;">
<path d="M3940 62990
L4720 62990
" />
</g>
<g style="fill:#840000; fill-opacity:0.0; 
stroke:#840000; stroke-width:100; stroke-opacity:1; 
stroke-linecap:round; stroke-linejoin:round;">
</g>
<g style="fill:#840000; fill-opacity:0.0; 
stroke:#840000; stroke-width:60; stroke-opacity:1; 
stroke-linecap:round; stroke-linejoin:round;">
<path d="M4210 13860
L4450 13860
" />
<path d="M4160 14010
L4330 13500
L4500 14010
" />
</g>
<g style="fill:#840000; fill-opacity:0.0; 
stroke:#840000; stroke-width:100; stroke-opacity:1; 
stroke-linecap:round; stroke-linejoin:round;">
</g>
<g style="fill:#840000; fill-opacity:0.0; 
stroke:#840000; stroke-width:60; stroke-opacity:1; 
stroke-linecap:round; stroke-linejoin:round;">
<path d="M4370 33420
L4440 33440
L4470 33470
L4490 33520
L4490 33590
L4470 33640
L4440 33660
L4400 33690
L4200 33690
L4200 33180
L4370 33180
L4420 33200
L4440 33220
L4470 33270
L4470 33320
L4440 33370
L4420 33390
L4370 33420
L4200 33420
" />
</g>
<g style="fill:#840000; fill-opacity:0.0; 
stroke:#840000; stroke-width:100; stroke-opacity:1; 
stroke-linecap:round; stroke-linejoin:round;">
</g>
<g style="fill:#840000; fill-opacity:0.0; 
stroke:#840000; stroke-width:60; stroke-opacity:1; 
stroke-linecap:round; stroke-linejoin:round;">
<path d="M4490 53330
L4470 53350
L4400 53380
L4350 53380
L4270 53350
L4230 53300
L4200 53250
L4180 53160
L4180 53080
L4200 52990
L4230 52940
L4270 52890
L4350 52870
L4400 52870
L4470 52890
L4490 52910
" />
</g>
<g style="fill:#840000; fill-opacity:0.0; 
stroke:#840000; stroke-width:100; stroke-opacity:1; 
stroke-linecap:round; stroke-linejoin:round;">
</g>
<g style="fill:#840000; fill-opacity:0.0; 
stroke:#840000; stroke-width:60; stroke-opacity:1; 
stroke-linecap:round; stroke-linejoin:round;">
<path d="M4200 73060
L4200 72550
L4320 72550
L4400 72570
L4440 72620
L4470 72670
L4490 72760
L4490 72840
L4470 72930
L4440 72980
L4400 73030
L4320 73060
L4200 73060
" />
</g>
<g style="fill:#840000; fill-opacity:0.0; 
stroke:#840000; stroke-width:100; stroke-opacity:1; 
stroke-linecap:round; stroke-linejoin:round;">
</g>
<g style="fill:#840000; fill-opacity:0.0; 
stroke:#840000; stroke-width:60; stroke-opacity:1; 
stroke-linecap:round; stroke-linejoin:round;">
<path d="M112990 23620
L112210 23620
" />
</g>
<g style="fill:#840000; fill-opacity:0.0; 
stroke:#840000; stroke-width:100; stroke-opacity:1; 
stroke-linecap:round; stroke-linejoin:round;">
</g>
<g style="fill:#840000; fill-opacity:0.0; 
stroke:#840000; stroke-width:60; stroke-opacity:1; 
stroke-linecap:round; stroke-linejoin:round;">
<path d="M112990 43310
L112210 43310
" />
</g>
<g style="fill:#840000; fill-opacity:0.0; 
stroke:#840000; stroke-width:100; stroke-opacity:1; 
stroke-linecap:round; stroke-linejoin:round;">
</g>
<g style="fill:#840000; fill-opacity:0.0; 
stroke:#840000; stroke-width:60; stroke-opacity:1; 
stroke-linecap:round; stroke-linejoin:round;">
<path d="M112990 62990
L112210 62990
" />
</g>
<g style="fill:#840000; fill-opacity:0.0; 
stroke:#840000; stroke-width:100; stroke-opacity:1; 
stroke-linecap:round; stroke-linejoin:round;">
</g>
<g style="fill:#840000; fill-opacity:0.0; 
stroke:#840000; stroke-width:60; stroke-opacity:1; 
stroke-linecap:round; stroke-linejoin:round;">
<path d="M112480 13860
L112720 13860
" />
<path d="M112430 14010
L112600 13500
L112770 14010
" />
</g>
<g style="fill:#840000; fill-opacity:0.0; 
stroke:#840000; stroke-width:100; stroke-opacity:1; 
stroke-linecap:round; stroke-linejoin:round;">
</g>
<g style="fill:#840000; fill-opacity:0.0; 
stroke:#840000; stroke-width:60; stroke-opacity:1; 
stroke-linecap:round; stroke-linejoin:round;">
<path d="M112640 33420
L112710 33440
L112740 33470
L112760 33520
L112760 33590
L112740 33640
L112710 33660
L112670 33690
L112470 33690
L112470 33180
L112640 33180
L112690 33200
L112710 33220
L112740 33270
L112740 33320
L112710 33370
L112690 33390
L112640 33420
L112470 33420
" />
</g>
<g style="fill:#840000; fill-opacity:0.0; 
stroke:#840000; stroke-width:100; stroke-opacity:1; 
stroke-linecap:round; stroke-linejoin:round;">
</g>
<g style="fill:#840000; fill-opacity:0.0; 
stroke:#840000; stroke-width:60; stroke-opacity:1; 
stroke-linecap:round; stroke-linejoin:round;">
<path d="M112760 53330
L112740 53350
L112670 53380
L112620 53380
L112540 53350
L112500 53300
L112470 53250
L112450 53160
L112450 53080
L112470 52990
L112500 52940
L112540 52890
L112620 52870
L112670 52870
L112740 52890
L112760 52910
" />
</g>
<g style="fill:#840000; fill-opacity:0.0; 
stroke:#840000; stroke-width:100; stroke-opacity:1; 
stroke-linecap:round; stroke-linejoin:round;">
</g>
<g style="fill:#840000; fill-opacity:0.0; 
stroke:#840000; stroke-width:60; stroke-opacity:1; 
stroke-linecap:round; stroke-linejoin:round;">
<path d="M112470 73060
L112470 72550
L112590 72550
L112670 72570
L112710 72620
L112740 72670
L112760 72760
L112760 72840
L112740 72930
L112710 72980
L112670 73030
L112590 73060
L112470 73060
" />
</g>
<g style="fill:#840000; fill-opacity:0.0; 
stroke:#840000; stroke-width:100; stroke-opacity:1; 
stroke-linecap:round; stroke-linejoin:round;">
</g>
<g style="fill:#840000; fill-opacity:0.0; 
stroke:#840000; stroke-width:60; stroke-opacity:1; 
stroke-linecap:round; stroke-linejoin:round;">
<path d="M78880 76290
L78880 75700
L79020 75700
L79110 75730
L79160 75790
L79190 75840
L79220 75950
L79220 76040
L79190 76150
L79160 76210
L79110 76260
L79020 76290
L78880 76290
" />
<path d="M79720 76290
L79720 75980
L79700 75930
L79640 75900
L79530 75900
L79470 75930
" />
<path d="M79720 76260
L79670 76290
L79530 76290
L79470 76260
L79440 76210
L79440 76150
L79470 76100
L79530 76070
L79670 76070
L79720 76040
" />
<path d="M79920 75900
L80140 75900
" />
<path d="M80000 75700
L80000 76210
L80030 76260
L80080 76290
L80140 76290
" />
<path d="M80570 76260
L80510 76290
L80400 76290
L80340 76260
L80310 76210
L80310 75980
L80340 75930
L80400 75900
L80510 75900
L80570 75930
L80590 75980
L80590 76040
L80310 76100
" />
<path d="M80850 76240
L80880 76260
L80850 76290
L80820 76260
L80850 76240
L80850 76290
" />
<path d="M80850 75930
L80880 75950
L80850 75980
L80820 75950
L80850 75930
L80850 75980
" />
</g>
<g style="fill:#840000; fill-opacity:0.0; 
stroke:#840000; stroke-width:100; stroke-opacity:1; 
stroke-linecap:round; stroke-linejoin:round;">
</g>
<g style="fill:#840000; fill-opacity:0.0; 
stroke:#840000; stroke-width:60; stroke-opacity:1; 
stroke-linecap:round; stroke-linejoin:round;">
<path d="M69690 76580
L112210 76580
" />
</g>
<g style="fill:#840000; fill-opacity:0.0; 
stroke:#840000; stroke-width:100; stroke-opacity:1; 
stroke-linecap:round; stroke-linejoin:round;">
</g>
<g style="fill:#840000; fill-opacity:0.0; 
stroke:#840000; stroke-width:60; stroke-opacity:1; 
stroke-linecap:round; stroke-linejoin:round;">
<path d="M70220 77390
L70220 76800
" />
<path d="M70560 77390
L70300 77050
" />
<path d="M70560 76800
L70220 77140
" />
<path d="M70810 77390
L70810 77000
" />
<path d="M70810 76800
L70780 76830
L70810 76860
L70840 76830
L70810 76800
L70810 76860
" />
<path d="M71430 77340
L71400 77360
L71320 77390
L71260 77390
L71170 77360
L71120 77310
L71090 77250
L71060 77140
L71060 77050
L71090 76940
L71120 76890
L71170 76830
L71260 76800
L71320 76800
L71400 76830
L71430 76860
" />
<path d="M71930 77390
L71930 77080
L71910 77030
L71850 77000
L71740 77000
L71680 77030
" />
<path d="M71930 77360
L71880 77390
L71740 77390
L71680 77360
L71650 77310
L71650 77250
L71680 77200
L71740 77170
L71880 77170
L71930 77140
" />
<path d="M72460 77390
L72460 76800
" />
<path d="M72460 77360
L72410 77390
L72290 77390
L72240 77360
L72210 77340
L72180 77280
L72180 77110
L72210 77050
L72240 77030
L72290 77000
L72410 77000
L72460 77030
" />
<path d="M73190 77080
L73390 77080
" />
<path d="M73470 77390
L73190 77390
L73190 76800
L73470 76800
" />
<path d="M73720 77340
L73750 77360
L73720 77390
L73690 77360
L73720 77340
L73720 77390
" />
<path d="M74000 77390
L74000 76800
L74140 76800
L74230 76830
L74280 76890
L74310 76940
L74340 77050
L74340 77140
L74310 77250
L74280 77310
L74230 77360
L74140 77390
L74000 77390
" />
<path d="M74590 77340
L74620 77360
L74590 77390
L74560 77360
L74590 77340
L74590 77390
" />
<path d="M74840 77220
L75120 77220
" />
<path d="M74790 77390
L74980 76800
L75180 77390
" />
<path d="M75380 77340
L75410 77360
L75380 77390
L75350 77360
L75380 77340
L75380 77390
" />
<path d="M76790 77360
L76730 77390
L76620 77390
L76560 77360
L76530 77310
L76530 77080
L76560 77030
L76620 77000
L76730 77000
L76790 77030
L76810 77080
L76810 77140
L76530 77200
" />
<path d="M77300 77360
L77240 77390
L77130 77390
L77070 77360
L77040 77310
L77040 77080
L77070 77030
L77130 77000
L77240 77000
L77300 77030
L77320 77080
L77320 77140
L77040 77200
" />
<path d="M77550 77360
L77610 77390
L77720 77390
L77780 77360
L77810 77310
L77810 77280
L77780 77220
L77720 77200
L77640 77200
L77580 77170
L77550 77110
L77550 77080
L77580 77030
L77640 77000
L77720 77000
L77780 77030
" />
<path d="M78310 77360
L78260 77390
L78140 77390
L78090 77360
L78060 77340
L78030 77280
L78030 77110
L78060 77050
L78090 77030
L78140 77000
L78260 77000
L78310 77030
" />
<path d="M78570 77390
L78570 76800
" />
<path d="M78820 77390
L78820 77080
L78800 77030
L78740 77000
L78650 77000
L78600 77030
L78570 77050
" />
<path d="M79330 77360
L79270 77390
L79160 77390
L79100 77360
L79070 77310
L79070 77080
L79100 77030
L79160 77000
L79270 77000
L79330 77030
L79350 77080
L79350 77140
L79070 77200
" />
<path d="M79610 77390
L79610 77000
" />
<path d="M79610 77050
L79640 77030
L79690 77000
L79780 77000
L79840 77030
L79860 77080
L79860 77390
" />
<path d="M79860 77080
L79890 77030
L79950 77000
L80030 77000
L80090 77030
L80120 77080
L80120 77390
" />
<path d="M80650 77390
L80650 77080
L80630 77030
L80570 77000
L80460 77000
L80400 77030
" />
<path d="M80650 77360
L80600 77390
L80460 77390
L80400 77360
L80370 77310
L80370 77250
L80400 77200
L80460 77170
L80600 77170
L80650 77140
" />
<path d="M81630 77000
L81630 77390
" />
<path d="M81490 76770
L81350 77200
L81720 77200
" />
<path d="M81940 77340
L81970 77360
L81940 77390
L81910 77360
L81940 77340
L81940 77390
" />
<path d="M82330 76800
L82390 76800
L82450 76830
L82470 76860
L82500 76910
L82530 77030
L82530 77170
L82500 77280
L82470 77340
L82450 77360
L82390 77390
L82330 77390
L82280 77360
L82250 77340
L82220 77280
L82190 77170
L82190 77030
L82220 76910
L82250 76860
L82280 76830
L82330 76800
" />
<path d="M82780 77340
L82810 77360
L82780 77390
L82750 77360
L82780 77340
L82780 77390
" />
<path d="M83000 76800
L83400 76800
L83140 77390
" />
</g>
<g style="fill:#840000; fill-opacity:0.0; 
stroke:#840000; stroke-width:100; stroke-opacity:1; 
stroke-linecap:round; stroke-linejoin:round;">
</g>
<g style="fill:#840000; fill-opacity:0.0; 
stroke:#840000; stroke-width:60; stroke-opacity:1; 
stroke-linecap:round; stroke-linejoin:round;">
<path d="M69690 75400
L112210 75400
" />
</g>
<g style="fill:#840000; fill-opacity:0.0; 
stroke:#840000; stroke-width:100; stroke-opacity:1; 
stroke-linecap:round; stroke-linejoin:round;">
</g>
<g style="fill:#840000; fill-opacity:0.0; 
stroke:#840000; stroke-width:120; stroke-opacity:1; 
stroke-linecap:round; stroke-linejoin:round;">
<path d="M104020 76290
L103820 76010
" />
<path d="M103680 76290
L103680 75700
L103910 75700
L103960 75730
L103990 75760
L104020 75810
L104020 75900
L103990 75950
L103960 75980
L103910 76010
L103680 76010
" />
<path d="M104500 76260
L104440 76290
L104330 76290
L104270 76260
L104240 76210
L104240 75980
L104270 75930
L104330 75900
L104440 75900
L104500 75930
L104520 75980
L104520 76040
L104240 76100
" />
<path d="M104720 75900
L104860 76290
L105010 75900
" />
<path d="M105230 76240
L105260 76260
L105230 76290
L105200 76260
L105230 76240
L105230 76290
" />
<path d="M105230 75930
L105260 75950
L105230 75980
L105200 75950
L105230 75930
L105230 75980
" />
</g>
<g style="fill:#840000; fill-opacity:0.0; 
stroke:#840000; stroke-width:100; stroke-opacity:1; 
stroke-linecap:round; stroke-linejoin:round;">
</g>
<g style="fill:#840000; fill-opacity:0.0; 
stroke:#840000; stroke-width:60; stroke-opacity:1; 
stroke-linecap:round; stroke-linejoin:round;">
<path d="M70190 76260
L70280 76290
L70420 76290
L70470 76260
L70500 76240
L70530 76180
L70530 76120
L70500 76070
L70470 76040
L70420 76010
L70300 75980
L70250 75950
L70220 75930
L70190 75870
L70190 75810
L70220 75760
L70250 75730
L70300 75700
L70450 75700
L70530 75730
" />
<path d="M70780 76290
L70780 75900
" />
<path d="M70780 75700
L70750 75730
L70780 75760
L70810 75730
L70780 75700
L70780 75760
" />
<path d="M71000 75900
L71310 75900
L71000 76290
L71310 76290
" />
<path d="M71770 76260
L71710 76290
L71600 76290
L71540 76260
L71510 76210
L71510 75980
L71540 75930
L71600 75900
L71710 75900
L71770 75930
L71790 75980
L71790 76040
L71510 76100
" />
<path d="M72050 76240
L72080 76260
L72050 76290
L72020 76260
L72050 76240
L72050 76290
" />
<path d="M72050 75930
L72080 75950
L72050 75980
L72020 75950
L72050 75930
L72050 75980
" />
<path d="M72750 76120
L73030 76120
" />
<path d="M72700 76290
L72890 75700
L73090 76290
" />
<path d="M73540 75900
L73540 76290
" />
<path d="M73400 75670
L73260 76100
L73630 76100
" />
</g>
<g style="fill:#840000; fill-opacity:0.0; 
stroke:#840000; stroke-width:100; stroke-opacity:1; 
stroke-linecap:round; stroke-linejoin:round;">
</g>
<g style="fill:#840000; fill-opacity:0.0; 
stroke:#840000; stroke-width:60; stroke-opacity:1; 
stroke-linecap:round; stroke-linejoin:round;">
<path d="M103680 77390
L103680 76800
" />
<path d="M104210 77390
L104210 76800
" />
<path d="M104210 77360
L104160 77390
L104040 77390
L103990 77360
L103960 77340
L103930 77280
L103930 77110
L103960 77050
L103990 77030
L104040 77000
L104160 77000
L104210 77030
" />
<path d="M104490 77340
L104520 77360
L104490 77390
L104460 77360
L104490 77340
L104490 77390
" />
<path d="M104490 77030
L104520 77050
L104490 77080
L104460 77050
L104490 77030
L104490 77080
" />
<path d="M105530 77390
L105190 77390
" />
<path d="M105360 77390
L105360 76800
L105300 76890
L105250 76940
L105190 76970
" />
<path d="M106200 76770
L105700 77530
" />
<path d="M106710 77390
L106370 77390
" />
<path d="M106540 77390
L106540 76800
L106480 76890
L106430 76940
L106370 76970
" />
</g>
<g style="fill:#840000; fill-opacity:0.0; 
stroke:#840000; stroke-width:100; stroke-opacity:1; 
stroke-linecap:round; stroke-linejoin:round;">
</g>
<g style="fill:#840000; fill-opacity:0.0; 
stroke:#840000; stroke-width:60; stroke-opacity:1; 
stroke-linecap:round; stroke-linejoin:round;">
<path d="M69690 73820
L112210 73820
" />
</g>
<g style="fill:#840000; fill-opacity:0.0; 
stroke:#840000; stroke-width:100; stroke-opacity:1; 
stroke-linecap:round; stroke-linejoin:round;">
</g>
<g style="fill:#840000; fill-opacity:0.0; 
stroke:#840000; stroke-width:160; stroke-opacity:1; 
stroke-linecap:round; stroke-linejoin:round;">
<path d="M70260 74090
L70710 74090
" />
<path d="M70390 74880
L70480 74090
" />
<path d="M70880 74880
L70940 74360
" />
<path d="M70970 74090
L70930 74130
L70960 74170
L71010 74130
L70970 74090
L70960 74170
" />
<path d="M71210 74360
L71510 74360
" />
<path d="M71350 74090
L71270 74770
L71300 74840
L71370 74880
L71450 74880
" />
<path d="M71820 74880
L71750 74840
L71720 74770
L71800 74090
" />
<path d="M72420 74840
L72340 74880
L72190 74880
L72120 74840
L72090 74770
L72130 74470
L72180 74390
L72250 74360
L72400 74360
L72480 74390
L72510 74470
L72500 74540
L72110 74620
" />
<path d="M72800 74810
L72840 74840
L72800 74880
L72760 74840
L72800 74810
L72800 74880
" />
<path d="M72860 74390
L72890 74430
L72850 74470
L72810 74430
L72860 74390
L72850 74470
" />
</g>
<g style="fill:#840000; fill-opacity:0.0; 
stroke:#840000; stroke-width:100; stroke-opacity:1; 
stroke-linecap:round; stroke-linejoin:round;">
</g>
<g style="fill:#840000; fill-opacity:0.0; 
stroke:#840000; stroke-width:60; stroke-opacity:1; 
stroke-linecap:round; stroke-linejoin:round;">
<path d="M70420 73060
L70220 73060
" />
<path d="M70220 73370
L70220 72780
L70500 72780
" />
<path d="M70730 73370
L70730 72980
" />
<path d="M70730 72780
L70700 72810
L70730 72840
L70760 72810
L70730 72780
L70730 72840
" />
<path d="M71090 73370
L71040 73340
L71010 73290
L71010 72780
" />
<path d="M71550 73340
L71490 73370
L71380 73370
L71320 73340
L71290 73290
L71290 73060
L71320 73010
L71380 72980
L71490 72980
L71550 73010
L71570 73060
L71570 73120
L71290 73180
" />
<path d="M71830 73320
L71860 73340
L71830 73370
L71800 73340
L71830 73320
L71830 73370
" />
<path d="M71830 73010
L71860 73030
L71830 73060
L71800 73030
L71830 73010
L71830 73060
" />
<path d="M72560 72980
L72560 73570
" />
<path d="M72560 73010
L72620 72980
L72730 72980
L72790 73010
L72810 73030
L72840 73090
L72840 73260
L72810 73320
L72790 73340
L72730 73370
L72620 73370
L72560 73340
" />
<path d="M73340 73370
L73340 73060
L73320 73010
L73260 72980
L73150 72980
L73090 73010
" />
<path d="M73340 73340
L73290 73370
L73150 73370
L73090 73340
L73060 73290
L73060 73230
L73090 73180
L73150 73150
L73290 73150
L73340 73120
" />
<path d="M73620 73370
L73620 72980
" />
<path d="M73620 73090
L73650 73030
L73680 73010
L73730 72980
L73790 72980
" />
<path d="M73990 73370
L73990 72980
" />
<path d="M73990 72780
L73960 72810
L73990 72840
L74020 72810
L73990 72780
L73990 72840
" />
<path d="M74190 72980
L74410 72980
" />
<path d="M74270 72780
L74270 73290
L74300 73340
L74350 73370
L74410 73370
" />
<path d="M74550 72980
L74690 73370
" />
<path d="M74840 72980
L74690 73370
L74640 73510
L74610 73540
L74550 73570
" />
<path d="M74920 73430
L75370 73430
" />
<path d="M75760 73340
L75710 73370
L75590 73370
L75540 73340
L75510 73320
L75480 73260
L75480 73090
L75510 73030
L75540 73010
L75590 72980
L75710 72980
L75760 73010
" />
<path d="M76020 73370
L76020 72780
" />
<path d="M76270 73370
L76270 73060
L76250 73010
L76190 72980
L76100 72980
L76050 73010
L76020 73030
" />
<path d="M76780 73340
L76720 73370
L76610 73370
L76550 73340
L76520 73290
L76520 73060
L76550 73010
L76610 72980
L76720 72980
L76780 73010
L76800 73060
L76800 73120
L76520 73180
" />
<path d="M77310 73340
L77260 73370
L77140 73370
L77090 73340
L77060 73320
L77030 73260
L77030 73090
L77060 73030
L77090 73010
L77140 72980
L77260 72980
L77310 73010
" />
<path d="M77570 73370
L77570 72780
" />
<path d="M77630 73150
L77800 73370
" />
<path d="M77800 72980
L77570 73200
" />
<path d="M78280 73340
L78220 73370
L78110 73370
L78050 73340
L78020 73290
L78020 73060
L78050 73010
L78110 72980
L78220 72980
L78280 73010
L78300 73060
L78300 73120
L78020 73180
" />
<path d="M78560 73370
L78560 72980
" />
<path d="M78560 73090
L78590 73030
L78620 73010
L78670 72980
L78730 72980
" />
<path d="M78930 73320
L78960 73340
L78930 73370
L78900 73340
L78930 73320
L78930 73370
" />
<path d="M79180 73340
L79240 73370
L79350 73370
L79410 73340
L79440 73290
L79440 73260
L79410 73200
L79350 73180
L79270 73180
L79210 73150
L79180 73090
L79180 73060
L79210 73010
L79270 72980
L79350 72980
L79410 73010
" />
<path d="M79940 73340
L79890 73370
L79770 73370
L79720 73340
L79690 73320
L79660 73260
L79660 73090
L79690 73030
L79720 73010
L79770 72980
L79890 72980
L79940 73010
" />
<path d="M80200 73370
L80200 72780
" />
<path d="M80450 73370
L80450 73060
L80430 73010
L80370 72980
L80280 72980
L80230 73010
L80200 73030
" />
</g>
<g style="fill:#840000; fill-opacity:0.0; 
stroke:#840000; stroke-width:100; stroke-opacity:1; 
stroke-linecap:round; stroke-linejoin:round;">
</g>
<g style="fill:#840000; fill-opacity:0.0; 
stroke:#840000; stroke-width:60; stroke-opacity:1; 
stroke-linecap:round; stroke-linejoin:round;">
<path d="M69690 71460
L112210 71460
" />
</g>
<g style="fill:#840000; fill-opacity:0.0; 
stroke:#840000; stroke-width:100; stroke-opacity:1; 
stroke-linecap:round; stroke-linejoin:round;">
</g>
<g style="fill:#840000; fill-opacity:0.0; 
stroke:#840000; stroke-width:60; stroke-opacity:1; 
stroke-linecap:round; stroke-linejoin:round;">
<path d="M70190 72280
L70280 72310
L70420 72310
L70470 72280
L70500 72260
L70530 72200
L70530 72140
L70500 72090
L70470 72060
L70420 72030
L70300 72000
L70250 71970
L70220 71950
L70190 71890
L70190 71830
L70220 71780
L70250 71750
L70300 71720
L70450 71720
L70530 71750
" />
<path d="M70780 72310
L70780 71720
" />
<path d="M71030 72310
L71030 72000
L71010 71950
L70950 71920
L70860 71920
L70810 71950
L70780 71970
" />
<path d="M71540 72280
L71480 72310
L71370 72310
L71310 72280
L71280 72230
L71280 72000
L71310 71950
L71370 71920
L71480 71920
L71540 71950
L71560 72000
L71560 72060
L71280 72120
" />
<path d="M72050 72280
L71990 72310
L71880 72310
L71820 72280
L71790 72230
L71790 72000
L71820 71950
L71880 71920
L71990 71920
L72050 71950
L72070 72000
L72070 72060
L71790 72120
" />
<path d="M72250 71920
L72470 71920
" />
<path d="M72330 71720
L72330 72230
L72360 72280
L72410 72310
L72470 72310
" />
<path d="M72670 72260
L72700 72280
L72670 72310
L72640 72280
L72670 72260
L72670 72310
" />
<path d="M72670 71950
L72700 71970
L72670 72000
L72640 71970
L72670 71950
L72670 72000
" />
<path d="M73820 71690
L73320 72450
" />
</g>
<g style="fill:#840000; fill-opacity:0.0; 
stroke:#840000; stroke-width:100; stroke-opacity:1; 
stroke-linecap:round; stroke-linejoin:round;">
</g>
<g style="fill:#840000; fill-opacity:0.0; 
stroke:#840000; stroke-width:60; stroke-opacity:1; 
stroke-linecap:round; stroke-linejoin:round;">
<path d="M77560 75400
L77560 76580
" />
</g>
<g style="fill:#840000; fill-opacity:0.0; 
stroke:#840000; stroke-width:100; stroke-opacity:1; 
stroke-linecap:round; stroke-linejoin:round;">
</g>
<g style="fill:#840000; fill-opacity:0.0; 
stroke:#840000; stroke-width:60; stroke-opacity:1; 
stroke-linecap:round; stroke-linejoin:round;">
<path d="M102760 75400
L102760 77960
" />
</g>
<g style="fill:#840000; fill-opacity:0.0; 
stroke:#840000; stroke-width:0; stroke-opacity:1; 
stroke-linecap:round; stroke-linejoin:round;">
</g>
<g style="fill:#840000; fill-opacity:0.0; 
stroke:#840000; stroke-width:60; stroke-opacity:1; 
stroke-linecap:round; stroke-linejoin:round;">
<rect x="56500" y="23000" width="6000" height="4000" rx="0" />
<path d="M56500 25000
L54500 25000
" />
</g>
<g style="fill:#008484; fill-opacity:0.0; 
stroke:#008484; stroke-width:60; stroke-opacity:1; 
stroke-linecap:round; stroke-linejoin:round;">
<path d="M57020 25230
L57020 24890
" />
<path d="M57020 24730
L57000 24750
L57020 24770
L57040 24750
L57020 24730
L57020 24770
" />
<path d="M57260 24890
L57260 25230
" />
<path d="M57260 24940
L57280 24920
L57330 24890
L57400 24890
L57450 24920
L57470 24960
L57470 25230
" />
<path d="M57970 25230
L57690 25230
" />
<path d="M57830 25230
L57830 24730
L57780 24800
L57730 24850
L57690 24870
" />
</g>
<g style="fill:#840000; fill-opacity:0.0; 
stroke:#840000; stroke-width:60; stroke-opacity:1; 
stroke-linecap:round; stroke-linejoin:round;">
<path d="M55640 24880
L55360 24880
" />
<path d="M55500 24880
L55500 24380
L55450 24450
L55400 24500
L55360 24520
" />
<path d="M62500 25000
L64500 25000
" />
</g>
<g style="fill:#008484; fill-opacity:0.0; 
stroke:#008484; stroke-width:60; stroke-opacity:1; 
stroke-linecap:round; stroke-linejoin:round;">
<path d="M60620 25230
L60570 25200
L60550 25180
L60530 25130
L60530 24990
L60550 24940
L60570 24920
L60620 24890
L60690 24890
L60740 24920
L60760 24940
L60790 24990
L60790 25130
L60760 25180
L60740 25200
L60690 25230
L60620 25230
" />
<path d="M61210 24890
L61210 25230
" />
<path d="M61000 24890
L61000 25150
L61020 25200
L61070 25230
L61140 25230
L61190 25200
L61210 25180
" />
<path d="M61380 24890
L61570 24890
" />
<path d="M61450 24730
L61450 25150
L61470 25200
L61520 25230
L61570 25230
" />
<path d="M62000 25230
L61720 25230
" />
<path d="M61860 25230
L61860 24730
L61810 24800
L61760 24850
L61720 24870
" />
</g>
<g style="fill:#840000; fill-opacity:0.0; 
stroke:#840000; stroke-width:60; stroke-opacity:1; 
stroke-linecap:round; stroke-linejoin:round;">
<path d="M63360 24420
L63380 24400
L63430 24380
L63550 24380
L63590 24400
L63620 24420
L63640 24470
L63640 24520
L63620 24590
L63330 24880
L63640 24880
" />
</g>
<g style="fill:#008484; fill-opacity:0.0; 
stroke:#008484; stroke-width:60; stroke-opacity:1; 
stroke-linecap:round; stroke-linejoin:round;">
<path d="M59040 25710
L59040 26200
L59070 26250
L59100 26280
L59160 26310
L59270 26310
L59330 26280
L59360 26250
L59390 26200
L59390 25710
" />
<path d="M59990 26310
L59640 26310
" />
<path d="M59820 26310
L59820 25710
L59760 25800
L59700 25850
L59640 25880
" />
<path d="M56420 23910
L56420 24510
" />
<path d="M56420 23940
L56480 23910
L56590 23910
L56650 23940
L56680 23970
L56710 24030
L56710 24200
L56680 24250
L56650 24280
L56590 24310
L56480 24310
L56420 24280
" />
<path d="M57220 24310
L57220 24000
L57190 23940
L57130 23910
L57020 23910
L56960 23940
" />
<path d="M57220 24280
L57160 24310
L57020 24310
L56960 24280
L56930 24230
L56930 24170
L56960 24110
L57020 24080
L57160 24080
L57220 24050
" />
<path d="M57500 24310
L57500 23910
" />
<path d="M57500 24030
L57530 23970
L57560 23940
L57620 23910
L57670 23910
" />
<path d="M57870 24310
L57870 23910
" />
<path d="M57870 23710
L57840 23740
L57870 23770
L57900 23740
L57870 23710
L57870 23770
" />
<path d="M58080 23910
L58310 23910
" />
<path d="M58160 23710
L58160 24230
L58190 24280
L58250 24310
L58310 24310
" />
<path d="M58450 23910
L58590 24310
" />
<path d="M58730 23910
L58590 24310
L58530 24450
L58500 24480
L58450 24510
" />
<path d="M58820 24370
L59280 24370
" />
<path d="M59680 24280
L59620 24310
L59510 24310
L59450 24280
L59420 24250
L59390 24200
L59390 24030
L59420 23970
L59450 23940
L59510 23910
L59620 23910
L59680 23940
" />
<path d="M59930 24310
L59930 23710
" />
<path d="M60190 24310
L60190 24000
L60160 23940
L60100 23910
L60020 23910
L59960 23940
L59930 23970
" />
<path d="M60700 24280
L60640 24310
L60530 24310
L60470 24280
L60440 24230
L60440 24000
L60470 23940
L60530 23910
L60640 23910
L60700 23940
L60730 24000
L60730 24050
L60440 24110
" />
<path d="M61240 24280
L61180 24310
L61070 24310
L61010 24280
L60980 24250
L60950 24200
L60950 24030
L60980 23970
L61010 23940
L61070 23910
L61180 23910
L61240 23940
" />
<path d="M61490 24310
L61490 23710
" />
<path d="M61550 24080
L61720 24310
" />
<path d="M61720 23910
L61490 24140
" />
<path d="M62210 24280
L62150 24310
L62040 24310
L61980 24280
L61950 24230
L61950 24000
L61980 23940
L62040 23910
L62150 23910
L62210 23940
L62240 24000
L62240 24050
L61950 24110
" />
<path d="M62490 24310
L62490 23910
" />
<path d="M62490 24030
L62520 23970
L62550 23940
L62610 23910
L62660 23910
" />
</g>
<g style="fill:#008484; fill-opacity:0.0; 
stroke:#008484; stroke-width:0; stroke-opacity:1; 
stroke-linecap:round; stroke-linejoin:round;">
</g>
<g style="fill:#840000; fill-opacity:0.0; 
stroke:#840000; stroke-width:0; stroke-opacity:1; 
stroke-linecap:round; stroke-linejoin:round;">
</g>
<g style="fill:#840000; fill-opacity:0.0; 
stroke:#840000; stroke-width:60; stroke-opacity:1; 
stroke-linecap:round; stroke-linejoin:round;">
<rect x="42500" y="23500" width="7500" height="2500" rx="0" />
<path d="M42500 25000
L40500 25000
" />
</g>
<g style="fill:#008484; fill-opacity:0.0; 
stroke:#008484; stroke-width:60; stroke-opacity:1; 
stroke-linecap:round; stroke-linejoin:round;">
<path d="M43020 25230
L43020 24730
" />
<path d="M43260 25230
L43260 24730
L43540 25230
L43540 24730
" />
<path d="M44040 25230
L43760 25230
" />
<path d="M43900 25230
L43900 24730
L43850 24800
L43800 24850
L43760 24870
" />
</g>
<g style="fill:#840000; fill-opacity:0.0; 
stroke:#840000; stroke-width:60; stroke-opacity:1; 
stroke-linecap:round; stroke-linejoin:round;">
<path d="M41640 24880
L41360 24880
" />
<path d="M41500 24880
L41500 24380
L41450 24450
L41400 24500
L41360 24520
" />
<path d="M50000 25000
L52000 25000
" />
</g>
<g style="fill:#008484; fill-opacity:0.0; 
stroke:#008484; stroke-width:60; stroke-opacity:1; 
stroke-linecap:round; stroke-linejoin:round;">
<path d="M47910 24730
L48010 24730
L48060 24750
L48100 24800
L48130 24890
L48130 25060
L48100 25150
L48060 25200
L48010 25230
L47910 25230
L47870 25200
L47820 25150
L47800 25060
L47800 24890
L47820 24800
L47870 24750
L47910 24730
" />
<path d="M48340 24730
L48340 25130
L48360 25180
L48390 25200
L48430 25230
L48530 25230
L48580 25200
L48600 25180
L48620 25130
L48620 24730
" />
<path d="M48790 24730
L49070 24730
" />
<path d="M48930 25230
L48930 24730
" />
<path d="M49500 25230
L49220 25230
" />
<path d="M49360 25230
L49360 24730
L49310 24800
L49260 24850
L49220 24870
" />
</g>
<g style="fill:#840000; fill-opacity:0.0; 
stroke:#840000; stroke-width:60; stroke-opacity:1; 
stroke-linecap:round; stroke-linejoin:round;">
<path d="M50860 24420
L50880 24400
L50930 24380
L51050 24380
L51090 24400
L51120 24420
L51140 24470
L51140 24520
L51120 24590
L50830 24880
L51140 24880
" />
</g>
<g style="fill:#008484; fill-opacity:0.0; 
stroke:#008484; stroke-width:60; stroke-opacity:1; 
stroke-linecap:round; stroke-linejoin:round;">
<path d="M46040 25210
L46040 25700
L46070 25750
L46100 25780
L46160 25810
L46270 25810
L46330 25780
L46360 25750
L46390 25700
L46390 25210
" />
<path d="M46640 25270
L46670 25240
L46730 25210
L46870 25210
L46930 25240
L46960 25270
L46990 25330
L46990 25380
L46960 25470
L46620 25810
L46990 25810
" />
<path d="M43970 24310
L43970 24000
L43940 23940
L43880 23910
L43770 23910
L43710 23940
" />
<path d="M43970 24280
L43910 24310
L43770 24310
L43710 24280
L43680 24230
L43680 24170
L43710 24110
L43770 24080
L43910 24080
L43970 24050
" />
<path d="M44510 24310
L44510 23710
" />
<path d="M44510 24280
L44450 24310
L44340 24310
L44280 24280
L44250 24250
L44220 24200
L44220 24030
L44250 23970
L44280 23940
L44340 23910
L44450 23910
L44510 23940
" />
<path d="M45050 24280
L44990 24310
L44880 24310
L44820 24280
L44790 24250
L44760 24200
L44760 24030
L44790 23970
L44820 23940
L44880 23910
L44990 23910
L45050 23940
" />
<path d="M45160 24370
L45620 24370
" />
<path d="M45760 24310
L45760 23710
" />
<path d="M45760 23940
L45820 23910
L45930 23910
L45990 23940
L46020 23970
L46050 24030
L46050 24200
L46020 24250
L45990 24280
L45930 24310
L45820 24310
L45760 24280
" />
<path d="M46300 24310
L46300 23910
" />
<path d="M46300 24030
L46330 23970
L46360 23940
L46420 23910
L46470 23910
" />
<path d="M46670 24310
L46670 23910
" />
<path d="M46670 23710
L46640 23740
L46670 23770
L46700 23740
L46670 23710
L46670 23770
" />
<path d="M47220 24310
L47220 23710
" />
<path d="M47220 24280
L47160 24310
L47050 24310
L46990 24280
L46960 24250
L46930 24200
L46930 24030
L46960 23970
L46990 23940
L47050 23910
L47160 23910
L47220 23940
" />
<path d="M47760 23910
L47760 24400
L47730 24450
L47700 24480
L47650 24510
L47560 24510
L47500 24480
" />
<path d="M47760 24280
L47700 24310
L47590 24310
L47530 24280
L47500 24250
L47470 24200
L47470 24030
L47500 23970
L47530 23940
L47590 23910
L47700 23910
L47760 23940
" />
<path d="M48270 24280
L48210 24310
L48100 24310
L48040 24280
L48010 24230
L48010 24000
L48040 23940
L48100 23910
L48210 23910
L48270 23940
L48300 24000
L48300 24050
L48010 24110
" />
<path d="M48410 24370
L48870 24370
" />
<path d="M49330 24310
L48980 24310
" />
<path d="M49160 24310
L49160 23710
L49100 23800
L49040 23850
L48980 23880
" />
</g>
<g style="fill:#008484; fill-opacity:0.0; 
stroke:#008484; stroke-width:0; stroke-opacity:1; 
stroke-linecap:round; stroke-linejoin:round;">
</g>
<g style="fill:#840000; fill-opacity:0.0; 
stroke:#840000; stroke-width:0; stroke-opacity:1; 
stroke-linecap:round; stroke-linejoin:round;">
</g>
<g style="fill:#840000; fill-opacity:0.0; 
stroke:#840000; stroke-width:60; stroke-opacity:1; 
stroke-linecap:round; stroke-linejoin:round;">
<rect x="69000" y="23500" width="7500" height="2500" rx="0" />
<path d="M69000 25000
L67000 25000
" />
</g>
<g style="fill:#008484; fill-opacity:0.0; 
stroke:#008484; stroke-width:60; stroke-opacity:1; 
stroke-linecap:round; stroke-linejoin:round;">
<path d="M69520 25230
L69520 24730
" />
<path d="M69760 25230
L69760 24730
L70040 25230
L70040 24730
" />
<path d="M70540 25230
L70260 25230
" />
<path d="M70400 25230
L70400 24730
L70350 24800
L70300 24850
L70260 24870
" />
</g>
<g style="fill:#840000; fill-opacity:0.0; 
stroke:#840000; stroke-width:60; stroke-opacity:1; 
stroke-linecap:round; stroke-linejoin:round;">
<path d="M68140 24880
L67860 24880
" />
<path d="M68000 24880
L68000 24380
L67950 24450
L67900 24500
L67860 24520
" />
<path d="M76500 25000
L78500 25000
" />
</g>
<g style="fill:#008484; fill-opacity:0.0; 
stroke:#008484; stroke-width:60; stroke-opacity:1; 
stroke-linecap:round; stroke-linejoin:round;">
<path d="M74410 24730
L74510 24730
L74560 24750
L74600 24800
L74630 24890
L74630 25060
L74600 25150
L74560 25200
L74510 25230
L74410 25230
L74370 25200
L74320 25150
L74300 25060
L74300 24890
L74320 24800
L74370 24750
L74410 24730
" />
<path d="M74840 24730
L74840 25130
L74860 25180
L74890 25200
L74930 25230
L75030 25230
L75080 25200
L75100 25180
L75120 25130
L75120 24730
" />
<path d="M75290 24730
L75570 24730
" />
<path d="M75430 25230
L75430 24730
" />
<path d="M76000 25230
L75720 25230
" />
<path d="M75860 25230
L75860 24730
L75810 24800
L75760 24850
L75720 24870
" />
</g>
<g style="fill:#840000; fill-opacity:0.0; 
stroke:#840000; stroke-width:60; stroke-opacity:1; 
stroke-linecap:round; stroke-linejoin:round;">
<path d="M77360 24420
L77380 24400
L77430 24380
L77550 24380
L77590 24400
L77620 24420
L77640 24470
L77640 24520
L77620 24590
L77330 24880
L77640 24880
" />
</g>
<g style="fill:#008484; fill-opacity:0.0; 
stroke:#008484; stroke-width:60; stroke-opacity:1; 
stroke-linecap:round; stroke-linejoin:round;">
<path d="M72540 25210
L72540 25700
L72570 25750
L72600 25780
L72660 25810
L72770 25810
L72830 25780
L72860 25750
L72890 25700
L72890 25210
" />
<path d="M73120 25210
L73490 25210
L73290 25440
L73370 25440
L73430 25470
L73460 25500
L73490 25550
L73490 25700
L73460 25750
L73430 25780
L73370 25810
L73200 25810
L73140 25780
L73120 25750
" />
<path d="M70470 24310
L70470 23710
" />
<path d="M70470 24280
L70410 24310
L70300 24310
L70240 24280
L70210 24250
L70180 24200
L70180 24030
L70210 23970
L70240 23940
L70300 23910
L70410 23910
L70470 23940
" />
<path d="M71010 24310
L71010 24000
L70980 23940
L70920 23910
L70810 23910
L70750 23940
" />
<path d="M71010 24280
L70950 24310
L70810 24310
L70750 24280
L70720 24230
L70720 24170
L70750 24110
L70810 24080
L70950 24080
L71010 24050
" />
<path d="M71550 24280
L71490 24310
L71380 24310
L71320 24280
L71290 24250
L71260 24200
L71260 24030
L71290 23970
L71320 23940
L71380 23910
L71490 23910
L71550 23940
" />
<path d="M71660 24370
L72120 24370
" />
<path d="M72260 24310
L72260 23710
" />
<path d="M72260 23940
L72320 23910
L72430 23910
L72490 23940
L72520 23970
L72550 24030
L72550 24200
L72520 24250
L72490 24280
L72430 24310
L72320 24310
L72260 24280
" />
<path d="M72800 24310
L72800 23910
" />
<path d="M72800 24030
L72830 23970
L72860 23940
L72920 23910
L72970 23910
" />
<path d="M73170 24310
L73170 23910
" />
<path d="M73170 23710
L73140 23740
L73170 23770
L73200 23740
L73170 23710
L73170 23770
" />
<path d="M73720 24310
L73720 23710
" />
<path d="M73720 24280
L73660 24310
L73550 24310
L73490 24280
L73460 24250
L73430 24200
L73430 24030
L73460 23970
L73490 23940
L73550 23910
L73660 23910
L73720 23940
" />
<path d="M74260 23910
L74260 24400
L74230 24450
L74200 24480
L74150 24510
L74060 24510
L74000 24480
" />
<path d="M74260 24280
L74200 24310
L74090 24310
L74030 24280
L74000 24250
L73970 24200
L73970 24030
L74000 23970
L74030 23940
L74090 23910
L74200 23910
L74260 23940
" />
<path d="M74770 24280
L74710 24310
L74600 24310
L74540 24280
L74510 24230
L74510 24000
L74540 23940
L74600 23910
L74710 23910
L74770 23940
L74800 24000
L74800 24050
L74510 24110
" />
<path d="M74910 24370
L75370 24370
" />
<path d="M75830 24310
L75480 24310
" />
<path d="M75660 24310
L75660 23710
L75600 23800
L75540 23850
L75480 23880
" />
</g>
<g style="fill:#008484; fill-opacity:0.0; 
stroke:#008484; stroke-width:0; stroke-opacity:1; 
stroke-linecap:round; stroke-linejoin:round;">
</g>
<g style="fill:#840000; fill-opacity:0.0; 
stroke:#840000; stroke-width:0; stroke-opacity:1; 
stroke-linecap:round; stroke-linejoin:round;">
</g>
<g style="fill:#840000; fill-opacity:0.0; 
stroke:#840000; stroke-width:100; stroke-opacity:1; 
stroke-linecap:round; stroke-linejoin:round;">
<rect x="38100" y="28000" width="800" height="2000" rx="0" />
</g>
<g style="fill:#840000; fill-opacity:0.0; 
stroke:#840000; stroke-width:60; stroke-opacity:1; 
stroke-linecap:round; stroke-linejoin:round;">
<path d="M38500 30000
L38500 30500
" />
<path d="M38500 28000
L38500 27500
" />
</g>
<g style="fill:#008484; fill-opacity:0.0; 
stroke:#008484; stroke-width:60; stroke-opacity:1; 
stroke-linecap:round; stroke-linejoin:round;">
<path d="M37960 29090
L37720 29250
" />
<path d="M37960 29370
L37460 29370
L37460 29180
L37480 29130
L37500 29110
L37550 29090
L37620 29090
L37670 29110
L37690 29130
L37720 29180
L37720 29370
" />
<path d="M37960 28610
L37960 28890
" />
<path d="M37960 28750
L37460 28750
L37530 28800
L37580 28850
L37600 28890
" />
<path d="M39760 29540
L39760 29820
" />
<path d="M39760 29680
L39260 29680
L39330 29730
L39380 29780
L39400 29820
" />
<path d="M39260 29230
L39260 29180
L39280 29130
L39300 29110
L39350 29080
L39450 29060
L39570 29060
L39660 29080
L39710 29110
L39730 29130
L39760 29180
L39760 29230
L39730 29270
L39710 29300
L39660 29320
L39570 29340
L39450 29340
L39350 29320
L39300 29300
L39280 29270
L39260 29230
" />
<path d="M39260 28750
L39260 28700
L39280 28650
L39300 28630
L39350 28600
L39450 28580
L39570 28580
L39660 28600
L39710 28630
L39730 28650
L39760 28700
L39760 28750
L39730 28790
L39710 28820
L39660 28840
L39570 28860
L39450 28860
L39350 28840
L39300 28820
L39280 28790
L39260 28750
" />
<path d="M39760 28360
L39260 28360
" />
<path d="M39570 28310
L39760 28170
" />
<path d="M39420 28170
L39610 28360
" />
</g>
<g style="fill:#008484; fill-opacity:0.0; 
stroke:#008484; stroke-width:0; stroke-opacity:1; 
stroke-linecap:round; stroke-linejoin:round;">
</g>
<g style="fill:#840000; fill-opacity:0.0; 
stroke:#840000; stroke-width:0; stroke-opacity:1; 
stroke-linecap:round; stroke-linejoin:round;">
</g>
<g style="fill:#840000; fill-opacity:0.0; 
stroke:#840000; stroke-width:100; stroke-opacity:1; 
stroke-linecap:round; stroke-linejoin:round;">
<rect x="80100" y="27500" width="800" height="2000" rx="0" />
</g>
<g style="fill:#840000; fill-opacity:0.0; 
stroke:#840000; stroke-width:60; stroke-opacity:1; 
stroke-linecap:round; stroke-linejoin:round;">
<path d="M80500 29500
L80500 30000
" />
<path d="M80500 27500
L80500 27000
" />
</g>
<g style="fill:#008484; fill-opacity:0.0; 
stroke:#008484; stroke-width:60; stroke-opacity:1; 
stroke-linecap:round; stroke-linejoin:round;">
<path d="M79960 28590
L79720 28750
" />
<path d="M79960 28870
L79460 28870
L79460 28680
L79480 28630
L79500 28610
L79550 28590
L79620 28590
L79670 28610
L79690 28630
L79720 28680
L79720 28870
" />
<path d="M79500 28390
L79480 28370
L79460 28320
L79460 28200
L79480 28160
L79500 28130
L79550 28110
L79600 28110
L79670 28130
L79960 28420
L79960 28110
" />
<path d="M81760 29040
L81760 29320
" />
<path d="M81760 29180
L81260 29180
L81330 29230
L81380 29280
L81400 29320
" />
<path d="M81260 28730
L81260 28680
L81280 28630
L81300 28610
L81350 28580
L81450 28560
L81570 28560
L81660 28580
L81710 28610
L81730 28630
L81760 28680
L81760 28730
L81730 28770
L81710 28800
L81660 28820
L81570 28840
L81450 28840
L81350 28820
L81300 28800
L81280 28770
L81260 28730
" />
<path d="M81260 28250
L81260 28200
L81280 28150
L81300 28130
L81350 28100
L81450 28080
L81570 28080
L81660 28100
L81710 28130
L81730 28150
L81760 28200
L81760 28250
L81730 28290
L81710 28320
L81660 28340
L81570 28360
L81450 28360
L81350 28340
L81300 28320
L81280 28290
L81260 28250
" />
<path d="M81760 27860
L81260 27860
" />
<path d="M81570 27810
L81760 27670
" />
<path d="M81420 27670
L81610 27860
" />
</g>
<g style="fill:#008484; fill-opacity:0.0; 
stroke:#008484; stroke-width:0; stroke-opacity:1; 
stroke-linecap:round; stroke-linejoin:round;">
</g>
<g style="fill:#840000; fill-opacity:0.0; 
stroke:#840000; stroke-width:0; stroke-opacity:1; 
stroke-linecap:round; stroke-linejoin:round;">
</g>
<g style="fill:#840000; fill-opacity:0.0; 
stroke:#840000; stroke-width:60; stroke-opacity:1; 
stroke-linecap:round; stroke-linejoin:round;">
<path d="M34003.5 31996.4 A5010 5010 0.0 0 0 33505.3 31996 " />
<path d="M34006.1 33003.4 A4510 4510 0.0 0 0 34501.8 33003 " />
<path d="M34500 32004.3 A5510 5510 0.0 0 0 35009.6 32003.9 " />
<path d="M33501.8 31994.9 A4030 4030 0.0 0 0 33501.8 33005.1 " />
<path d="M33998.2 31995 A4530 4530 0.0 0 0 33998.2 33005 " />
<path d="M34502.7 31999.7 A5520 5520 0.0 0 0 34502.7 33000.3 " />
<circle cx="34000" cy="32500" r="1500" /> 
<path d="M34000 31000
L34000 28000
" />
</g>
<g style="fill:#008484; fill-opacity:0.0; 
stroke:#008484; stroke-width:60; stroke-opacity:1; 
stroke-linecap:round; stroke-linejoin:round;">
<path d="M34040 31900
L34040 31520
" />
<path d="M34230 31710
L33850 31710
" />
</g>
<g style="fill:#840000; fill-opacity:0.0; 
stroke:#840000; stroke-width:60; stroke-opacity:1; 
stroke-linecap:round; stroke-linejoin:round;">
<path d="M33880 29360
L33880 29640
" />
<path d="M33880 29500
L33380 29500
L33450 29550
L33500 29600
L33520 29640
" />
<path d="M34000 34000
L34000 37000
" />
</g>
<g style="fill:#008484; fill-opacity:0.0; 
stroke:#008484; stroke-width:60; stroke-opacity:1; 
stroke-linecap:round; stroke-linejoin:round;">
<path d="M34040 33480
L34040 33100
" />
</g>
<g style="fill:#840000; fill-opacity:0.0; 
stroke:#840000; stroke-width:60; stroke-opacity:1; 
stroke-linecap:round; stroke-linejoin:round;">
<path d="M33420 35640
L33400 35620
L33380 35570
L33380 35450
L33400 35410
L33420 35380
L33470 35360
L33520 35360
L33590 35380
L33880 35670
L33880 35360
" />
</g>
<g style="fill:#008484; fill-opacity:0.0; 
stroke:#008484; stroke-width:60; stroke-opacity:1; 
stroke-linecap:round; stroke-linejoin:round;">
<path d="M31580 31410
L31720 31810
L31860 31410
" />
<path d="M32410 31810
L32060 31810
" />
<path d="M32240 31810
L32240 31210
L32180 31300
L32120 31350
L32060 31380
" />
<path d="M30950 32910
L30950 33510
" />
<path d="M30950 32940
L31010 32910
L31120 32910
L31180 32940
L31210 32970
L31240 33030
L31240 33200
L31210 33250
L31180 33280
L31120 33310
L31010 33310
L30950 33280
" />
<path d="M31750 32910
L31750 33310
" />
<path d="M31490 32910
L31490 33230
L31520 33280
L31580 33310
L31660 33310
L31720 33280
L31750 33250
" />
<path d="M32120 33310
L32060 33280
L32030 33230
L32030 32710
" />
<path d="M32310 33280
L32370 33310
L32490 33310
L32540 33280
L32570 33230
L32570 33200
L32540 33140
L32490 33110
L32400 33110
L32340 33080
L32310 33030
L32310 33000
L32340 32940
L32400 32910
L32490 32910
L32540 32940
" />
<path d="M33060 33280
L33000 33310
L32890 33310
L32830 33280
L32800 33230
L32800 33000
L32830 32940
L32890 32910
L33000 32910
L33060 32940
L33090 33000
L33090 33050
L32800 33110
" />
</g>
<g style="fill:#840084; fill-opacity:0.0; 
stroke:#840084; stroke-width:60; stroke-opacity:1; 
stroke-linecap:round; stroke-linejoin:round;">
<path d="M30910 32810
L30710 32530
" />
<path d="M30560 32810
L30560 32210
L30790 32210
L30850 32240
L30880 32270
L30910 32330
L30910 32410
L30880 32470
L30850 32500
L30790 32530
L30560 32530
" />
<path d="M31480 32810
L31130 32810
" />
<path d="M31310 32810
L31310 32210
L31250 32300
L31190 32350
L31130 32380
" />
</g>
<g style="fill:#840084; fill-opacity:0.0; 
stroke:#840084; stroke-width:0; stroke-opacity:1; 
stroke-linecap:round; stroke-linejoin:round;">
</g>
<g style="fill:#840000; fill-opacity:0.0; 
stroke:#840000; stroke-width:0; stroke-opacity:1; 
stroke-linecap:round; stroke-linejoin:round;">
</g>
<g style="fill:#840000; fill-opacity:0.0; 
stroke:#840000; stroke-width:60; stroke-opacity:1; 
stroke-linecap:round; stroke-linejoin:round;">
<path d="M55500 36000
L55500 36000
" />
<polyline fill="none;"
points="55500,36000
55500,35500
55100,35250
55500,35000
55900,35250
55500,35500
" /> 
</g>
<g style="fill:#008484; fill-opacity:0.0; 
stroke:#008484; stroke-width:60; stroke-opacity:1; 
stroke-linecap:round; stroke-linejoin:round;">
<path d="M53770 34760
L53770 34260
L53960 34260
L54010 34280
L54030 34300
L54050 34350
L54050 34420
L54030 34470
L54010 34490
L53960 34520
L53770 34520
" />
<path d="M54220 34260
L54340 34760
L54440 34400
L54530 34760
L54650 34260
" />
<path d="M55120 34760
L54960 34520
" />
<path d="M54840 34760
L54840 34260
L55030 34260
L55080 34280
L55100 34300
L55120 34350
L55120 34420
L55100 34470
L55080 34490
L55030 34520
L54840 34520
" />
<path d="M55220 34800
L55600 34800
" />
<path d="M55890 34490
L55720 34490
" />
<path d="M55720 34760
L55720 34260
L55960 34260
" />
<path d="M56390 34760
L56150 34760
L56150 34260
" />
<path d="M56530 34610
L56760 34610
" />
<path d="M56480 34760
L56640 34260
L56810 34760
" />
<path d="M57240 34280
L57190 34260
L57120 34260
L57050 34280
L57000 34330
L56980 34380
L56960 34470
L56960 34540
L56980 34640
L57000 34680
L57050 34730
L57120 34760
L57170 34760
L57240 34730
L57260 34710
L57260 34540
L57170 34540
" />
</g>
<g style="fill:#008484; fill-opacity:0.0; 
stroke:#008484; stroke-width:0; stroke-opacity:1; 
stroke-linecap:round; stroke-linejoin:round;">
</g>
<g style="fill:#840000; fill-opacity:0.0; 
stroke:#840000; stroke-width:0; stroke-opacity:1; 
stroke-linecap:round; stroke-linejoin:round;">
</g>
<g style="fill:#840000; fill-opacity:0.0; 
stroke:#840000; stroke-width:60; stroke-opacity:1; 
stroke-linecap:round; stroke-linejoin:round;">
<polyline fill="none;"
points="55500,38500
55500,39000
56000,39000
55500,39500
55000,39000
55500,39000
" /> 
</g>
<g style="fill:#008484; fill-opacity:0.0; 
stroke:#008484; stroke-width:60; stroke-opacity:1; 
stroke-linecap:round; stroke-linejoin:round;">
<path d="M55120 39780
L55070 39760
L55000 39760
L54930 39780
L54880 39830
L54860 39880
L54840 39970
L54840 40040
L54860 40140
L54880 40180
L54930 40230
L55000 40260
L55050 40260
L55120 40230
L55140 40210
L55140 40040
L55050 40040
" />
<path d="M55360 40260
L55360 39760
L55640 40260
L55640 39760
" />
<path d="M55880 40260
L55880 39760
L56000 39760
L56070 39780
L56120 39830
L56140 39880
L56160 39970
L56160 40040
L56140 40140
L56120 40180
L56070 40230
L56000 40260
L55880 40260
" />
</g>
<g style="fill:#008400; fill-opacity:0.0; 
stroke:#008400; stroke-width:60; stroke-opacity:1; 
stroke-linecap:round; stroke-linejoin:round;">
<path d="M34000 25000
L34000 28000
" />
<path d="M52000 25000
L54500 25000
" />
<path d="M64500 25000
L67000 25000
" />
<path d="M80500 37000
L80500 30000
" />
<path d="M34000 37000
L80500 37000
" />
<path d="M55500 36000
L55500 38500
" />
<path d="M34000 25000
L40500 25000
" />
</g>
<g style="fill:#008400; fill-opacity:0.0; 
stroke:#008400; stroke-width:0; stroke-opacity:1; 
stroke-linecap:round; stroke-linejoin:round;">
</g>
<g style="fill:#008400; fill-opacity:1.0; 
stroke:#008400; stroke-width:100; stroke-opacity:1; 
stroke-linecap:round; stroke-linejoin:round;">
<circle cx="38500" cy="25000" r="200" /> 
</g>
<g style="fill:#008400; fill-opacity:1.0; 
stroke:#008400; stroke-width:60; stroke-opacity:1; 
stroke-linecap:round; stroke-linejoin:round;">
</g>
<g style="fill:#008400; fill-opacity:0.0; 
stroke:#008400; stroke-width:60; stroke-opacity:1; 
stroke-linecap:round; stroke-linejoin:round;">
<path d="M38500 30500
L38500 37000
" />
</g>
<g style="fill:#008400; fill-opacity:0.0; 
stroke:#008400; stroke-width:0; stroke-opacity:1; 
stroke-linecap:round; stroke-linejoin:round;">
</g>
<g style="fill:#008400; fill-opacity:1.0; 
stroke:#008400; stroke-width:100; stroke-opacity:1; 
stroke-linecap:round; stroke-linejoin:round;">
<circle cx="38500" cy="37000" r="200" /> 
</g>
<g style="fill:#008400; fill-opacity:1.0; 
stroke:#008400; stroke-width:60; stroke-opacity:1; 
stroke-linecap:round; stroke-linejoin:round;">
</g>
<g style="fill:#008400; fill-opacity:0.0; 
stroke:#008400; stroke-width:60; stroke-opacity:1; 
stroke-linecap:round; stroke-linejoin:round;">
<path d="M38500 25000
L38500 27500
" />
<path d="M78500 25000
L80500 25000
" />
<path d="M80500 25000
L80500 27000
" />
</g> 
</svg>
