  0
SECTION
  2
HEADER
  9
$ANGBASE
  50
0.0
  9
$ANGDIR
  70
  1
  9
$MEASUREMENT
  70
0
  0
ENDSEC
  0
SECTION
  2
TABLES
  0
TABLE
  2
LTYPE
  70
1
  0
LTYPE
  2
CONTINUOUS
  70
0
  3
Solid line
  72
65
  73
0
  40
0.0
  0
ENDTAB
  0
TABLE
  2
STYLE
  70
4
  0
STYLE
  2
KICAD
  70
0
  40
0
  41
1
  42
1
  50
0
  71
0
  3
isocp.shx
  0
STYLE
  2
KICADB
  70
0
  40
0
  41
1
  42
1
  50
0
  71
0
  3
isocp.shx
  0
STYLE
  2
KICADI
  70
0
  40
0
  41
1
  42
1
  50
15
  71
0
  3
isocp.shx
  0
STYLE
  2
KICADBI
  70
0
  40
0
  41
1
  42
1
  50
15
  71
0
  3
isocp.shx
  0
ENDTAB
  0
TABLE
  2
LAYER
  70
30
  0
LAYER
  2
BLACK
  70
0
  62
7
  6
CONTINUOUS
  0
LAYER
  2
GRAY1
  70
0
  62
251
  6
CONTINUOUS
  0
LAYER
  2
GRAY2
  70
0
  62
8
  6
CONTINUOUS
  0
LAYER
  2
GRAY3
  70
0
  62
9
  6
CONTINUOUS
  0
LAYER
  2
WHITE
  70
0
  62
7
  6
CONTINUOUS
  0
LAYER
  2
LYELLOW
  70
0
  62
51
  6
CONTINUOUS
  0
LAYER
  2
BLUE1
  70
0
  62
178
  6
CONTINUOUS
  0
LAYER
  2
GREEN1
  70
0
  62
98
  6
CONTINUOUS
  0
LAYER
  2
CYAN1
  70
0
  62
138
  6
CONTINUOUS
  0
LAYER
  2
RED1
  70
0
  62
18
  6
CONTINUOUS
  0
LAYER
  2
MAGENTA1
  70
0
  62
228
  6
CONTINUOUS
  0
LAYER
  2
BROWN1
  70
0
  62
58
  6
CONTINUOUS
  0
LAYER
  2
BLUE2
  70
0
  62
5
  6
CONTINUOUS
  0
LAYER
  2
GREEN2
  70
0
  62
3
  6
CONTINUOUS
  0
LAYER
  2
CYAN2
  70
0
  62
4
  6
CONTINUOUS
  0
LAYER
  2
RED2
  70
0
  62
1
  6
CONTINUOUS
  0
LAYER
  2
MAGENTA2
  70
0
  62
6
  6
CONTINUOUS
  0
LAYER
  2
BROWN2
  70
0
  62
54
  6
CONTINUOUS
  0
LAYER
  2
BLUE3
  70
0
  62
171
  6
CONTINUOUS
  0
LAYER
  2
GREEN3
  70
0
  62
91
  6
CONTINUOUS
  0
LAYER
  2
CYAN3
  70
0
  62
131
  6
CONTINUOUS
  0
LAYER
  2
RED3
  70
0
  62
11
  6
CONTINUOUS
  0
LAYER
  2
MAGENTA3
  70
0
  62
221
  6
CONTINUOUS
  0
LAYER
  2
YELLOW3
  70
0
  62
2
  6
CONTINUOUS
  0
LAYER
  2
BLUE4
  70
0
  62
5
  6
CONTINUOUS
  0
LAYER
  2
GREEN4
  70
0
  62
3
  6
CONTINUOUS
  0
LAYER
  2
CYAN4
  70
0
  62
4
  6
CONTINUOUS
  0
LAYER
  2
RED4
  70
0
  62
1
  6
CONTINUOUS
  0
LAYER
  2
MAGENTA4
  70
0
  62
6
  6
CONTINUOUS
  0
LAYER
  2
YELLOW4
  70
0
  62
2
  6
CONTINUOUS
  0
ENDTAB
  0
ENDSEC
  0
SECTION
  2
ENTITIES
0
LINE
8
Red 2
10
177.013
20
-166.014
11
177.013
21
-198.018
0
LINE
8
Red 2
10
177.013
20
-198.018
11
285.013
21
-198.018
0
LINE
8
Red 2
10
285.013
20
-198.018
11
285.013
21
-166.014
0
LINE
8
Red 2
10
285.013
20
-166.014
11
177.013
21
-166.014
0
LINE
8
Red 2
10
10.0076
20
-10.0076
11
10.0076
21
-200
0
LINE
8
Red 2
10
10.0076
20
-200
11
286.995
21
-200
0
LINE
8
Red 2
10
286.995
20
-200
11
286.995
21
-10.0076
0
LINE
8
Red 2
10
286.995
20
-10.0076
11
10.0076
21
-10.0076
0
LINE
8
Red 2
10
11.9888
20
-11.9888
11
11.9888
21
-198.018
0
LINE
8
Red 2
10
11.9888
20
-198.018
11
285.013
21
-198.018
0
LINE
8
Red 2
10
285.013
20
-198.018
11
285.013
21
-11.9888
0
LINE
8
Red 2
10
285.013
20
-11.9888
11
11.9888
21
-11.9888
0
LINE
8
Red 2
10
59.9948
20
-11.9888
11
59.9948
21
-10.0076
0
LINE
8
Red 2
10
110.007
20
-11.9888
11
110.007
21
-10.0076
0
LINE
8
Red 2
10
159.995
20
-11.9888
11
159.995
21
-10.0076
0
LINE
8
Red 2
10
210.007
20
-11.9888
11
210.007
21
-10.0076
0
LINE
8
Red 2
10
259.994
20
-11.9888
11
259.994
21
-10.0076
0
LINE
8
Red 2
10
35.9918
20
-11.5824
11
35.2552
21
-11.5824
0
LINE
8
Red 2
10
35.6108
20
-11.5824
11
35.6108
21
-10.287
0
LINE
8
Red 2
10
35.6108
20
-10.287
11
35.4838
21
-10.4648
0
LINE
8
Red 2
10
35.4838
20
-10.4648
11
35.3822
21
-10.5918
0
LINE
8
Red 2
10
35.3822
20
-10.5918
11
35.2552
21
-10.6426
0
LINE
8
Red 2
10
85.2424
20
-10.3886
11
85.2932
21
-10.3378
0
LINE
8
Red 2
10
85.2932
20
-10.3378
11
85.4202
21
-10.287
0
LINE
8
Red 2
10
85.4202
20
-10.287
11
85.725
21
-10.287
0
LINE
8
Red 2
10
85.725
20
-10.287
11
85.852
21
-10.3378
0
LINE
8
Red 2
10
85.852
20
-10.3378
11
85.9028
21
-10.3886
0
LINE
8
Red 2
10
85.9028
20
-10.3886
11
85.979
21
-10.5156
0
LINE
8
Red 2
10
85.979
20
-10.5156
11
85.979
21
-10.6426
0
LINE
8
Red 2
10
85.979
20
-10.6426
11
85.9028
21
-10.8204
0
LINE
8
Red 2
10
85.9028
20
-10.8204
11
85.1662
21
-11.5824
0
LINE
8
Red 2
10
85.1662
20
-11.5824
11
85.979
21
-11.5824
0
LINE
8
Red 2
10
135.179
20
-10.287
11
135.992
21
-10.287
0
LINE
8
Red 2
10
135.992
20
-10.287
11
135.56
21
-10.7696
0
LINE
8
Red 2
10
135.56
20
-10.7696
11
135.738
21
-10.7696
0
LINE
8
Red 2
10
135.738
20
-10.7696
11
135.865
21
-10.8204
0
LINE
8
Red 2
10
135.865
20
-10.8204
11
135.915
21
-10.8966
0
LINE
8
Red 2
10
135.915
20
-10.8966
11
135.992
21
-11.0236
0
LINE
8
Red 2
10
135.992
20
-11.0236
11
135.992
21
-11.3284
0
LINE
8
Red 2
10
135.992
20
-11.3284
11
135.915
21
-11.4554
0
LINE
8
Red 2
10
135.915
20
-11.4554
11
135.865
21
-11.5062
0
LINE
8
Red 2
10
135.865
20
-11.5062
11
135.738
21
-11.5824
0
LINE
8
Red 2
10
135.738
20
-11.5824
11
135.382
21
-11.5824
0
LINE
8
Red 2
10
135.382
20
-11.5824
11
135.255
21
-11.5062
0
LINE
8
Red 2
10
135.255
20
-11.5062
11
135.179
21
-11.4554
0
LINE
8
Red 2
10
185.852
20
-10.7188
11
185.852
21
-11.5824
0
LINE
8
Red 2
10
185.547
20
-10.2108
11
185.242
21
-11.1506
0
LINE
8
Red 2
10
185.242
20
-11.1506
11
186.03
21
-11.1506
0
LINE
8
Red 2
10
235.915
20
-10.287
11
235.306
21
-10.287
0
LINE
8
Red 2
10
235.306
20
-10.287
11
235.255
21
-10.8966
0
LINE
8
Red 2
10
235.255
20
-10.8966
11
235.306
21
-10.8204
0
LINE
8
Red 2
10
235.306
20
-10.8204
11
235.433
21
-10.7696
0
LINE
8
Red 2
10
235.433
20
-10.7696
11
235.737
21
-10.7696
0
LINE
8
Red 2
10
235.737
20
-10.7696
11
235.864
21
-10.8204
0
LINE
8
Red 2
10
235.864
20
-10.8204
11
235.915
21
-10.8966
0
LINE
8
Red 2
10
235.915
20
-10.8966
11
235.991
21
-11.0236
0
LINE
8
Red 2
10
235.991
20
-11.0236
11
235.991
21
-11.3284
0
LINE
8
Red 2
10
235.991
20
-11.3284
11
235.915
21
-11.4554
0
LINE
8
Red 2
10
235.915
20
-11.4554
11
235.864
21
-11.5062
0
LINE
8
Red 2
10
235.864
20
-11.5062
11
235.737
21
-11.5824
0
LINE
8
Red 2
10
235.737
20
-11.5824
11
235.433
21
-11.5824
0
LINE
8
Red 2
10
235.433
20
-11.5824
11
235.306
21
-11.5062
0
LINE
8
Red 2
10
235.306
20
-11.5062
11
235.255
21
-11.4554
0
LINE
8
Red 2
10
285.852
20
-10.287
11
285.598
21
-10.287
0
LINE
8
Red 2
10
285.598
20
-10.287
11
285.471
21
-10.3378
0
LINE
8
Red 2
10
285.471
20
-10.3378
11
285.42
21
-10.3886
0
LINE
8
Red 2
10
285.42
20
-10.3886
11
285.293
21
-10.5918
0
LINE
8
Red 2
10
285.293
20
-10.5918
11
285.242
21
-10.8204
0
LINE
8
Red 2
10
285.242
20
-10.8204
11
285.242
21
-11.3284
0
LINE
8
Red 2
10
285.242
20
-11.3284
11
285.293
21
-11.4554
0
LINE
8
Red 2
10
285.293
20
-11.4554
11
285.369
21
-11.5062
0
LINE
8
Red 2
10
285.369
20
-11.5062
11
285.471
21
-11.5824
0
LINE
8
Red 2
10
285.471
20
-11.5824
11
285.725
21
-11.5824
0
LINE
8
Red 2
10
285.725
20
-11.5824
11
285.852
21
-11.5062
0
LINE
8
Red 2
10
285.852
20
-11.5062
11
285.902
21
-11.4554
0
LINE
8
Red 2
10
285.902
20
-11.4554
11
285.979
21
-11.3284
0
LINE
8
Red 2
10
285.979
20
-11.3284
11
285.979
21
-11.0236
0
LINE
8
Red 2
10
285.979
20
-11.0236
11
285.902
21
-10.8966
0
LINE
8
Red 2
10
285.902
20
-10.8966
11
285.852
21
-10.8204
0
LINE
8
Red 2
10
285.852
20
-10.8204
11
285.725
21
-10.7696
0
LINE
8
Red 2
10
285.725
20
-10.7696
11
285.471
21
-10.7696
0
LINE
8
Red 2
10
285.471
20
-10.7696
11
285.369
21
-10.8204
0
LINE
8
Red 2
10
285.369
20
-10.8204
11
285.293
21
-10.8966
0
LINE
8
Red 2
10
285.293
20
-10.8966
11
285.242
21
-11.0236
0
LINE
8
Red 2
10
59.9948
20
-198.018
11
59.9948
21
-200
0
LINE
8
Red 2
10
110.007
20
-198.018
11
110.007
21
-200
0
LINE
8
Red 2
10
159.995
20
-198.018
11
159.995
21
-200
0
LINE
8
Red 2
10
210.007
20
-198.018
11
210.007
21
-200
0
LINE
8
Red 2
10
259.994
20
-198.018
11
259.994
21
-200
0
LINE
8
Red 2
10
35.9918
20
-199.593
11
35.2552
21
-199.593
0
LINE
8
Red 2
10
35.6108
20
-199.593
11
35.6108
21
-198.298
0
LINE
8
Red 2
10
35.6108
20
-198.298
11
35.4838
21
-198.476
0
LINE
8
Red 2
10
35.4838
20
-198.476
11
35.3822
21
-198.603
0
LINE
8
Red 2
10
35.3822
20
-198.603
11
35.2552
21
-198.653
0
LINE
8
Red 2
10
85.2424
20
-198.399
11
85.2932
21
-198.349
0
LINE
8
Red 2
10
85.2932
20
-198.349
11
85.4202
21
-198.298
0
LINE
8
Red 2
10
85.4202
20
-198.298
11
85.725
21
-198.298
0
LINE
8
Red 2
10
85.725
20
-198.298
11
85.852
21
-198.349
0
LINE
8
Red 2
10
85.852
20
-198.349
11
85.9028
21
-198.399
0
LINE
8
Red 2
10
85.9028
20
-198.399
11
85.979
21
-198.526
0
LINE
8
Red 2
10
85.979
20
-198.526
11
85.979
21
-198.653
0
LINE
8
Red 2
10
85.979
20
-198.653
11
85.9028
21
-198.831
0
LINE
8
Red 2
10
85.9028
20
-198.831
11
85.1662
21
-199.593
0
LINE
8
Red 2
10
85.1662
20
-199.593
11
85.979
21
-199.593
0
LINE
8
Red 2
10
135.179
20
-198.298
11
135.992
21
-198.298
0
LINE
8
Red 2
10
135.992
20
-198.298
11
135.56
21
-198.78
0
LINE
8
Red 2
10
135.56
20
-198.78
11
135.738
21
-198.78
0
LINE
8
Red 2
10
135.738
20
-198.78
11
135.865
21
-198.831
0
LINE
8
Red 2
10
135.865
20
-198.831
11
135.915
21
-198.907
0
LINE
8
Red 2
10
135.915
20
-198.907
11
135.992
21
-199.034
0
LINE
8
Red 2
10
135.992
20
-199.034
11
135.992
21
-199.339
0
LINE
8
Red 2
10
135.992
20
-199.339
11
135.915
21
-199.466
0
LINE
8
Red 2
10
135.915
20
-199.466
11
135.865
21
-199.517
0
LINE
8
Red 2
10
135.865
20
-199.517
11
135.738
21
-199.593
0
LINE
8
Red 2
10
135.738
20
-199.593
11
135.382
21
-199.593
0
LINE
8
Red 2
10
135.382
20
-199.593
11
135.255
21
-199.517
0
LINE
8
Red 2
10
135.255
20
-199.517
11
135.179
21
-199.466
0
LINE
8
Red 2
10
185.852
20
-198.73
11
185.852
21
-199.593
0
LINE
8
Red 2
10
185.547
20
-198.222
11
185.242
21
-199.161
0
LINE
8
Red 2
10
185.242
20
-199.161
11
186.03
21
-199.161
0
LINE
8
Red 2
10
235.915
20
-198.298
11
235.306
21
-198.298
0
LINE
8
Red 2
10
235.306
20
-198.298
11
235.255
21
-198.907
0
LINE
8
Red 2
10
235.255
20
-198.907
11
235.306
21
-198.831
0
LINE
8
Red 2
10
235.306
20
-198.831
11
235.433
21
-198.78
0
LINE
8
Red 2
10
235.433
20
-198.78
11
235.737
21
-198.78
0
LINE
8
Red 2
10
235.737
20
-198.78
11
235.864
21
-198.831
0
LINE
8
Red 2
10
235.864
20
-198.831
11
235.915
21
-198.907
0
LINE
8
Red 2
10
235.915
20
-198.907
11
235.991
21
-199.034
0
LINE
8
Red 2
10
235.991
20
-199.034
11
235.991
21
-199.339
0
LINE
8
Red 2
10
235.991
20
-199.339
11
235.915
21
-199.466
0
LINE
8
Red 2
10
235.915
20
-199.466
11
235.864
21
-199.517
0
LINE
8
Red 2
10
235.864
20
-199.517
11
235.737
21
-199.593
0
LINE
8
Red 2
10
235.737
20
-199.593
11
235.433
21
-199.593
0
LINE
8
Red 2
10
235.433
20
-199.593
11
235.306
21
-199.517
0
LINE
8
Red 2
10
235.306
20
-199.517
11
235.255
21
-199.466
0
LINE
8
Red 2
10
285.852
20
-198.298
11
285.598
21
-198.298
0
LINE
8
Red 2
10
285.598
20
-198.298
11
285.471
21
-198.349
0
LINE
8
Red 2
10
285.471
20
-198.349
11
285.42
21
-198.399
0
LINE
8
Red 2
10
285.42
20
-198.399
11
285.293
21
-198.603
0
LINE
8
Red 2
10
285.293
20
-198.603
11
285.242
21
-198.831
0
LINE
8
Red 2
10
285.242
20
-198.831
11
285.242
21
-199.339
0
LINE
8
Red 2
10
285.242
20
-199.339
11
285.293
21
-199.466
0
LINE
8
Red 2
10
285.293
20
-199.466
11
285.369
21
-199.517
0
LINE
8
Red 2
10
285.369
20
-199.517
11
285.471
21
-199.593
0
LINE
8
Red 2
10
285.471
20
-199.593
11
285.725
21
-199.593
0
LINE
8
Red 2
10
285.725
20
-199.593
11
285.852
21
-199.517
0
LINE
8
Red 2
10
285.852
20
-199.517
11
285.902
21
-199.466
0
LINE
8
Red 2
10
285.902
20
-199.466
11
285.979
21
-199.339
0
LINE
8
Red 2
10
285.979
20
-199.339
11
285.979
21
-199.034
0
LINE
8
Red 2
10
285.979
20
-199.034
11
285.902
21
-198.907
0
LINE
8
Red 2
10
285.902
20
-198.907
11
285.852
21
-198.831
0
LINE
8
Red 2
10
285.852
20
-198.831
11
285.725
21
-198.78
0
LINE
8
Red 2
10
285.725
20
-198.78
11
285.471
21
-198.78
0
LINE
8
Red 2
10
285.471
20
-198.78
11
285.369
21
-198.831
0
LINE
8
Red 2
10
285.369
20
-198.831
11
285.293
21
-198.907
0
LINE
8
Red 2
10
285.293
20
-198.907
11
285.242
21
-199.034
0
LINE
8
Red 2
10
10.0076
20
-59.9948
11
11.9888
21
-59.9948
0
LINE
8
Red 2
10
10.0076
20
-110.007
11
11.9888
21
-110.007
0
LINE
8
Red 2
10
10.0076
20
-159.995
11
11.9888
21
-159.995
0
LINE
8
Red 2
10
10.6934
20
-35.2044
11
11.303
21
-35.2044
0
LINE
8
Red 2
10
10.5664
20
-35.5854
11
10.9982
21
-34.29
0
LINE
8
Red 2
10
10.9982
20
-34.29
11
11.43
21
-35.5854
0
LINE
8
Red 2
10
11.0998
20
-84.8868
11
11.2776
21
-84.9376
0
LINE
8
Red 2
10
11.2776
20
-84.9376
11
11.3538
21
-85.0138
0
LINE
8
Red 2
10
11.3538
20
-85.0138
11
11.4046
21
-85.1408
0
LINE
8
Red 2
10
11.4046
20
-85.1408
11
11.4046
21
-85.3186
0
LINE
8
Red 2
10
11.4046
20
-85.3186
11
11.3538
21
-85.4456
0
LINE
8
Red 2
10
11.3538
20
-85.4456
11
11.2776
21
-85.4964
0
LINE
8
Red 2
10
11.2776
20
-85.4964
11
11.176
21
-85.5726
0
LINE
8
Red 2
10
11.176
20
-85.5726
11
10.668
21
-85.5726
0
LINE
8
Red 2
10
10.668
20
-85.5726
11
10.668
21
-84.2772
0
LINE
8
Red 2
10
10.668
20
-84.2772
11
11.0998
21
-84.2772
0
LINE
8
Red 2
10
11.0998
20
-84.2772
11
11.2268
21
-84.328
0
LINE
8
Red 2
10
11.2268
20
-84.328
11
11.2776
21
-84.3788
0
LINE
8
Red 2
10
11.2776
20
-84.3788
11
11.3538
21
-84.5058
0
LINE
8
Red 2
10
11.3538
20
-84.5058
11
11.3538
21
-84.6328
0
LINE
8
Red 2
10
11.3538
20
-84.6328
11
11.2776
21
-84.7598
0
LINE
8
Red 2
10
11.2776
20
-84.7598
11
11.2268
21
-84.8106
0
LINE
8
Red 2
10
11.2268
20
-84.8106
11
11.0998
21
-84.8868
0
LINE
8
Red 2
10
11.0998
20
-84.8868
11
10.668
21
-84.8868
0
LINE
8
Red 2
10
11.4046
20
-135.458
11
11.3538
21
-135.509
0
LINE
8
Red 2
10
11.3538
20
-135.509
11
11.176
21
-135.585
0
LINE
8
Red 2
10
11.176
20
-135.585
11
11.049
21
-135.585
0
LINE
8
Red 2
10
11.049
20
-135.585
11
10.8458
21
-135.509
0
LINE
8
Red 2
10
10.8458
20
-135.509
11
10.7442
21
-135.382
0
LINE
8
Red 2
10
10.7442
20
-135.382
11
10.668
21
-135.255
0
LINE
8
Red 2
10
10.668
20
-135.255
11
10.6172
21
-135.026
0
LINE
8
Red 2
10
10.6172
20
-135.026
11
10.6172
21
-134.823
0
LINE
8
Red 2
10
10.6172
20
-134.823
11
10.668
21
-134.595
0
LINE
8
Red 2
10
10.668
20
-134.595
11
10.7442
21
-134.468
0
LINE
8
Red 2
10
10.7442
20
-134.468
11
10.8458
21
-134.341
0
LINE
8
Red 2
10
10.8458
20
-134.341
11
11.049
21
-134.29
0
LINE
8
Red 2
10
11.049
20
-134.29
11
11.176
21
-134.29
0
LINE
8
Red 2
10
11.176
20
-134.29
11
11.3538
21
-134.341
0
LINE
8
Red 2
10
11.3538
20
-134.341
11
11.4046
21
-134.391
0
LINE
8
Red 2
10
10.668
20
-185.572
11
10.668
21
-184.277
0
LINE
8
Red 2
10
10.668
20
-184.277
11
10.9728
21
-184.277
0
LINE
8
Red 2
10
10.9728
20
-184.277
11
11.176
21
-184.328
0
LINE
8
Red 2
10
11.176
20
-184.328
11
11.2776
21
-184.455
0
LINE
8
Red 2
10
11.2776
20
-184.455
11
11.3538
21
-184.582
0
LINE
8
Red 2
10
11.3538
20
-184.582
11
11.4046
21
-184.81
0
LINE
8
Red 2
10
11.4046
20
-184.81
11
11.4046
21
-185.014
0
LINE
8
Red 2
10
11.4046
20
-185.014
11
11.3538
21
-185.242
0
LINE
8
Red 2
10
11.3538
20
-185.242
11
11.2776
21
-185.369
0
LINE
8
Red 2
10
11.2776
20
-185.369
11
11.176
21
-185.496
0
LINE
8
Red 2
10
11.176
20
-185.496
11
10.9728
21
-185.572
0
LINE
8
Red 2
10
10.9728
20
-185.572
11
10.668
21
-185.572
0
LINE
8
Red 2
10
286.995
20
-59.9948
11
285.013
21
-59.9948
0
LINE
8
Red 2
10
286.995
20
-110.007
11
285.013
21
-110.007
0
LINE
8
Red 2
10
286.995
20
-159.995
11
285.013
21
-159.995
0
LINE
8
Red 2
10
285.699
20
-35.2044
11
286.309
21
-35.2044
0
LINE
8
Red 2
10
285.572
20
-35.5854
11
286.004
21
-34.29
0
LINE
8
Red 2
10
286.004
20
-34.29
11
286.436
21
-35.5854
0
LINE
8
Red 2
10
286.106
20
-84.8868
11
286.283
21
-84.9376
0
LINE
8
Red 2
10
286.283
20
-84.9376
11
286.36
21
-85.0138
0
LINE
8
Red 2
10
286.36
20
-85.0138
11
286.41
21
-85.1408
0
LINE
8
Red 2
10
286.41
20
-85.1408
11
286.41
21
-85.3186
0
LINE
8
Red 2
10
286.41
20
-85.3186
11
286.36
21
-85.4456
0
LINE
8
Red 2
10
286.36
20
-85.4456
11
286.283
21
-85.4964
0
LINE
8
Red 2
10
286.283
20
-85.4964
11
286.182
21
-85.5726
0
LINE
8
Red 2
10
286.182
20
-85.5726
11
285.674
21
-85.5726
0
LINE
8
Red 2
10
285.674
20
-85.5726
11
285.674
21
-84.2772
0
LINE
8
Red 2
10
285.674
20
-84.2772
11
286.106
21
-84.2772
0
LINE
8
Red 2
10
286.106
20
-84.2772
11
286.233
21
-84.328
0
LINE
8
Red 2
10
286.233
20
-84.328
11
286.283
21
-84.3788
0
LINE
8
Red 2
10
286.283
20
-84.3788
11
286.36
21
-84.5058
0
LINE
8
Red 2
10
286.36
20
-84.5058
11
286.36
21
-84.6328
0
LINE
8
Red 2
10
286.36
20
-84.6328
11
286.283
21
-84.7598
0
LINE
8
Red 2
10
286.283
20
-84.7598
11
286.233
21
-84.8106
0
LINE
8
Red 2
10
286.233
20
-84.8106
11
286.106
21
-84.8868
0
LINE
8
Red 2
10
286.106
20
-84.8868
11
285.674
21
-84.8868
0
LINE
8
Red 2
10
286.41
20
-135.458
11
286.36
21
-135.509
0
LINE
8
Red 2
10
286.36
20
-135.509
11
286.182
21
-135.585
0
LINE
8
Red 2
10
286.182
20
-135.585
11
286.055
21
-135.585
0
LINE
8
Red 2
10
286.055
20
-135.585
11
285.852
21
-135.509
0
LINE
8
Red 2
10
285.852
20
-135.509
11
285.75
21
-135.382
0
LINE
8
Red 2
10
285.75
20
-135.382
11
285.674
21
-135.255
0
LINE
8
Red 2
10
285.674
20
-135.255
11
285.623
21
-135.026
0
LINE
8
Red 2
10
285.623
20
-135.026
11
285.623
21
-134.823
0
LINE
8
Red 2
10
285.623
20
-134.823
11
285.674
21
-134.595
0
LINE
8
Red 2
10
285.674
20
-134.595
11
285.75
21
-134.468
0
LINE
8
Red 2
10
285.75
20
-134.468
11
285.852
21
-134.341
0
LINE
8
Red 2
10
285.852
20
-134.341
11
286.055
21
-134.29
0
LINE
8
Red 2
10
286.055
20
-134.29
11
286.182
21
-134.29
0
LINE
8
Red 2
10
286.182
20
-134.29
11
286.36
21
-134.341
0
LINE
8
Red 2
10
286.36
20
-134.341
11
286.41
21
-134.391
0
LINE
8
Red 2
10
285.674
20
-185.572
11
285.674
21
-184.277
0
LINE
8
Red 2
10
285.674
20
-184.277
11
285.979
21
-184.277
0
LINE
8
Red 2
10
285.979
20
-184.277
11
286.182
21
-184.328
0
LINE
8
Red 2
10
286.182
20
-184.328
11
286.283
21
-184.455
0
LINE
8
Red 2
10
286.283
20
-184.455
11
286.36
21
-184.582
0
LINE
8
Red 2
10
286.36
20
-184.582
11
286.41
21
-184.81
0
LINE
8
Red 2
10
286.41
20
-184.81
11
286.41
21
-185.014
0
LINE
8
Red 2
10
286.41
20
-185.014
11
286.36
21
-185.242
0
LINE
8
Red 2
10
286.36
20
-185.242
11
286.283
21
-185.369
0
LINE
8
Red 2
10
286.283
20
-185.369
11
286.182
21
-185.496
0
LINE
8
Red 2
10
286.182
20
-185.496
11
285.979
21
-185.572
0
LINE
8
Red 2
10
285.979
20
-185.572
11
285.674
21
-185.572
0
LINE
8
Red 2
10
200.355
20
-193.777
11
200.355
21
-192.278
0
LINE
8
Red 2
10
200.355
20
-192.278
11
200.711
21
-192.278
0
LINE
8
Red 2
10
200.711
20
-192.278
11
200.939
21
-192.354
0
LINE
8
Red 2
10
200.939
20
-192.354
11
201.066
21
-192.507
0
LINE
8
Red 2
10
201.066
20
-192.507
11
201.143
21
-192.634
0
LINE
8
Red 2
10
201.143
20
-192.634
11
201.219
21
-192.913
0
LINE
8
Red 2
10
201.219
20
-192.913
11
201.219
21
-193.142
0
LINE
8
Red 2
10
201.219
20
-193.142
11
201.143
21
-193.421
0
LINE
8
Red 2
10
201.143
20
-193.421
11
201.066
21
-193.573
0
LINE
8
Red 2
10
201.066
20
-193.573
11
200.939
21
-193.7
0
LINE
8
Red 2
10
200.939
20
-193.7
11
200.711
21
-193.777
0
LINE
8
Red 2
10
200.711
20
-193.777
11
200.355
21
-193.777
0
LINE
8
Red 2
10
202.489
20
-193.777
11
202.489
21
-192.989
0
LINE
8
Red 2
10
202.489
20
-192.989
11
202.438
21
-192.862
0
LINE
8
Red 2
10
202.438
20
-192.862
11
202.286
21
-192.786
0
LINE
8
Red 2
10
202.286
20
-192.786
11
202.006
21
-192.786
0
LINE
8
Red 2
10
202.006
20
-192.786
11
201.854
21
-192.862
0
LINE
8
Red 2
10
202.489
20
-193.7
11
202.362
21
-193.777
0
LINE
8
Red 2
10
202.362
20
-193.777
11
202.006
21
-193.777
0
LINE
8
Red 2
10
202.006
20
-193.777
11
201.854
21
-193.7
0
LINE
8
Red 2
10
201.854
20
-193.7
11
201.778
21
-193.573
0
LINE
8
Red 2
10
201.778
20
-193.573
11
201.778
21
-193.421
0
LINE
8
Red 2
10
201.778
20
-193.421
11
201.854
21
-193.294
0
LINE
8
Red 2
10
201.854
20
-193.294
11
202.006
21
-193.218
0
LINE
8
Red 2
10
202.006
20
-193.218
11
202.362
21
-193.218
0
LINE
8
Red 2
10
202.362
20
-193.218
11
202.489
21
-193.142
0
LINE
8
Red 2
10
202.997
20
-192.786
11
203.556
21
-192.786
0
LINE
8
Red 2
10
203.2
20
-192.278
11
203.2
21
-193.573
0
LINE
8
Red 2
10
203.2
20
-193.573
11
203.276
21
-193.7
0
LINE
8
Red 2
10
203.276
20
-193.7
11
203.403
21
-193.777
0
LINE
8
Red 2
10
203.403
20
-193.777
11
203.556
21
-193.777
0
LINE
8
Red 2
10
204.648
20
-193.7
11
204.495
21
-193.777
0
LINE
8
Red 2
10
204.495
20
-193.777
11
204.216
21
-193.777
0
LINE
8
Red 2
10
204.216
20
-193.777
11
204.064
21
-193.7
0
LINE
8
Red 2
10
204.064
20
-193.7
11
203.987
21
-193.573
0
LINE
8
Red 2
10
203.987
20
-193.573
11
203.987
21
-192.989
0
LINE
8
Red 2
10
203.987
20
-192.989
11
204.064
21
-192.862
0
LINE
8
Red 2
10
204.064
20
-192.862
11
204.216
21
-192.786
0
LINE
8
Red 2
10
204.216
20
-192.786
11
204.495
21
-192.786
0
LINE
8
Red 2
10
204.495
20
-192.786
11
204.648
21
-192.862
0
LINE
8
Red 2
10
204.648
20
-192.862
11
204.699
21
-192.989
0
LINE
8
Red 2
10
204.699
20
-192.989
11
204.699
21
-193.142
0
LINE
8
Red 2
10
204.699
20
-193.142
11
203.987
21
-193.294
0
LINE
8
Red 2
10
205.359
20
-193.65
11
205.435
21
-193.7
0
LINE
8
Red 2
10
205.435
20
-193.7
11
205.359
21
-193.777
0
LINE
8
Red 2
10
205.359
20
-193.777
11
205.283
21
-193.7
0
LINE
8
Red 2
10
205.283
20
-193.7
11
205.359
21
-193.65
0
LINE
8
Red 2
10
205.359
20
-193.65
11
205.359
21
-193.777
0
LINE
8
Red 2
10
205.359
20
-192.862
11
205.435
21
-192.913
0
LINE
8
Red 2
10
205.435
20
-192.913
11
205.359
21
-192.989
0
LINE
8
Red 2
10
205.359
20
-192.989
11
205.283
21
-192.913
0
LINE
8
Red 2
10
205.283
20
-192.913
11
205.359
21
-192.862
0
LINE
8
Red 2
10
205.359
20
-192.862
11
205.359
21
-192.989
0
LINE
8
Red 2
10
177.013
20
-194.513
11
285.013
21
-194.513
0
LINE
8
Red 2
10
178.359
20
-196.571
11
178.359
21
-195.072
0
LINE
8
Red 2
10
179.222
20
-196.571
11
178.562
21
-195.707
0
LINE
8
Red 2
10
179.222
20
-195.072
11
178.359
21
-195.936
0
LINE
8
Red 2
10
179.857
20
-196.571
11
179.857
21
-195.58
0
LINE
8
Red 2
10
179.857
20
-195.072
11
179.781
21
-195.148
0
LINE
8
Red 2
10
179.781
20
-195.148
11
179.857
21
-195.224
0
LINE
8
Red 2
10
179.857
20
-195.224
11
179.934
21
-195.148
0
LINE
8
Red 2
10
179.934
20
-195.148
11
179.857
21
-195.072
0
LINE
8
Red 2
10
179.857
20
-195.072
11
179.857
21
-195.224
0
LINE
8
Red 2
10
181.432
20
-196.444
11
181.356
21
-196.494
0
LINE
8
Red 2
10
181.356
20
-196.494
11
181.153
21
-196.571
0
LINE
8
Red 2
10
181.153
20
-196.571
11
181
21
-196.571
0
LINE
8
Red 2
10
181
20
-196.571
11
180.772
21
-196.494
0
LINE
8
Red 2
10
180.772
20
-196.494
11
180.645
21
-196.367
0
LINE
8
Red 2
10
180.645
20
-196.367
11
180.569
21
-196.215
0
LINE
8
Red 2
10
180.569
20
-196.215
11
180.492
21
-195.936
0
LINE
8
Red 2
10
180.492
20
-195.936
11
180.492
21
-195.707
0
LINE
8
Red 2
10
180.492
20
-195.707
11
180.569
21
-195.428
0
LINE
8
Red 2
10
180.569
20
-195.428
11
180.645
21
-195.301
0
LINE
8
Red 2
10
180.645
20
-195.301
11
180.772
21
-195.148
0
LINE
8
Red 2
10
180.772
20
-195.148
11
181
21
-195.072
0
LINE
8
Red 2
10
181
20
-195.072
11
181.153
21
-195.072
0
LINE
8
Red 2
10
181.153
20
-195.072
11
181.356
21
-195.148
0
LINE
8
Red 2
10
181.356
20
-195.148
11
181.432
21
-195.224
0
LINE
8
Red 2
10
182.702
20
-196.571
11
182.702
21
-195.783
0
LINE
8
Red 2
10
182.702
20
-195.783
11
182.651
21
-195.656
0
LINE
8
Red 2
10
182.651
20
-195.656
11
182.499
21
-195.58
0
LINE
8
Red 2
10
182.499
20
-195.58
11
182.22
21
-195.58
0
LINE
8
Red 2
10
182.22
20
-195.58
11
182.067
21
-195.656
0
LINE
8
Red 2
10
182.702
20
-196.494
11
182.575
21
-196.571
0
LINE
8
Red 2
10
182.575
20
-196.571
11
182.22
21
-196.571
0
LINE
8
Red 2
10
182.22
20
-196.571
11
182.067
21
-196.494
0
LINE
8
Red 2
10
182.067
20
-196.494
11
181.991
21
-196.367
0
LINE
8
Red 2
10
181.991
20
-196.367
11
181.991
21
-196.215
0
LINE
8
Red 2
10
181.991
20
-196.215
11
182.067
21
-196.088
0
LINE
8
Red 2
10
182.067
20
-196.088
11
182.22
21
-196.012
0
LINE
8
Red 2
10
182.22
20
-196.012
11
182.575
21
-196.012
0
LINE
8
Red 2
10
182.575
20
-196.012
11
182.702
21
-195.936
0
LINE
8
Red 2
10
184.048
20
-196.571
11
184.048
21
-195.072
0
LINE
8
Red 2
10
184.048
20
-196.494
11
183.921
21
-196.571
0
LINE
8
Red 2
10
183.921
20
-196.571
11
183.617
21
-196.571
0
LINE
8
Red 2
10
183.617
20
-196.571
11
183.49
21
-196.494
0
LINE
8
Red 2
10
183.49
20
-196.494
11
183.413
21
-196.444
0
LINE
8
Red 2
10
183.413
20
-196.444
11
183.337
21
-196.291
0
LINE
8
Red 2
10
183.337
20
-196.291
11
183.337
21
-195.859
0
LINE
8
Red 2
10
183.337
20
-195.859
11
183.413
21
-195.707
0
LINE
8
Red 2
10
183.413
20
-195.707
11
183.49
21
-195.656
0
LINE
8
Red 2
10
183.49
20
-195.656
11
183.617
21
-195.58
0
LINE
8
Red 2
10
183.617
20
-195.58
11
183.921
21
-195.58
0
LINE
8
Red 2
10
183.921
20
-195.58
11
184.048
21
-195.656
0
LINE
8
Red 2
10
185.903
20
-195.783
11
186.411
21
-195.783
0
LINE
8
Red 2
10
186.614
20
-196.571
11
185.903
21
-196.571
0
LINE
8
Red 2
10
185.903
20
-196.571
11
185.903
21
-195.072
0
LINE
8
Red 2
10
185.903
20
-195.072
11
186.614
21
-195.072
0
LINE
8
Red 2
10
187.249
20
-196.444
11
187.325
21
-196.494
0
LINE
8
Red 2
10
187.325
20
-196.494
11
187.249
21
-196.571
0
LINE
8
Red 2
10
187.249
20
-196.571
11
187.173
21
-196.494
0
LINE
8
Red 2
10
187.173
20
-196.494
11
187.249
21
-196.444
0
LINE
8
Red 2
10
187.249
20
-196.444
11
187.249
21
-196.571
0
LINE
8
Red 2
10
187.96
20
-196.571
11
187.96
21
-195.072
0
LINE
8
Red 2
10
187.96
20
-195.072
11
188.316
21
-195.072
0
LINE
8
Red 2
10
188.316
20
-195.072
11
188.544
21
-195.148
0
LINE
8
Red 2
10
188.544
20
-195.148
11
188.671
21
-195.301
0
LINE
8
Red 2
10
188.671
20
-195.301
11
188.747
21
-195.428
0
LINE
8
Red 2
10
188.747
20
-195.428
11
188.824
21
-195.707
0
LINE
8
Red 2
10
188.824
20
-195.707
11
188.824
21
-195.936
0
LINE
8
Red 2
10
188.824
20
-195.936
11
188.747
21
-196.215
0
LINE
8
Red 2
10
188.747
20
-196.215
11
188.671
21
-196.367
0
LINE
8
Red 2
10
188.671
20
-196.367
11
188.544
21
-196.494
0
LINE
8
Red 2
10
188.544
20
-196.494
11
188.316
21
-196.571
0
LINE
8
Red 2
10
188.316
20
-196.571
11
187.96
21
-196.571
0
LINE
8
Red 2
10
189.459
20
-196.444
11
189.535
21
-196.494
0
LINE
8
Red 2
10
189.535
20
-196.494
11
189.459
21
-196.571
0
LINE
8
Red 2
10
189.459
20
-196.571
11
189.382
21
-196.494
0
LINE
8
Red 2
10
189.382
20
-196.494
11
189.459
21
-196.444
0
LINE
8
Red 2
10
189.459
20
-196.444
11
189.459
21
-196.571
0
LINE
8
Red 2
10
190.094
20
-196.139
11
190.805
21
-196.139
0
LINE
8
Red 2
10
189.967
20
-196.571
11
190.449
21
-195.072
0
LINE
8
Red 2
10
190.449
20
-195.072
11
190.957
21
-196.571
0
LINE
8
Red 2
10
191.465
20
-196.444
11
191.541
21
-196.494
0
LINE
8
Red 2
10
191.541
20
-196.494
11
191.465
21
-196.571
0
LINE
8
Red 2
10
191.465
20
-196.571
11
191.389
21
-196.494
0
LINE
8
Red 2
10
191.389
20
-196.494
11
191.465
21
-196.444
0
LINE
8
Red 2
10
191.465
20
-196.444
11
191.465
21
-196.571
0
LINE
8
Red 2
10
195.047
20
-196.494
11
194.894
21
-196.571
0
LINE
8
Red 2
10
194.894
20
-196.571
11
194.615
21
-196.571
0
LINE
8
Red 2
10
194.615
20
-196.571
11
194.462
21
-196.494
0
LINE
8
Red 2
10
194.462
20
-196.494
11
194.386
21
-196.367
0
LINE
8
Red 2
10
194.386
20
-196.367
11
194.386
21
-195.783
0
LINE
8
Red 2
10
194.386
20
-195.783
11
194.462
21
-195.656
0
LINE
8
Red 2
10
194.462
20
-195.656
11
194.615
21
-195.58
0
LINE
8
Red 2
10
194.615
20
-195.58
11
194.894
21
-195.58
0
LINE
8
Red 2
10
194.894
20
-195.58
11
195.047
21
-195.656
0
LINE
8
Red 2
10
195.047
20
-195.656
11
195.097
21
-195.783
0
LINE
8
Red 2
10
195.097
20
-195.783
11
195.097
21
-195.936
0
LINE
8
Red 2
10
195.097
20
-195.936
11
194.386
21
-196.088
0
LINE
8
Red 2
10
196.342
20
-196.494
11
196.19
21
-196.571
0
LINE
8
Red 2
10
196.19
20
-196.571
11
195.91
21
-196.571
0
LINE
8
Red 2
10
195.91
20
-196.571
11
195.758
21
-196.494
0
LINE
8
Red 2
10
195.758
20
-196.494
11
195.682
21
-196.367
0
LINE
8
Red 2
10
195.682
20
-196.367
11
195.682
21
-195.783
0
LINE
8
Red 2
10
195.682
20
-195.783
11
195.758
21
-195.656
0
LINE
8
Red 2
10
195.758
20
-195.656
11
195.91
21
-195.58
0
LINE
8
Red 2
10
195.91
20
-195.58
11
196.19
21
-195.58
0
LINE
8
Red 2
10
196.19
20
-195.58
11
196.342
21
-195.656
0
LINE
8
Red 2
10
196.342
20
-195.656
11
196.393
21
-195.783
0
LINE
8
Red 2
10
196.393
20
-195.783
11
196.393
21
-195.936
0
LINE
8
Red 2
10
196.393
20
-195.936
11
195.682
21
-196.088
0
LINE
8
Red 2
10
196.977
20
-196.494
11
197.129
21
-196.571
0
LINE
8
Red 2
10
197.129
20
-196.571
11
197.409
21
-196.571
0
LINE
8
Red 2
10
197.409
20
-196.571
11
197.561
21
-196.494
0
LINE
8
Red 2
10
197.561
20
-196.494
11
197.637
21
-196.367
0
LINE
8
Red 2
10
197.637
20
-196.367
11
197.637
21
-196.291
0
LINE
8
Red 2
10
197.637
20
-196.291
11
197.561
21
-196.139
0
LINE
8
Red 2
10
197.561
20
-196.139
11
197.409
21
-196.088
0
LINE
8
Red 2
10
197.409
20
-196.088
11
197.206
21
-196.088
0
LINE
8
Red 2
10
197.206
20
-196.088
11
197.053
21
-196.012
0
LINE
8
Red 2
10
197.053
20
-196.012
11
196.977
21
-195.859
0
LINE
8
Red 2
10
196.977
20
-195.859
11
196.977
21
-195.783
0
LINE
8
Red 2
10
196.977
20
-195.783
11
197.053
21
-195.656
0
LINE
8
Red 2
10
197.053
20
-195.656
11
197.206
21
-195.58
0
LINE
8
Red 2
10
197.206
20
-195.58
11
197.409
21
-195.58
0
LINE
8
Red 2
10
197.409
20
-195.58
11
197.561
21
-195.656
0
LINE
8
Red 2
10
198.907
20
-196.494
11
198.78
21
-196.571
0
LINE
8
Red 2
10
198.78
20
-196.571
11
198.476
21
-196.571
0
LINE
8
Red 2
10
198.476
20
-196.571
11
198.349
21
-196.494
0
LINE
8
Red 2
10
198.349
20
-196.494
11
198.272
21
-196.444
0
LINE
8
Red 2
10
198.272
20
-196.444
11
198.196
21
-196.291
0
LINE
8
Red 2
10
198.196
20
-196.291
11
198.196
21
-195.859
0
LINE
8
Red 2
10
198.196
20
-195.859
11
198.272
21
-195.707
0
LINE
8
Red 2
10
198.272
20
-195.707
11
198.349
21
-195.656
0
LINE
8
Red 2
10
198.349
20
-195.656
11
198.476
21
-195.58
0
LINE
8
Red 2
10
198.476
20
-195.58
11
198.78
21
-195.58
0
LINE
8
Red 2
10
198.78
20
-195.58
11
198.907
21
-195.656
0
LINE
8
Red 2
10
199.568
20
-196.571
11
199.568
21
-195.072
0
LINE
8
Red 2
10
200.203
20
-196.571
11
200.203
21
-195.783
0
LINE
8
Red 2
10
200.203
20
-195.783
11
200.152
21
-195.656
0
LINE
8
Red 2
10
200.152
20
-195.656
11
200
21
-195.58
0
LINE
8
Red 2
10
200
20
-195.58
11
199.771
21
-195.58
0
LINE
8
Red 2
10
199.771
20
-195.58
11
199.644
21
-195.656
0
LINE
8
Red 2
10
199.644
20
-195.656
11
199.568
21
-195.707
0
LINE
8
Red 2
10
201.498
20
-196.494
11
201.346
21
-196.571
0
LINE
8
Red 2
10
201.346
20
-196.571
11
201.066
21
-196.571
0
LINE
8
Red 2
10
201.066
20
-196.571
11
200.914
21
-196.494
0
LINE
8
Red 2
10
200.914
20
-196.494
11
200.838
21
-196.367
0
LINE
8
Red 2
10
200.838
20
-196.367
11
200.838
21
-195.783
0
LINE
8
Red 2
10
200.838
20
-195.783
11
200.914
21
-195.656
0
LINE
8
Red 2
10
200.914
20
-195.656
11
201.066
21
-195.58
0
LINE
8
Red 2
10
201.066
20
-195.58
11
201.346
21
-195.58
0
LINE
8
Red 2
10
201.346
20
-195.58
11
201.498
21
-195.656
0
LINE
8
Red 2
10
201.498
20
-195.656
11
201.549
21
-195.783
0
LINE
8
Red 2
10
201.549
20
-195.783
11
201.549
21
-195.936
0
LINE
8
Red 2
10
201.549
20
-195.936
11
200.838
21
-196.088
0
LINE
8
Red 2
10
202.209
20
-196.571
11
202.209
21
-195.58
0
LINE
8
Red 2
10
202.209
20
-195.707
11
202.286
21
-195.656
0
LINE
8
Red 2
10
202.286
20
-195.656
11
202.413
21
-195.58
0
LINE
8
Red 2
10
202.413
20
-195.58
11
202.641
21
-195.58
0
LINE
8
Red 2
10
202.641
20
-195.58
11
202.794
21
-195.656
0
LINE
8
Red 2
10
202.794
20
-195.656
11
202.844
21
-195.783
0
LINE
8
Red 2
10
202.844
20
-195.783
11
202.844
21
-196.571
0
LINE
8
Red 2
10
202.844
20
-195.783
11
202.921
21
-195.656
0
LINE
8
Red 2
10
202.921
20
-195.656
11
203.073
21
-195.58
0
LINE
8
Red 2
10
203.073
20
-195.58
11
203.276
21
-195.58
0
LINE
8
Red 2
10
203.276
20
-195.58
11
203.429
21
-195.656
0
LINE
8
Red 2
10
203.429
20
-195.656
11
203.505
21
-195.783
0
LINE
8
Red 2
10
203.505
20
-195.783
11
203.505
21
-196.571
0
LINE
8
Red 2
10
204.851
20
-196.571
11
204.851
21
-195.783
0
LINE
8
Red 2
10
204.851
20
-195.783
11
204.8
21
-195.656
0
LINE
8
Red 2
10
204.8
20
-195.656
11
204.648
21
-195.58
0
LINE
8
Red 2
10
204.648
20
-195.58
11
204.368
21
-195.58
0
LINE
8
Red 2
10
204.368
20
-195.58
11
204.216
21
-195.656
0
LINE
8
Red 2
10
204.851
20
-196.494
11
204.724
21
-196.571
0
LINE
8
Red 2
10
204.724
20
-196.571
11
204.368
21
-196.571
0
LINE
8
Red 2
10
204.368
20
-196.571
11
204.216
21
-196.494
0
LINE
8
Red 2
10
204.216
20
-196.494
11
204.14
21
-196.367
0
LINE
8
Red 2
10
204.14
20
-196.367
11
204.14
21
-196.215
0
LINE
8
Red 2
10
204.14
20
-196.215
11
204.216
21
-196.088
0
LINE
8
Red 2
10
204.216
20
-196.088
11
204.368
21
-196.012
0
LINE
8
Red 2
10
204.368
20
-196.012
11
204.724
21
-196.012
0
LINE
8
Red 2
10
204.724
20
-196.012
11
204.851
21
-195.936
0
LINE
8
Red 2
10
207.34
20
-195.58
11
207.34
21
-196.571
0
LINE
8
Red 2
10
206.985
20
-194.996
11
206.629
21
-196.088
0
LINE
8
Red 2
10
206.629
20
-196.088
11
207.569
21
-196.088
0
LINE
8
Red 2
10
208.128
20
-196.444
11
208.204
21
-196.494
0
LINE
8
Red 2
10
208.204
20
-196.494
11
208.128
21
-196.571
0
LINE
8
Red 2
10
208.128
20
-196.571
11
208.051
21
-196.494
0
LINE
8
Red 2
10
208.051
20
-196.494
11
208.128
21
-196.444
0
LINE
8
Red 2
10
208.128
20
-196.444
11
208.128
21
-196.571
0
LINE
8
Red 2
10
209.118
20
-195.072
11
209.271
21
-195.072
0
LINE
8
Red 2
10
209.271
20
-195.072
11
209.423
21
-195.148
0
LINE
8
Red 2
10
209.423
20
-195.148
11
209.474
21
-195.224
0
LINE
8
Red 2
10
209.474
20
-195.224
11
209.55
21
-195.351
0
LINE
8
Red 2
10
209.55
20
-195.351
11
209.626
21
-195.656
0
LINE
8
Red 2
10
209.626
20
-195.656
11
209.626
21
-196.012
0
LINE
8
Red 2
10
209.626
20
-196.012
11
209.55
21
-196.291
0
LINE
8
Red 2
10
209.55
20
-196.291
11
209.474
21
-196.444
0
LINE
8
Red 2
10
209.474
20
-196.444
11
209.423
21
-196.494
0
LINE
8
Red 2
10
209.423
20
-196.494
11
209.271
21
-196.571
0
LINE
8
Red 2
10
209.271
20
-196.571
11
209.118
21
-196.571
0
LINE
8
Red 2
10
209.118
20
-196.571
11
208.991
21
-196.494
0
LINE
8
Red 2
10
208.991
20
-196.494
11
208.915
21
-196.444
0
LINE
8
Red 2
10
208.915
20
-196.444
11
208.839
21
-196.291
0
LINE
8
Red 2
10
208.839
20
-196.291
11
208.763
21
-196.012
0
LINE
8
Red 2
10
208.763
20
-196.012
11
208.763
21
-195.656
0
LINE
8
Red 2
10
208.763
20
-195.656
11
208.839
21
-195.351
0
LINE
8
Red 2
10
208.839
20
-195.351
11
208.915
21
-195.224
0
LINE
8
Red 2
10
208.915
20
-195.224
11
208.991
21
-195.148
0
LINE
8
Red 2
10
208.991
20
-195.148
11
209.118
21
-195.072
0
LINE
8
Red 2
10
210.261
20
-196.444
11
210.337
21
-196.494
0
LINE
8
Red 2
10
210.337
20
-196.494
11
210.261
21
-196.571
0
LINE
8
Red 2
10
210.261
20
-196.571
11
210.185
21
-196.494
0
LINE
8
Red 2
10
210.185
20
-196.494
11
210.261
21
-196.444
0
LINE
8
Red 2
10
210.261
20
-196.444
11
210.261
21
-196.571
0
LINE
8
Red 2
10
210.82
20
-195.072
11
211.836
21
-195.072
0
LINE
8
Red 2
10
211.836
20
-195.072
11
211.176
21
-196.571
0
LINE
8
Red 2
10
177.013
20
-191.516
11
285.013
21
-191.516
0
LINE
8
Red 2
10
264.211
20
-193.777
11
263.703
21
-193.065
0
LINE
8
Red 2
10
263.347
20
-193.777
11
263.347
21
-192.278
0
LINE
8
Red 2
10
263.347
20
-192.278
11
263.931
21
-192.278
0
LINE
8
Red 2
10
263.931
20
-192.278
11
264.058
21
-192.354
0
LINE
8
Red 2
10
264.058
20
-192.354
11
264.135
21
-192.43
0
LINE
8
Red 2
10
264.135
20
-192.43
11
264.211
21
-192.557
0
LINE
8
Red 2
10
264.211
20
-192.557
11
264.211
21
-192.786
0
LINE
8
Red 2
10
264.211
20
-192.786
11
264.135
21
-192.913
0
LINE
8
Red 2
10
264.135
20
-192.913
11
264.058
21
-192.989
0
LINE
8
Red 2
10
264.058
20
-192.989
11
263.931
21
-193.065
0
LINE
8
Red 2
10
263.931
20
-193.065
11
263.347
21
-193.065
0
LINE
8
Red 2
10
265.43
20
-193.7
11
265.278
21
-193.777
0
LINE
8
Red 2
10
265.278
20
-193.777
11
264.998
21
-193.777
0
LINE
8
Red 2
10
264.998
20
-193.777
11
264.846
21
-193.7
0
LINE
8
Red 2
10
264.846
20
-193.7
11
264.77
21
-193.573
0
LINE
8
Red 2
10
264.77
20
-193.573
11
264.77
21
-192.989
0
LINE
8
Red 2
10
264.77
20
-192.989
11
264.846
21
-192.862
0
LINE
8
Red 2
10
264.846
20
-192.862
11
264.998
21
-192.786
0
LINE
8
Red 2
10
264.998
20
-192.786
11
265.278
21
-192.786
0
LINE
8
Red 2
10
265.278
20
-192.786
11
265.43
21
-192.862
0
LINE
8
Red 2
10
265.43
20
-192.862
11
265.481
21
-192.989
0
LINE
8
Red 2
10
265.481
20
-192.989
11
265.481
21
-193.142
0
LINE
8
Red 2
10
265.481
20
-193.142
11
264.77
21
-193.294
0
LINE
8
Red 2
10
265.989
20
-192.786
11
266.344
21
-193.777
0
LINE
8
Red 2
10
266.344
20
-193.777
11
266.725
21
-192.786
0
LINE
8
Red 2
10
267.284
20
-193.65
11
267.36
21
-193.7
0
LINE
8
Red 2
10
267.36
20
-193.7
11
267.284
21
-193.777
0
LINE
8
Red 2
10
267.284
20
-193.777
11
267.208
21
-193.7
0
LINE
8
Red 2
10
267.208
20
-193.7
11
267.284
21
-193.65
0
LINE
8
Red 2
10
267.284
20
-193.65
11
267.284
21
-193.777
0
LINE
8
Red 2
10
267.284
20
-192.862
11
267.36
21
-192.913
0
LINE
8
Red 2
10
267.36
20
-192.913
11
267.284
21
-192.989
0
LINE
8
Red 2
10
267.284
20
-192.989
11
267.208
21
-192.913
0
LINE
8
Red 2
10
267.208
20
-192.913
11
267.284
21
-192.862
0
LINE
8
Red 2
10
267.284
20
-192.862
11
267.284
21
-192.989
0
LINE
8
Red 2
10
178.283
20
-193.7
11
178.511
21
-193.777
0
LINE
8
Red 2
10
178.511
20
-193.777
11
178.867
21
-193.777
0
LINE
8
Red 2
10
178.867
20
-193.777
11
178.994
21
-193.7
0
LINE
8
Red 2
10
178.994
20
-193.7
11
179.07
21
-193.65
0
LINE
8
Red 2
10
179.07
20
-193.65
11
179.146
21
-193.497
0
LINE
8
Red 2
10
179.146
20
-193.497
11
179.146
21
-193.345
0
LINE
8
Red 2
10
179.146
20
-193.345
11
179.07
21
-193.218
0
LINE
8
Red 2
10
179.07
20
-193.218
11
178.994
21
-193.142
0
LINE
8
Red 2
10
178.994
20
-193.142
11
178.867
21
-193.065
0
LINE
8
Red 2
10
178.867
20
-193.065
11
178.562
21
-192.989
0
LINE
8
Red 2
10
178.562
20
-192.989
11
178.435
21
-192.913
0
LINE
8
Red 2
10
178.435
20
-192.913
11
178.359
21
-192.862
0
LINE
8
Red 2
10
178.359
20
-192.862
11
178.283
21
-192.71
0
LINE
8
Red 2
10
178.283
20
-192.71
11
178.283
21
-192.557
0
LINE
8
Red 2
10
178.283
20
-192.557
11
178.359
21
-192.43
0
LINE
8
Red 2
10
178.359
20
-192.43
11
178.435
21
-192.354
0
LINE
8
Red 2
10
178.435
20
-192.354
11
178.562
21
-192.278
0
LINE
8
Red 2
10
178.562
20
-192.278
11
178.943
21
-192.278
0
LINE
8
Red 2
10
178.943
20
-192.278
11
179.146
21
-192.354
0
LINE
8
Red 2
10
179.781
20
-193.777
11
179.781
21
-192.786
0
LINE
8
Red 2
10
179.781
20
-192.278
11
179.705
21
-192.354
0
LINE
8
Red 2
10
179.705
20
-192.354
11
179.781
21
-192.43
0
LINE
8
Red 2
10
179.781
20
-192.43
11
179.857
21
-192.354
0
LINE
8
Red 2
10
179.857
20
-192.354
11
179.781
21
-192.278
0
LINE
8
Red 2
10
179.781
20
-192.278
11
179.781
21
-192.43
0
LINE
8
Red 2
10
180.34
20
-192.786
11
181.127
21
-192.786
0
LINE
8
Red 2
10
181.127
20
-192.786
11
180.34
21
-193.777
0
LINE
8
Red 2
10
180.34
20
-193.777
11
181.127
21
-193.777
0
LINE
8
Red 2
10
182.296
20
-193.7
11
182.143
21
-193.777
0
LINE
8
Red 2
10
182.143
20
-193.777
11
181.864
21
-193.777
0
LINE
8
Red 2
10
181.864
20
-193.777
11
181.712
21
-193.7
0
LINE
8
Red 2
10
181.712
20
-193.7
11
181.635
21
-193.573
0
LINE
8
Red 2
10
181.635
20
-193.573
11
181.635
21
-192.989
0
LINE
8
Red 2
10
181.635
20
-192.989
11
181.712
21
-192.862
0
LINE
8
Red 2
10
181.712
20
-192.862
11
181.864
21
-192.786
0
LINE
8
Red 2
10
181.864
20
-192.786
11
182.143
21
-192.786
0
LINE
8
Red 2
10
182.143
20
-192.786
11
182.296
21
-192.862
0
LINE
8
Red 2
10
182.296
20
-192.862
11
182.347
21
-192.989
0
LINE
8
Red 2
10
182.347
20
-192.989
11
182.347
21
-193.142
0
LINE
8
Red 2
10
182.347
20
-193.142
11
181.635
21
-193.294
0
LINE
8
Red 2
10
183.007
20
-193.65
11
183.083
21
-193.7
0
LINE
8
Red 2
10
183.083
20
-193.7
11
183.007
21
-193.777
0
LINE
8
Red 2
10
183.007
20
-193.777
11
182.931
21
-193.7
0
LINE
8
Red 2
10
182.931
20
-193.7
11
183.007
21
-193.65
0
LINE
8
Red 2
10
183.007
20
-193.65
11
183.007
21
-193.777
0
LINE
8
Red 2
10
183.007
20
-192.862
11
183.083
21
-192.913
0
LINE
8
Red 2
10
183.083
20
-192.913
11
183.007
21
-192.989
0
LINE
8
Red 2
10
183.007
20
-192.989
11
182.931
21
-192.913
0
LINE
8
Red 2
10
182.931
20
-192.913
11
183.007
21
-192.862
0
LINE
8
Red 2
10
183.007
20
-192.862
11
183.007
21
-192.989
0
LINE
8
Red 2
10
184.785
20
-193.345
11
185.496
21
-193.345
0
LINE
8
Red 2
10
184.658
20
-193.777
11
185.141
21
-192.278
0
LINE
8
Red 2
10
185.141
20
-192.278
11
185.649
21
-193.777
0
LINE
8
Red 2
10
186.792
20
-192.786
11
186.792
21
-193.777
0
LINE
8
Red 2
10
186.436
20
-192.202
11
186.08
21
-193.294
0
LINE
8
Red 2
10
186.08
20
-193.294
11
187.02
21
-193.294
0
LINE
8
Red 2
10
263.347
20
-196.571
11
263.347
21
-195.072
0
LINE
8
Red 2
10
264.693
20
-196.571
11
264.693
21
-195.072
0
LINE
8
Red 2
10
264.693
20
-196.494
11
264.566
21
-196.571
0
LINE
8
Red 2
10
264.566
20
-196.571
11
264.262
21
-196.571
0
LINE
8
Red 2
10
264.262
20
-196.571
11
264.135
21
-196.494
0
LINE
8
Red 2
10
264.135
20
-196.494
11
264.058
21
-196.444
0
LINE
8
Red 2
10
264.058
20
-196.444
11
263.982
21
-196.291
0
LINE
8
Red 2
10
263.982
20
-196.291
11
263.982
21
-195.859
0
LINE
8
Red 2
10
263.982
20
-195.859
11
264.058
21
-195.707
0
LINE
8
Red 2
10
264.058
20
-195.707
11
264.135
21
-195.656
0
LINE
8
Red 2
10
264.135
20
-195.656
11
264.262
21
-195.58
0
LINE
8
Red 2
10
264.262
20
-195.58
11
264.566
21
-195.58
0
LINE
8
Red 2
10
264.566
20
-195.58
11
264.693
21
-195.656
0
LINE
8
Red 2
10
265.405
20
-196.444
11
265.481
21
-196.494
0
LINE
8
Red 2
10
265.481
20
-196.494
11
265.405
21
-196.571
0
LINE
8
Red 2
10
265.405
20
-196.571
11
265.328
21
-196.494
0
LINE
8
Red 2
10
265.328
20
-196.494
11
265.405
21
-196.444
0
LINE
8
Red 2
10
265.405
20
-196.444
11
265.405
21
-196.571
0
LINE
8
Red 2
10
265.405
20
-195.656
11
265.481
21
-195.707
0
LINE
8
Red 2
10
265.481
20
-195.707
11
265.405
21
-195.783
0
LINE
8
Red 2
10
265.405
20
-195.783
11
265.328
21
-195.707
0
LINE
8
Red 2
10
265.328
20
-195.707
11
265.405
21
-195.656
0
LINE
8
Red 2
10
265.405
20
-195.656
11
265.405
21
-195.783
0
LINE
8
Red 2
10
268.046
20
-196.571
11
267.183
21
-196.571
0
LINE
8
Red 2
10
267.614
20
-196.571
11
267.614
21
-195.072
0
LINE
8
Red 2
10
267.614
20
-195.072
11
267.462
21
-195.301
0
LINE
8
Red 2
10
267.462
20
-195.301
11
267.335
21
-195.428
0
LINE
8
Red 2
10
267.335
20
-195.428
11
267.183
21
-195.504
0
LINE
8
Red 2
10
269.748
20
-194.996
11
268.478
21
-196.926
0
LINE
8
Red 2
10
271.043
20
-196.571
11
270.18
21
-196.571
0
LINE
8
Red 2
10
270.612
20
-196.571
11
270.612
21
-195.072
0
LINE
8
Red 2
10
270.612
20
-195.072
11
270.459
21
-195.301
0
LINE
8
Red 2
10
270.459
20
-195.301
11
270.332
21
-195.428
0
LINE
8
Red 2
10
270.332
20
-195.428
11
270.18
21
-195.504
0
LINE
8
Red 2
10
177.013
20
-187.503
11
285.013
21
-187.503
0
LINE
8
Red 2
10
178.46
20
-188.189
11
179.603
21
-188.189
0
LINE
8
Red 2
10
178.791
20
-190.195
11
179.019
21
-188.189
0
LINE
8
Red 2
10
180.035
20
-190.195
11
180.188
21
-188.874
0
LINE
8
Red 2
10
180.264
20
-188.189
11
180.162
21
-188.29
0
LINE
8
Red 2
10
180.162
20
-188.29
11
180.238
21
-188.392
0
LINE
8
Red 2
10
180.238
20
-188.392
11
180.365
21
-188.29
0
LINE
8
Red 2
10
180.365
20
-188.29
11
180.264
21
-188.189
0
LINE
8
Red 2
10
180.264
20
-188.189
11
180.238
21
-188.392
0
LINE
8
Red 2
10
180.873
20
-188.874
11
181.635
21
-188.874
0
LINE
8
Red 2
10
181.229
20
-188.189
11
181.026
21
-189.916
0
LINE
8
Red 2
10
181.026
20
-189.916
11
181.102
21
-190.094
0
LINE
8
Red 2
10
181.102
20
-190.094
11
181.28
21
-190.195
0
LINE
8
Red 2
10
181.28
20
-190.195
11
181.483
21
-190.195
0
LINE
8
Red 2
10
182.423
20
-190.195
11
182.245
21
-190.094
0
LINE
8
Red 2
10
182.245
20
-190.094
11
182.169
21
-189.916
0
LINE
8
Red 2
10
182.169
20
-189.916
11
182.372
21
-188.189
0
LINE
8
Red 2
10
183.947
20
-190.094
11
183.744
21
-190.195
0
LINE
8
Red 2
10
183.744
20
-190.195
11
183.363
21
-190.195
0
LINE
8
Red 2
10
183.363
20
-190.195
11
183.185
21
-190.094
0
LINE
8
Red 2
10
183.185
20
-190.094
11
183.109
21
-189.916
0
LINE
8
Red 2
10
183.109
20
-189.916
11
183.21
21
-189.154
0
LINE
8
Red 2
10
183.21
20
-189.154
11
183.337
21
-188.951
0
LINE
8
Red 2
10
183.337
20
-188.951
11
183.515
21
-188.874
0
LINE
8
Red 2
10
183.515
20
-188.874
11
183.896
21
-188.874
0
LINE
8
Red 2
10
183.896
20
-188.874
11
184.099
21
-188.951
0
LINE
8
Red 2
10
184.099
20
-188.951
11
184.175
21
-189.154
0
LINE
8
Red 2
10
184.175
20
-189.154
11
184.15
21
-189.332
0
LINE
8
Red 2
10
184.15
20
-189.332
11
183.159
21
-189.535
0
LINE
8
Red 2
10
184.912
20
-190.017
11
185.014
21
-190.094
0
LINE
8
Red 2
10
185.014
20
-190.094
11
184.912
21
-190.195
0
LINE
8
Red 2
10
184.912
20
-190.195
11
184.81
21
-190.094
0
LINE
8
Red 2
10
184.81
20
-190.094
11
184.912
21
-190.017
0
LINE
8
Red 2
10
184.912
20
-190.017
11
184.912
21
-190.195
0
LINE
8
Red 2
10
185.064
20
-188.951
11
185.141
21
-189.052
0
LINE
8
Red 2
10
185.141
20
-189.052
11
185.039
21
-189.154
0
LINE
8
Red 2
10
185.039
20
-189.154
11
184.937
21
-189.052
0
LINE
8
Red 2
10
184.937
20
-189.052
11
185.064
21
-188.951
0
LINE
8
Red 2
10
185.064
20
-188.951
11
185.039
21
-189.154
0
LINE
8
Red 2
10
178.867
20
-185.572
11
178.359
21
-185.572
0
LINE
8
Red 2
10
178.359
20
-186.36
11
178.359
21
-184.861
0
LINE
8
Red 2
10
178.359
20
-184.861
11
179.07
21
-184.861
0
LINE
8
Red 2
10
179.654
20
-186.36
11
179.654
21
-185.369
0
LINE
8
Red 2
10
179.654
20
-184.861
11
179.578
21
-184.937
0
LINE
8
Red 2
10
179.578
20
-184.937
11
179.654
21
-185.014
0
LINE
8
Red 2
10
179.654
20
-185.014
11
179.73
21
-184.937
0
LINE
8
Red 2
10
179.73
20
-184.937
11
179.654
21
-184.861
0
LINE
8
Red 2
10
179.654
20
-184.861
11
179.654
21
-185.014
0
LINE
8
Red 2
10
180.569
20
-186.36
11
180.442
21
-186.284
0
LINE
8
Red 2
10
180.442
20
-186.284
11
180.365
21
-186.157
0
LINE
8
Red 2
10
180.365
20
-186.157
11
180.365
21
-184.861
0
LINE
8
Red 2
10
181.737
20
-186.284
11
181.585
21
-186.36
0
LINE
8
Red 2
10
181.585
20
-186.36
11
181.305
21
-186.36
0
LINE
8
Red 2
10
181.305
20
-186.36
11
181.153
21
-186.284
0
LINE
8
Red 2
10
181.153
20
-186.284
11
181.077
21
-186.157
0
LINE
8
Red 2
10
181.077
20
-186.157
11
181.077
21
-185.572
0
LINE
8
Red 2
10
181.077
20
-185.572
11
181.153
21
-185.445
0
LINE
8
Red 2
10
181.153
20
-185.445
11
181.305
21
-185.369
0
LINE
8
Red 2
10
181.305
20
-185.369
11
181.585
21
-185.369
0
LINE
8
Red 2
10
181.585
20
-185.369
11
181.737
21
-185.445
0
LINE
8
Red 2
10
181.737
20
-185.445
11
181.788
21
-185.572
0
LINE
8
Red 2
10
181.788
20
-185.572
11
181.788
21
-185.725
0
LINE
8
Red 2
10
181.788
20
-185.725
11
181.077
21
-185.877
0
LINE
8
Red 2
10
182.448
20
-186.233
11
182.524
21
-186.284
0
LINE
8
Red 2
10
182.524
20
-186.284
11
182.448
21
-186.36
0
LINE
8
Red 2
10
182.448
20
-186.36
11
182.372
21
-186.284
0
LINE
8
Red 2
10
182.372
20
-186.284
11
182.448
21
-186.233
0
LINE
8
Red 2
10
182.448
20
-186.233
11
182.448
21
-186.36
0
LINE
8
Red 2
10
182.448
20
-185.445
11
182.524
21
-185.496
0
LINE
8
Red 2
10
182.524
20
-185.496
11
182.448
21
-185.572
0
LINE
8
Red 2
10
182.448
20
-185.572
11
182.372
21
-185.496
0
LINE
8
Red 2
10
182.372
20
-185.496
11
182.448
21
-185.445
0
LINE
8
Red 2
10
182.448
20
-185.445
11
182.448
21
-185.572
0
LINE
8
Red 2
10
184.302
20
-185.369
11
184.302
21
-186.868
0
LINE
8
Red 2
10
184.302
20
-185.445
11
184.455
21
-185.369
0
LINE
8
Red 2
10
184.455
20
-185.369
11
184.734
21
-185.369
0
LINE
8
Red 2
10
184.734
20
-185.369
11
184.887
21
-185.445
0
LINE
8
Red 2
10
184.887
20
-185.445
11
184.937
21
-185.496
0
LINE
8
Red 2
10
184.937
20
-185.496
11
185.014
21
-185.649
0
LINE
8
Red 2
10
185.014
20
-185.649
11
185.014
21
-186.08
0
LINE
8
Red 2
10
185.014
20
-186.08
11
184.937
21
-186.233
0
LINE
8
Red 2
10
184.937
20
-186.233
11
184.887
21
-186.284
0
LINE
8
Red 2
10
184.887
20
-186.284
11
184.734
21
-186.36
0
LINE
8
Red 2
10
184.734
20
-186.36
11
184.455
21
-186.36
0
LINE
8
Red 2
10
184.455
20
-186.36
11
184.302
21
-186.284
0
LINE
8
Red 2
10
186.284
20
-186.36
11
186.284
21
-185.572
0
LINE
8
Red 2
10
186.284
20
-185.572
11
186.233
21
-185.445
0
LINE
8
Red 2
10
186.233
20
-185.445
11
186.08
21
-185.369
0
LINE
8
Red 2
10
186.08
20
-185.369
11
185.801
21
-185.369
0
LINE
8
Red 2
10
185.801
20
-185.369
11
185.649
21
-185.445
0
LINE
8
Red 2
10
186.284
20
-186.284
11
186.157
21
-186.36
0
LINE
8
Red 2
10
186.157
20
-186.36
11
185.801
21
-186.36
0
LINE
8
Red 2
10
185.801
20
-186.36
11
185.649
21
-186.284
0
LINE
8
Red 2
10
185.649
20
-186.284
11
185.572
21
-186.157
0
LINE
8
Red 2
10
185.572
20
-186.157
11
185.572
21
-186.004
0
LINE
8
Red 2
10
185.572
20
-186.004
11
185.649
21
-185.877
0
LINE
8
Red 2
10
185.649
20
-185.877
11
185.801
21
-185.801
0
LINE
8
Red 2
10
185.801
20
-185.801
11
186.157
21
-185.801
0
LINE
8
Red 2
10
186.157
20
-185.801
11
186.284
21
-185.725
0
LINE
8
Red 2
10
186.995
20
-186.36
11
186.995
21
-185.369
0
LINE
8
Red 2
10
186.995
20
-185.649
11
187.071
21
-185.496
0
LINE
8
Red 2
10
187.071
20
-185.496
11
187.147
21
-185.445
0
LINE
8
Red 2
10
187.147
20
-185.445
11
187.274
21
-185.369
0
LINE
8
Red 2
10
187.274
20
-185.369
11
187.427
21
-185.369
0
LINE
8
Red 2
10
187.935
20
-186.36
11
187.935
21
-185.369
0
LINE
8
Red 2
10
187.935
20
-184.861
11
187.858
21
-184.937
0
LINE
8
Red 2
10
187.858
20
-184.937
11
187.935
21
-185.014
0
LINE
8
Red 2
10
187.935
20
-185.014
11
188.011
21
-184.937
0
LINE
8
Red 2
10
188.011
20
-184.937
11
187.935
21
-184.861
0
LINE
8
Red 2
10
187.935
20
-184.861
11
187.935
21
-185.014
0
LINE
8
Red 2
10
188.443
20
-185.369
11
189.001
21
-185.369
0
LINE
8
Red 2
10
188.646
20
-184.861
11
188.646
21
-186.157
0
LINE
8
Red 2
10
188.646
20
-186.157
11
188.722
21
-186.284
0
LINE
8
Red 2
10
188.722
20
-186.284
11
188.849
21
-186.36
0
LINE
8
Red 2
10
188.849
20
-186.36
11
189.001
21
-186.36
0
LINE
8
Red 2
10
189.357
20
-185.369
11
189.713
21
-186.36
0
LINE
8
Red 2
10
190.094
20
-185.369
11
189.713
21
-186.36
0
LINE
8
Red 2
10
189.713
20
-186.36
11
189.586
21
-186.715
0
LINE
8
Red 2
10
189.586
20
-186.715
11
189.509
21
-186.792
0
LINE
8
Red 2
10
189.509
20
-186.792
11
189.357
21
-186.868
0
LINE
8
Red 2
10
190.297
20
-186.512
11
191.44
21
-186.512
0
LINE
8
Red 2
10
192.43
20
-186.284
11
192.303
21
-186.36
0
LINE
8
Red 2
10
192.303
20
-186.36
11
191.999
21
-186.36
0
LINE
8
Red 2
10
191.999
20
-186.36
11
191.872
21
-186.284
0
LINE
8
Red 2
10
191.872
20
-186.284
11
191.795
21
-186.233
0
LINE
8
Red 2
10
191.795
20
-186.233
11
191.719
21
-186.08
0
LINE
8
Red 2
10
191.719
20
-186.08
11
191.719
21
-185.649
0
LINE
8
Red 2
10
191.719
20
-185.649
11
191.795
21
-185.496
0
LINE
8
Red 2
10
191.795
20
-185.496
11
191.872
21
-185.445
0
LINE
8
Red 2
10
191.872
20
-185.445
11
191.999
21
-185.369
0
LINE
8
Red 2
10
191.999
20
-185.369
11
192.303
21
-185.369
0
LINE
8
Red 2
10
192.303
20
-185.369
11
192.43
21
-185.445
0
LINE
8
Red 2
10
193.091
20
-186.36
11
193.091
21
-184.861
0
LINE
8
Red 2
10
193.726
20
-186.36
11
193.726
21
-185.572
0
LINE
8
Red 2
10
193.726
20
-185.572
11
193.675
21
-185.445
0
LINE
8
Red 2
10
193.675
20
-185.445
11
193.523
21
-185.369
0
LINE
8
Red 2
10
193.523
20
-185.369
11
193.294
21
-185.369
0
LINE
8
Red 2
10
193.294
20
-185.369
11
193.167
21
-185.445
0
LINE
8
Red 2
10
193.167
20
-185.445
11
193.091
21
-185.496
0
LINE
8
Red 2
10
195.021
20
-186.284
11
194.869
21
-186.36
0
LINE
8
Red 2
10
194.869
20
-186.36
11
194.589
21
-186.36
0
LINE
8
Red 2
10
194.589
20
-186.36
11
194.437
21
-186.284
0
LINE
8
Red 2
10
194.437
20
-186.284
11
194.361
21
-186.157
0
LINE
8
Red 2
10
194.361
20
-186.157
11
194.361
21
-185.572
0
LINE
8
Red 2
10
194.361
20
-185.572
11
194.437
21
-185.445
0
LINE
8
Red 2
10
194.437
20
-185.445
11
194.589
21
-185.369
0
LINE
8
Red 2
10
194.589
20
-185.369
11
194.869
21
-185.369
0
LINE
8
Red 2
10
194.869
20
-185.369
11
195.021
21
-185.445
0
LINE
8
Red 2
10
195.021
20
-185.445
11
195.072
21
-185.572
0
LINE
8
Red 2
10
195.072
20
-185.572
11
195.072
21
-185.725
0
LINE
8
Red 2
10
195.072
20
-185.725
11
194.361
21
-185.877
0
LINE
8
Red 2
10
196.367
20
-186.284
11
196.24
21
-186.36
0
LINE
8
Red 2
10
196.24
20
-186.36
11
195.936
21
-186.36
0
LINE
8
Red 2
10
195.936
20
-186.36
11
195.809
21
-186.284
0
LINE
8
Red 2
10
195.809
20
-186.284
11
195.732
21
-186.233
0
LINE
8
Red 2
10
195.732
20
-186.233
11
195.656
21
-186.08
0
LINE
8
Red 2
10
195.656
20
-186.08
11
195.656
21
-185.649
0
LINE
8
Red 2
10
195.656
20
-185.649
11
195.732
21
-185.496
0
LINE
8
Red 2
10
195.732
20
-185.496
11
195.809
21
-185.445
0
LINE
8
Red 2
10
195.809
20
-185.445
11
195.936
21
-185.369
0
LINE
8
Red 2
10
195.936
20
-185.369
11
196.24
21
-185.369
0
LINE
8
Red 2
10
196.24
20
-185.369
11
196.367
21
-185.445
0
LINE
8
Red 2
10
197.028
20
-186.36
11
197.028
21
-184.861
0
LINE
8
Red 2
10
197.18
20
-185.801
11
197.612
21
-186.36
0
LINE
8
Red 2
10
197.612
20
-185.369
11
197.028
21
-185.928
0
LINE
8
Red 2
10
198.831
20
-186.284
11
198.679
21
-186.36
0
LINE
8
Red 2
10
198.679
20
-186.36
11
198.399
21
-186.36
0
LINE
8
Red 2
10
198.399
20
-186.36
11
198.247
21
-186.284
0
LINE
8
Red 2
10
198.247
20
-186.284
11
198.171
21
-186.157
0
LINE
8
Red 2
10
198.171
20
-186.157
11
198.171
21
-185.572
0
LINE
8
Red 2
10
198.171
20
-185.572
11
198.247
21
-185.445
0
LINE
8
Red 2
10
198.247
20
-185.445
11
198.399
21
-185.369
0
LINE
8
Red 2
10
198.399
20
-185.369
11
198.679
21
-185.369
0
LINE
8
Red 2
10
198.679
20
-185.369
11
198.831
21
-185.445
0
LINE
8
Red 2
10
198.831
20
-185.445
11
198.882
21
-185.572
0
LINE
8
Red 2
10
198.882
20
-185.572
11
198.882
21
-185.725
0
LINE
8
Red 2
10
198.882
20
-185.725
11
198.171
21
-185.877
0
LINE
8
Red 2
10
199.542
20
-186.36
11
199.542
21
-185.369
0
LINE
8
Red 2
10
199.542
20
-185.649
11
199.619
21
-185.496
0
LINE
8
Red 2
10
199.619
20
-185.496
11
199.695
21
-185.445
0
LINE
8
Red 2
10
199.695
20
-185.445
11
199.822
21
-185.369
0
LINE
8
Red 2
10
199.822
20
-185.369
11
199.974
21
-185.369
0
LINE
8
Red 2
10
200.482
20
-186.233
11
200.558
21
-186.284
0
LINE
8
Red 2
10
200.558
20
-186.284
11
200.482
21
-186.36
0
LINE
8
Red 2
10
200.482
20
-186.36
11
200.406
21
-186.284
0
LINE
8
Red 2
10
200.406
20
-186.284
11
200.482
21
-186.233
0
LINE
8
Red 2
10
200.482
20
-186.233
11
200.482
21
-186.36
0
LINE
8
Red 2
10
201.117
20
-186.284
11
201.27
21
-186.36
0
LINE
8
Red 2
10
201.27
20
-186.36
11
201.549
21
-186.36
0
LINE
8
Red 2
10
201.549
20
-186.36
11
201.701
21
-186.284
0
LINE
8
Red 2
10
201.701
20
-186.284
11
201.778
21
-186.157
0
LINE
8
Red 2
10
201.778
20
-186.157
11
201.778
21
-186.08
0
LINE
8
Red 2
10
201.778
20
-186.08
11
201.701
21
-185.928
0
LINE
8
Red 2
10
201.701
20
-185.928
11
201.549
21
-185.877
0
LINE
8
Red 2
10
201.549
20
-185.877
11
201.346
21
-185.877
0
LINE
8
Red 2
10
201.346
20
-185.877
11
201.193
21
-185.801
0
LINE
8
Red 2
10
201.193
20
-185.801
11
201.117
21
-185.649
0
LINE
8
Red 2
10
201.117
20
-185.649
11
201.117
21
-185.572
0
LINE
8
Red 2
10
201.117
20
-185.572
11
201.193
21
-185.445
0
LINE
8
Red 2
10
201.193
20
-185.445
11
201.346
21
-185.369
0
LINE
8
Red 2
10
201.346
20
-185.369
11
201.549
21
-185.369
0
LINE
8
Red 2
10
201.549
20
-185.369
11
201.701
21
-185.445
0
LINE
8
Red 2
10
203.048
20
-186.284
11
202.921
21
-186.36
0
LINE
8
Red 2
10
202.921
20
-186.36
11
202.616
21
-186.36
0
LINE
8
Red 2
10
202.616
20
-186.36
11
202.489
21
-186.284
0
LINE
8
Red 2
10
202.489
20
-186.284
11
202.413
21
-186.233
0
LINE
8
Red 2
10
202.413
20
-186.233
11
202.336
21
-186.08
0
LINE
8
Red 2
10
202.336
20
-186.08
11
202.336
21
-185.649
0
LINE
8
Red 2
10
202.336
20
-185.649
11
202.413
21
-185.496
0
LINE
8
Red 2
10
202.413
20
-185.496
11
202.489
21
-185.445
0
LINE
8
Red 2
10
202.489
20
-185.445
11
202.616
21
-185.369
0
LINE
8
Red 2
10
202.616
20
-185.369
11
202.921
21
-185.369
0
LINE
8
Red 2
10
202.921
20
-185.369
11
203.048
21
-185.445
0
LINE
8
Red 2
10
203.708
20
-186.36
11
203.708
21
-184.861
0
LINE
8
Red 2
10
204.343
20
-186.36
11
204.343
21
-185.572
0
LINE
8
Red 2
10
204.343
20
-185.572
11
204.292
21
-185.445
0
LINE
8
Red 2
10
204.292
20
-185.445
11
204.14
21
-185.369
0
LINE
8
Red 2
10
204.14
20
-185.369
11
203.911
21
-185.369
0
LINE
8
Red 2
10
203.911
20
-185.369
11
203.784
21
-185.445
0
LINE
8
Red 2
10
203.784
20
-185.445
11
203.708
21
-185.496
0
LINE
8
Red 2
10
177.013
20
-181.508
11
285.013
21
-181.508
0
LINE
8
Red 2
10
178.283
20
-183.591
11
178.511
21
-183.667
0
LINE
8
Red 2
10
178.511
20
-183.667
11
178.867
21
-183.667
0
LINE
8
Red 2
10
178.867
20
-183.667
11
178.994
21
-183.591
0
LINE
8
Red 2
10
178.994
20
-183.591
11
179.07
21
-183.54
0
LINE
8
Red 2
10
179.07
20
-183.54
11
179.146
21
-183.388
0
LINE
8
Red 2
10
179.146
20
-183.388
11
179.146
21
-183.236
0
LINE
8
Red 2
10
179.146
20
-183.236
11
179.07
21
-183.109
0
LINE
8
Red 2
10
179.07
20
-183.109
11
178.994
21
-183.032
0
LINE
8
Red 2
10
178.994
20
-183.032
11
178.867
21
-182.956
0
LINE
8
Red 2
10
178.867
20
-182.956
11
178.562
21
-182.88
0
LINE
8
Red 2
10
178.562
20
-182.88
11
178.435
21
-182.804
0
LINE
8
Red 2
10
178.435
20
-182.804
11
178.359
21
-182.753
0
LINE
8
Red 2
10
178.359
20
-182.753
11
178.283
21
-182.601
0
LINE
8
Red 2
10
178.283
20
-182.601
11
178.283
21
-182.448
0
LINE
8
Red 2
10
178.283
20
-182.448
11
178.359
21
-182.321
0
LINE
8
Red 2
10
178.359
20
-182.321
11
178.435
21
-182.245
0
LINE
8
Red 2
10
178.435
20
-182.245
11
178.562
21
-182.169
0
LINE
8
Red 2
10
178.562
20
-182.169
11
178.943
21
-182.169
0
LINE
8
Red 2
10
178.943
20
-182.169
11
179.146
21
-182.245
0
LINE
8
Red 2
10
179.781
20
-183.667
11
179.781
21
-182.169
0
LINE
8
Red 2
10
180.416
20
-183.667
11
180.416
21
-182.88
0
LINE
8
Red 2
10
180.416
20
-182.88
11
180.365
21
-182.753
0
LINE
8
Red 2
10
180.365
20
-182.753
11
180.213
21
-182.677
0
LINE
8
Red 2
10
180.213
20
-182.677
11
179.984
21
-182.677
0
LINE
8
Red 2
10
179.984
20
-182.677
11
179.857
21
-182.753
0
LINE
8
Red 2
10
179.857
20
-182.753
11
179.781
21
-182.804
0
LINE
8
Red 2
10
181.712
20
-183.591
11
181.559
21
-183.667
0
LINE
8
Red 2
10
181.559
20
-183.667
11
181.28
21
-183.667
0
LINE
8
Red 2
10
181.28
20
-183.667
11
181.127
21
-183.591
0
LINE
8
Red 2
10
181.127
20
-183.591
11
181.051
21
-183.464
0
LINE
8
Red 2
10
181.051
20
-183.464
11
181.051
21
-182.88
0
LINE
8
Red 2
10
181.051
20
-182.88
11
181.127
21
-182.753
0
LINE
8
Red 2
10
181.127
20
-182.753
11
181.28
21
-182.677
0
LINE
8
Red 2
10
181.28
20
-182.677
11
181.559
21
-182.677
0
LINE
8
Red 2
10
181.559
20
-182.677
11
181.712
21
-182.753
0
LINE
8
Red 2
10
181.712
20
-182.753
11
181.762
21
-182.88
0
LINE
8
Red 2
10
181.762
20
-182.88
11
181.762
21
-183.032
0
LINE
8
Red 2
10
181.762
20
-183.032
11
181.051
21
-183.185
0
LINE
8
Red 2
10
183.007
20
-183.591
11
182.855
21
-183.667
0
LINE
8
Red 2
10
182.855
20
-183.667
11
182.575
21
-183.667
0
LINE
8
Red 2
10
182.575
20
-183.667
11
182.423
21
-183.591
0
LINE
8
Red 2
10
182.423
20
-183.591
11
182.347
21
-183.464
0
LINE
8
Red 2
10
182.347
20
-183.464
11
182.347
21
-182.88
0
LINE
8
Red 2
10
182.347
20
-182.88
11
182.423
21
-182.753
0
LINE
8
Red 2
10
182.423
20
-182.753
11
182.575
21
-182.677
0
LINE
8
Red 2
10
182.575
20
-182.677
11
182.855
21
-182.677
0
LINE
8
Red 2
10
182.855
20
-182.677
11
183.007
21
-182.753
0
LINE
8
Red 2
10
183.007
20
-182.753
11
183.058
21
-182.88
0
LINE
8
Red 2
10
183.058
20
-182.88
11
183.058
21
-183.032
0
LINE
8
Red 2
10
183.058
20
-183.032
11
182.347
21
-183.185
0
LINE
8
Red 2
10
183.515
20
-182.677
11
184.074
21
-182.677
0
LINE
8
Red 2
10
183.718
20
-182.169
11
183.718
21
-183.464
0
LINE
8
Red 2
10
183.718
20
-183.464
11
183.794
21
-183.591
0
LINE
8
Red 2
10
183.794
20
-183.591
11
183.921
21
-183.667
0
LINE
8
Red 2
10
183.921
20
-183.667
11
184.074
21
-183.667
0
LINE
8
Red 2
10
184.582
20
-183.54
11
184.658
21
-183.591
0
LINE
8
Red 2
10
184.658
20
-183.591
11
184.582
21
-183.667
0
LINE
8
Red 2
10
184.582
20
-183.667
11
184.506
21
-183.591
0
LINE
8
Red 2
10
184.506
20
-183.591
11
184.582
21
-183.54
0
LINE
8
Red 2
10
184.582
20
-183.54
11
184.582
21
-183.667
0
LINE
8
Red 2
10
184.582
20
-182.753
11
184.658
21
-182.804
0
LINE
8
Red 2
10
184.658
20
-182.804
11
184.582
21
-182.88
0
LINE
8
Red 2
10
184.582
20
-182.88
11
184.506
21
-182.804
0
LINE
8
Red 2
10
184.506
20
-182.804
11
184.582
21
-182.753
0
LINE
8
Red 2
10
184.582
20
-182.753
11
184.582
21
-182.88
0
LINE
8
Red 2
10
187.503
20
-182.093
11
186.233
21
-184.023
0
LINE
8
Red 2
10
197.002
20
-191.516
11
197.002
21
-194.513
0
LINE
8
Red 2
10
261.01
20
-191.516
11
261.01
21
-198.018
0
LINE
8
Red 2
10
143.51
20
-58.42
11
143.51
21
-68.58
0
LINE
8
Red 2
10
143.51
20
-68.58
11
158.75
21
-68.58
0
LINE
8
Red 2
10
158.75
20
-68.58
11
158.75
21
-58.42
0
LINE
8
Red 2
10
158.75
20
-58.42
11
143.51
21
-58.42
0
LINE
8
Red 2
10
143.51
20
-63.5
11
138.43
21
-63.5
0
LINE
8
Cyan 2
10
144.831
20
-64.0842
11
144.831
21
-63.2206
0
LINE
8
Cyan 2
10
144.831
20
-62.8142
11
144.78
21
-62.865
0
LINE
8
Cyan 2
10
144.78
20
-62.865
11
144.831
21
-62.9158
0
LINE
8
Cyan 2
10
144.831
20
-62.9158
11
144.882
21
-62.865
0
LINE
8
Cyan 2
10
144.882
20
-62.865
11
144.831
21
-62.8142
0
LINE
8
Cyan 2
10
144.831
20
-62.8142
11
144.831
21
-62.9158
0
LINE
8
Cyan 2
10
145.44
20
-63.2206
11
145.44
21
-64.0842
0
LINE
8
Cyan 2
10
145.44
20
-63.3476
11
145.491
21
-63.2968
0
LINE
8
Cyan 2
10
145.491
20
-63.2968
11
145.618
21
-63.2206
0
LINE
8
Cyan 2
10
145.618
20
-63.2206
11
145.796
21
-63.2206
0
LINE
8
Cyan 2
10
145.796
20
-63.2206
11
145.923
21
-63.2968
0
LINE
8
Cyan 2
10
145.923
20
-63.2968
11
145.974
21
-63.3984
0
LINE
8
Cyan 2
10
145.974
20
-63.3984
11
145.974
21
-64.0842
0
LINE
8
Cyan 2
10
147.244
20
-64.0842
11
146.533
21
-64.0842
0
LINE
8
Cyan 2
10
146.888
20
-64.0842
11
146.888
21
-62.8142
0
LINE
8
Cyan 2
10
146.888
20
-62.8142
11
146.761
21
-62.992
0
LINE
8
Cyan 2
10
146.761
20
-62.992
11
146.634
21
-63.119
0
LINE
8
Cyan 2
10
146.634
20
-63.119
11
146.533
21
-63.1698
0
LINE
8
Red 2
10
141.326
20
-63.1952
11
140.614
21
-63.1952
0
LINE
8
Red 2
10
140.97
20
-63.1952
11
140.97
21
-61.9252
0
LINE
8
Red 2
10
140.97
20
-61.9252
11
140.843
21
-62.103
0
LINE
8
Red 2
10
140.843
20
-62.103
11
140.716
21
-62.23
0
LINE
8
Red 2
10
140.716
20
-62.23
11
140.614
21
-62.2808
0
LINE
8
Red 2
10
158.75
20
-63.5
11
163.83
21
-63.5
0
LINE
8
Cyan 2
10
153.975
20
-64.0842
11
153.848
21
-64.008
0
LINE
8
Cyan 2
10
153.848
20
-64.008
11
153.797
21
-63.9572
0
LINE
8
Cyan 2
10
153.797
20
-63.9572
11
153.746
21
-63.8302
0
LINE
8
Cyan 2
10
153.746
20
-63.8302
11
153.746
21
-63.4746
0
LINE
8
Cyan 2
10
153.746
20
-63.4746
11
153.797
21
-63.3476
0
LINE
8
Cyan 2
10
153.797
20
-63.3476
11
153.848
21
-63.2968
0
LINE
8
Cyan 2
10
153.848
20
-63.2968
11
153.975
21
-63.2206
0
LINE
8
Cyan 2
10
153.975
20
-63.2206
11
154.153
21
-63.2206
0
LINE
8
Cyan 2
10
154.153
20
-63.2206
11
154.28
21
-63.2968
0
LINE
8
Cyan 2
10
154.28
20
-63.2968
11
154.33
21
-63.3476
0
LINE
8
Cyan 2
10
154.33
20
-63.3476
11
154.407
21
-63.4746
0
LINE
8
Cyan 2
10
154.407
20
-63.4746
11
154.407
21
-63.8302
0
LINE
8
Cyan 2
10
154.407
20
-63.8302
11
154.33
21
-63.9572
0
LINE
8
Cyan 2
10
154.33
20
-63.9572
11
154.28
21
-64.008
0
LINE
8
Cyan 2
10
154.28
20
-64.008
11
154.153
21
-64.0842
0
LINE
8
Cyan 2
10
154.153
20
-64.0842
11
153.975
21
-64.0842
0
LINE
8
Cyan 2
10
155.473
20
-63.2206
11
155.473
21
-64.0842
0
LINE
8
Cyan 2
10
154.94
20
-63.2206
11
154.94
21
-63.881
0
LINE
8
Cyan 2
10
154.94
20
-63.881
11
154.991
21
-64.008
0
LINE
8
Cyan 2
10
154.991
20
-64.008
11
155.118
21
-64.0842
0
LINE
8
Cyan 2
10
155.118
20
-64.0842
11
155.296
21
-64.0842
0
LINE
8
Cyan 2
10
155.296
20
-64.0842
11
155.423
21
-64.008
0
LINE
8
Cyan 2
10
155.423
20
-64.008
11
155.473
21
-63.9572
0
LINE
8
Cyan 2
10
155.905
20
-63.2206
11
156.388
21
-63.2206
0
LINE
8
Cyan 2
10
156.083
20
-62.8142
11
156.083
21
-63.881
0
LINE
8
Cyan 2
10
156.083
20
-63.881
11
156.134
21
-64.008
0
LINE
8
Cyan 2
10
156.134
20
-64.008
11
156.261
21
-64.0842
0
LINE
8
Cyan 2
10
156.261
20
-64.0842
11
156.388
21
-64.0842
0
LINE
8
Cyan 2
10
157.48
20
-64.0842
11
156.769
21
-64.0842
0
LINE
8
Cyan 2
10
157.124
20
-64.0842
11
157.124
21
-62.8142
0
LINE
8
Cyan 2
10
157.124
20
-62.8142
11
156.997
21
-62.992
0
LINE
8
Cyan 2
10
156.997
20
-62.992
11
156.87
21
-63.119
0
LINE
8
Cyan 2
10
156.87
20
-63.119
11
156.769
21
-63.1698
0
LINE
8
Red 2
10
160.934
20
-62.0268
11
160.985
21
-61.976
0
LINE
8
Red 2
10
160.985
20
-61.976
11
161.112
21
-61.9252
0
LINE
8
Red 2
10
161.112
20
-61.9252
11
161.417
21
-61.9252
0
LINE
8
Red 2
10
161.417
20
-61.9252
11
161.519
21
-61.976
0
LINE
8
Red 2
10
161.519
20
-61.976
11
161.595
21
-62.0268
0
LINE
8
Red 2
10
161.595
20
-62.0268
11
161.646
21
-62.1538
0
LINE
8
Red 2
10
161.646
20
-62.1538
11
161.646
21
-62.2808
0
LINE
8
Red 2
10
161.646
20
-62.2808
11
161.595
21
-62.4586
0
LINE
8
Red 2
10
161.595
20
-62.4586
11
160.858
21
-63.1952
0
LINE
8
Red 2
10
160.858
20
-63.1952
11
161.646
21
-63.1952
0
LINE
8
Cyan 2
10
149.962
20
-65.3034
11
149.962
21
-66.548
0
LINE
8
Cyan 2
10
149.962
20
-66.548
11
150.038
21
-66.675
0
LINE
8
Cyan 2
10
150.038
20
-66.675
11
150.114
21
-66.7512
0
LINE
8
Cyan 2
10
150.114
20
-66.7512
11
150.266
21
-66.8274
0
LINE
8
Cyan 2
10
150.266
20
-66.8274
11
150.546
21
-66.8274
0
LINE
8
Cyan 2
10
150.546
20
-66.8274
11
150.698
21
-66.7512
0
LINE
8
Cyan 2
10
150.698
20
-66.7512
11
150.774
21
-66.675
0
LINE
8
Cyan 2
10
150.774
20
-66.675
11
150.851
21
-66.548
0
LINE
8
Cyan 2
10
150.851
20
-66.548
11
150.851
21
-65.3034
0
LINE
8
Cyan 2
10
152.375
20
-66.8274
11
151.486
21
-66.8274
0
LINE
8
Cyan 2
10
151.943
20
-66.8274
11
151.943
21
-65.3034
0
LINE
8
Cyan 2
10
151.943
20
-65.3034
11
151.79
21
-65.532
0
LINE
8
Cyan 2
10
151.79
20
-65.532
11
151.638
21
-65.659
0
LINE
8
Cyan 2
10
151.638
20
-65.659
11
151.486
21
-65.7352
0
LINE
8
Cyan 2
10
143.307
20
-60.7314
11
143.307
21
-62.2554
0
LINE
8
Cyan 2
10
143.307
20
-60.8076
11
143.459
21
-60.7314
0
LINE
8
Cyan 2
10
143.459
20
-60.7314
11
143.739
21
-60.7314
0
LINE
8
Cyan 2
10
143.739
20
-60.7314
11
143.891
21
-60.8076
0
LINE
8
Cyan 2
10
143.891
20
-60.8076
11
143.967
21
-60.8838
0
LINE
8
Cyan 2
10
143.967
20
-60.8838
11
144.043
21
-61.0362
0
LINE
8
Cyan 2
10
144.043
20
-61.0362
11
144.043
21
-61.468
0
LINE
8
Cyan 2
10
144.043
20
-61.468
11
143.967
21
-61.595
0
LINE
8
Cyan 2
10
143.967
20
-61.595
11
143.891
21
-61.6712
0
LINE
8
Cyan 2
10
143.891
20
-61.6712
11
143.739
21
-61.7474
0
LINE
8
Cyan 2
10
143.739
20
-61.7474
11
143.459
21
-61.7474
0
LINE
8
Cyan 2
10
143.459
20
-61.7474
11
143.307
21
-61.6712
0
LINE
8
Cyan 2
10
145.339
20
-61.7474
11
145.339
21
-60.96
0
LINE
8
Cyan 2
10
145.339
20
-60.96
11
145.263
21
-60.8076
0
LINE
8
Cyan 2
10
145.263
20
-60.8076
11
145.11
21
-60.7314
0
LINE
8
Cyan 2
10
145.11
20
-60.7314
11
144.831
21
-60.7314
0
LINE
8
Cyan 2
10
144.831
20
-60.7314
11
144.678
21
-60.8076
0
LINE
8
Cyan 2
10
145.339
20
-61.6712
11
145.186
21
-61.7474
0
LINE
8
Cyan 2
10
145.186
20
-61.7474
11
144.831
21
-61.7474
0
LINE
8
Cyan 2
10
144.831
20
-61.7474
11
144.678
21
-61.6712
0
LINE
8
Cyan 2
10
144.678
20
-61.6712
11
144.602
21
-61.5442
0
LINE
8
Cyan 2
10
144.602
20
-61.5442
11
144.602
21
-61.3918
0
LINE
8
Cyan 2
10
144.602
20
-61.3918
11
144.678
21
-61.2394
0
LINE
8
Cyan 2
10
144.678
20
-61.2394
11
144.831
21
-61.1632
0
LINE
8
Cyan 2
10
144.831
20
-61.1632
11
145.186
21
-61.1632
0
LINE
8
Cyan 2
10
145.186
20
-61.1632
11
145.339
21
-61.087
0
LINE
8
Cyan 2
10
146.05
20
-61.7474
11
146.05
21
-60.7314
0
LINE
8
Cyan 2
10
146.05
20
-61.0362
11
146.126
21
-60.8838
0
LINE
8
Cyan 2
10
146.126
20
-60.8838
11
146.202
21
-60.8076
0
LINE
8
Cyan 2
10
146.202
20
-60.8076
11
146.355
21
-60.7314
0
LINE
8
Cyan 2
10
146.355
20
-60.7314
11
146.482
21
-60.7314
0
LINE
8
Cyan 2
10
146.99
20
-61.7474
11
146.99
21
-60.7314
0
LINE
8
Cyan 2
10
146.99
20
-60.2234
11
146.914
21
-60.2996
0
LINE
8
Cyan 2
10
146.914
20
-60.2996
11
146.99
21
-60.3758
0
LINE
8
Cyan 2
10
146.99
20
-60.3758
11
147.066
21
-60.2996
0
LINE
8
Cyan 2
10
147.066
20
-60.2996
11
146.99
21
-60.2234
0
LINE
8
Cyan 2
10
146.99
20
-60.2234
11
146.99
21
-60.3758
0
LINE
8
Cyan 2
10
147.523
20
-60.7314
11
148.107
21
-60.7314
0
LINE
8
Cyan 2
10
147.726
20
-60.2234
11
147.726
21
-61.5442
0
LINE
8
Cyan 2
10
147.726
20
-61.5442
11
147.803
21
-61.6712
0
LINE
8
Cyan 2
10
147.803
20
-61.6712
11
147.955
21
-61.7474
0
LINE
8
Cyan 2
10
147.955
20
-61.7474
11
148.107
21
-61.7474
0
LINE
8
Cyan 2
10
148.463
20
-60.7314
11
148.819
21
-61.7474
0
LINE
8
Cyan 2
10
149.174
20
-60.7314
11
148.819
21
-61.7474
0
LINE
8
Cyan 2
10
148.819
20
-61.7474
11
148.666
21
-62.103
0
LINE
8
Cyan 2
10
148.666
20
-62.103
11
148.59
21
-62.1792
0
LINE
8
Cyan 2
10
148.59
20
-62.1792
11
148.463
21
-62.2554
0
LINE
8
Cyan 2
10
149.403
20
-61.8998
11
150.571
21
-61.8998
0
LINE
8
Cyan 2
10
151.587
20
-61.6712
11
151.435
21
-61.7474
0
LINE
8
Cyan 2
10
151.435
20
-61.7474
11
151.155
21
-61.7474
0
LINE
8
Cyan 2
10
151.155
20
-61.7474
11
151.003
21
-61.6712
0
LINE
8
Cyan 2
10
151.003
20
-61.6712
11
150.927
21
-61.595
0
LINE
8
Cyan 2
10
150.927
20
-61.595
11
150.851
21
-61.468
0
LINE
8
Cyan 2
10
150.851
20
-61.468
11
150.851
21
-61.0362
0
LINE
8
Cyan 2
10
150.851
20
-61.0362
11
150.927
21
-60.8838
0
LINE
8
Cyan 2
10
150.927
20
-60.8838
11
151.003
21
-60.8076
0
LINE
8
Cyan 2
10
151.003
20
-60.8076
11
151.155
21
-60.7314
0
LINE
8
Cyan 2
10
151.155
20
-60.7314
11
151.435
21
-60.7314
0
LINE
8
Cyan 2
10
151.435
20
-60.7314
11
151.587
21
-60.8076
0
LINE
8
Cyan 2
10
152.222
20
-61.7474
11
152.222
21
-60.2234
0
LINE
8
Cyan 2
10
152.883
20
-61.7474
11
152.883
21
-60.96
0
LINE
8
Cyan 2
10
152.883
20
-60.96
11
152.806
21
-60.8076
0
LINE
8
Cyan 2
10
152.806
20
-60.8076
11
152.654
21
-60.7314
0
LINE
8
Cyan 2
10
152.654
20
-60.7314
11
152.451
21
-60.7314
0
LINE
8
Cyan 2
10
152.451
20
-60.7314
11
152.298
21
-60.8076
0
LINE
8
Cyan 2
10
152.298
20
-60.8076
11
152.222
21
-60.8838
0
LINE
8
Cyan 2
10
154.178
20
-61.6712
11
154.026
21
-61.7474
0
LINE
8
Cyan 2
10
154.026
20
-61.7474
11
153.746
21
-61.7474
0
LINE
8
Cyan 2
10
153.746
20
-61.7474
11
153.594
21
-61.6712
0
LINE
8
Cyan 2
10
153.594
20
-61.6712
11
153.518
21
-61.5442
0
LINE
8
Cyan 2
10
153.518
20
-61.5442
11
153.518
21
-60.96
0
LINE
8
Cyan 2
10
153.518
20
-60.96
11
153.594
21
-60.8076
0
LINE
8
Cyan 2
10
153.594
20
-60.8076
11
153.746
21
-60.7314
0
LINE
8
Cyan 2
10
153.746
20
-60.7314
11
154.026
21
-60.7314
0
LINE
8
Cyan 2
10
154.026
20
-60.7314
11
154.178
21
-60.8076
0
LINE
8
Cyan 2
10
154.178
20
-60.8076
11
154.254
21
-60.96
0
LINE
8
Cyan 2
10
154.254
20
-60.96
11
154.254
21
-61.087
0
LINE
8
Cyan 2
10
154.254
20
-61.087
11
153.518
21
-61.2394
0
LINE
8
Cyan 2
10
155.55
20
-61.6712
11
155.397
21
-61.7474
0
LINE
8
Cyan 2
10
155.397
20
-61.7474
11
155.118
21
-61.7474
0
LINE
8
Cyan 2
10
155.118
20
-61.7474
11
154.965
21
-61.6712
0
LINE
8
Cyan 2
10
154.965
20
-61.6712
11
154.889
21
-61.595
0
LINE
8
Cyan 2
10
154.889
20
-61.595
11
154.813
21
-61.468
0
LINE
8
Cyan 2
10
154.813
20
-61.468
11
154.813
21
-61.0362
0
LINE
8
Cyan 2
10
154.813
20
-61.0362
11
154.889
21
-60.8838
0
LINE
8
Cyan 2
10
154.889
20
-60.8838
11
154.965
21
-60.8076
0
LINE
8
Cyan 2
10
154.965
20
-60.8076
11
155.118
21
-60.7314
0
LINE
8
Cyan 2
10
155.118
20
-60.7314
11
155.397
21
-60.7314
0
LINE
8
Cyan 2
10
155.397
20
-60.7314
11
155.55
21
-60.8076
0
LINE
8
Cyan 2
10
156.185
20
-61.7474
11
156.185
21
-60.2234
0
LINE
8
Cyan 2
10
156.337
20
-61.1632
11
156.769
21
-61.7474
0
LINE
8
Cyan 2
10
156.769
20
-60.7314
11
156.185
21
-61.3156
0
LINE
8
Cyan 2
10
158.013
20
-61.6712
11
157.861
21
-61.7474
0
LINE
8
Cyan 2
10
157.861
20
-61.7474
11
157.582
21
-61.7474
0
LINE
8
Cyan 2
10
157.582
20
-61.7474
11
157.429
21
-61.6712
0
LINE
8
Cyan 2
10
157.429
20
-61.6712
11
157.353
21
-61.5442
0
LINE
8
Cyan 2
10
157.353
20
-61.5442
11
157.353
21
-60.96
0
LINE
8
Cyan 2
10
157.353
20
-60.96
11
157.429
21
-60.8076
0
LINE
8
Cyan 2
10
157.429
20
-60.8076
11
157.582
21
-60.7314
0
LINE
8
Cyan 2
10
157.582
20
-60.7314
11
157.861
21
-60.7314
0
LINE
8
Cyan 2
10
157.861
20
-60.7314
11
158.013
21
-60.8076
0
LINE
8
Cyan 2
10
158.013
20
-60.8076
11
158.09
21
-60.96
0
LINE
8
Cyan 2
10
158.09
20
-60.96
11
158.09
21
-61.087
0
LINE
8
Cyan 2
10
158.09
20
-61.087
11
157.353
21
-61.2394
0
LINE
8
Cyan 2
10
158.725
20
-61.7474
11
158.725
21
-60.7314
0
LINE
8
Cyan 2
10
158.725
20
-61.0362
11
158.801
21
-60.8838
0
LINE
8
Cyan 2
10
158.801
20
-60.8838
11
158.877
21
-60.8076
0
LINE
8
Cyan 2
10
158.877
20
-60.8076
11
159.029
21
-60.7314
0
LINE
8
Cyan 2
10
159.029
20
-60.7314
11
159.156
21
-60.7314
0
LINE
8
Red 2
10
107.95
20
-59.69
11
107.95
21
-66.04
0
LINE
8
Red 2
10
107.95
20
-66.04
11
127
21
-66.04
0
LINE
8
Red 2
10
127
20
-66.04
11
127
21
-59.69
0
LINE
8
Red 2
10
127
20
-59.69
11
107.95
21
-59.69
0
LINE
8
Red 2
10
107.95
20
-63.5
11
102.87
21
-63.5
0
LINE
8
Cyan 2
10
109.271
20
-64.0842
11
109.271
21
-62.8142
0
LINE
8
Cyan 2
10
109.88
20
-64.0842
11
109.88
21
-62.8142
0
LINE
8
Cyan 2
10
109.88
20
-62.8142
11
110.592
21
-64.0842
0
LINE
8
Cyan 2
10
110.592
20
-64.0842
11
110.592
21
-62.8142
0
LINE
8
Cyan 2
10
111.862
20
-64.0842
11
111.15
21
-64.0842
0
LINE
8
Cyan 2
10
111.506
20
-64.0842
11
111.506
21
-62.8142
0
LINE
8
Cyan 2
10
111.506
20
-62.8142
11
111.379
21
-62.992
0
LINE
8
Cyan 2
10
111.379
20
-62.992
11
111.252
21
-63.119
0
LINE
8
Cyan 2
10
111.252
20
-63.119
11
111.15
21
-63.1698
0
LINE
8
Red 2
10
105.766
20
-63.1952
11
105.054
21
-63.1952
0
LINE
8
Red 2
10
105.41
20
-63.1952
11
105.41
21
-61.9252
0
LINE
8
Red 2
10
105.41
20
-61.9252
11
105.283
21
-62.103
0
LINE
8
Red 2
10
105.283
20
-62.103
11
105.156
21
-62.23
0
LINE
8
Red 2
10
105.156
20
-62.23
11
105.054
21
-62.2808
0
LINE
8
Red 2
10
127
20
-63.5
11
132.08
21
-63.5
0
LINE
8
Cyan 2
10
121.691
20
-62.8142
11
121.945
21
-62.8142
0
LINE
8
Cyan 2
10
121.945
20
-62.8142
11
122.072
21
-62.865
0
LINE
8
Cyan 2
10
122.072
20
-62.865
11
122.174
21
-62.992
0
LINE
8
Cyan 2
10
122.174
20
-62.992
11
122.25
21
-63.2206
0
LINE
8
Cyan 2
10
122.25
20
-63.2206
11
122.25
21
-63.6524
0
LINE
8
Cyan 2
10
122.25
20
-63.6524
11
122.174
21
-63.881
0
LINE
8
Cyan 2
10
122.174
20
-63.881
11
122.072
21
-64.008
0
LINE
8
Cyan 2
10
122.072
20
-64.008
11
121.945
21
-64.0842
0
LINE
8
Cyan 2
10
121.945
20
-64.0842
11
121.691
21
-64.0842
0
LINE
8
Cyan 2
10
121.691
20
-64.0842
11
121.59
21
-64.008
0
LINE
8
Cyan 2
10
121.59
20
-64.008
11
121.463
21
-63.881
0
LINE
8
Cyan 2
10
121.463
20
-63.881
11
121.412
21
-63.6524
0
LINE
8
Cyan 2
10
121.412
20
-63.6524
11
121.412
21
-63.2206
0
LINE
8
Cyan 2
10
121.412
20
-63.2206
11
121.463
21
-62.992
0
LINE
8
Cyan 2
10
121.463
20
-62.992
11
121.59
21
-62.865
0
LINE
8
Cyan 2
10
121.59
20
-62.865
11
121.691
21
-62.8142
0
LINE
8
Cyan 2
10
122.784
20
-62.8142
11
122.784
21
-63.8302
0
LINE
8
Cyan 2
10
122.784
20
-63.8302
11
122.834
21
-63.9572
0
LINE
8
Cyan 2
10
122.834
20
-63.9572
11
122.911
21
-64.008
0
LINE
8
Cyan 2
10
122.911
20
-64.008
11
123.012
21
-64.0842
0
LINE
8
Cyan 2
10
123.012
20
-64.0842
11
123.266
21
-64.0842
0
LINE
8
Cyan 2
10
123.266
20
-64.0842
11
123.393
21
-64.008
0
LINE
8
Cyan 2
10
123.393
20
-64.008
11
123.444
21
-63.9572
0
LINE
8
Cyan 2
10
123.444
20
-63.9572
11
123.495
21
-63.8302
0
LINE
8
Cyan 2
10
123.495
20
-63.8302
11
123.495
21
-62.8142
0
LINE
8
Cyan 2
10
123.927
20
-62.8142
11
124.638
21
-62.8142
0
LINE
8
Cyan 2
10
124.282
20
-64.0842
11
124.282
21
-62.8142
0
LINE
8
Cyan 2
10
125.73
20
-64.0842
11
125.019
21
-64.0842
0
LINE
8
Cyan 2
10
125.374
20
-64.0842
11
125.374
21
-62.8142
0
LINE
8
Cyan 2
10
125.374
20
-62.8142
11
125.247
21
-62.992
0
LINE
8
Cyan 2
10
125.247
20
-62.992
11
125.12
21
-63.119
0
LINE
8
Cyan 2
10
125.12
20
-63.119
11
125.019
21
-63.1698
0
LINE
8
Red 2
10
129.184
20
-62.0268
11
129.235
21
-61.976
0
LINE
8
Red 2
10
129.235
20
-61.976
11
129.362
21
-61.9252
0
LINE
8
Red 2
10
129.362
20
-61.9252
11
129.667
21
-61.9252
0
LINE
8
Red 2
10
129.667
20
-61.9252
11
129.769
21
-61.976
0
LINE
8
Red 2
10
129.769
20
-61.976
11
129.845
21
-62.0268
0
LINE
8
Red 2
10
129.845
20
-62.0268
11
129.896
21
-62.1538
0
LINE
8
Red 2
10
129.896
20
-62.1538
11
129.896
21
-62.2808
0
LINE
8
Red 2
10
129.896
20
-62.2808
11
129.845
21
-62.4586
0
LINE
8
Red 2
10
129.845
20
-62.4586
11
129.108
21
-63.1952
0
LINE
8
Red 2
10
129.108
20
-63.1952
11
129.896
21
-63.1952
0
LINE
8
Cyan 2
10
116.942
20
-64.0334
11
116.942
21
-65.278
0
LINE
8
Cyan 2
10
116.942
20
-65.278
11
117.018
21
-65.405
0
LINE
8
Cyan 2
10
117.018
20
-65.405
11
117.094
21
-65.4812
0
LINE
8
Cyan 2
10
117.094
20
-65.4812
11
117.246
21
-65.5574
0
LINE
8
Cyan 2
10
117.246
20
-65.5574
11
117.526
21
-65.5574
0
LINE
8
Cyan 2
10
117.526
20
-65.5574
11
117.678
21
-65.4812
0
LINE
8
Cyan 2
10
117.678
20
-65.4812
11
117.754
21
-65.405
0
LINE
8
Cyan 2
10
117.754
20
-65.405
11
117.831
21
-65.278
0
LINE
8
Cyan 2
10
117.831
20
-65.278
11
117.831
21
-64.0334
0
LINE
8
Cyan 2
10
118.466
20
-64.1858
11
118.542
21
-64.1096
0
LINE
8
Cyan 2
10
118.542
20
-64.1096
11
118.694
21
-64.0334
0
LINE
8
Cyan 2
10
118.694
20
-64.0334
11
119.05
21
-64.0334
0
LINE
8
Cyan 2
10
119.05
20
-64.0334
11
119.202
21
-64.1096
0
LINE
8
Cyan 2
10
119.202
20
-64.1096
11
119.278
21
-64.1858
0
LINE
8
Cyan 2
10
119.278
20
-64.1858
11
119.355
21
-64.3382
0
LINE
8
Cyan 2
10
119.355
20
-64.3382
11
119.355
21
-64.4652
0
LINE
8
Cyan 2
10
119.355
20
-64.4652
11
119.278
21
-64.6938
0
LINE
8
Cyan 2
10
119.278
20
-64.6938
11
118.415
21
-65.5574
0
LINE
8
Cyan 2
10
118.415
20
-65.5574
11
119.355
21
-65.5574
0
LINE
8
Cyan 2
10
111.684
20
-61.7474
11
111.684
21
-60.96
0
LINE
8
Cyan 2
10
111.684
20
-60.96
11
111.608
21
-60.8076
0
LINE
8
Cyan 2
10
111.608
20
-60.8076
11
111.455
21
-60.7314
0
LINE
8
Cyan 2
10
111.455
20
-60.7314
11
111.176
21
-60.7314
0
LINE
8
Cyan 2
10
111.176
20
-60.7314
11
111.023
21
-60.8076
0
LINE
8
Cyan 2
10
111.684
20
-61.6712
11
111.531
21
-61.7474
0
LINE
8
Cyan 2
10
111.531
20
-61.7474
11
111.176
21
-61.7474
0
LINE
8
Cyan 2
10
111.176
20
-61.7474
11
111.023
21
-61.6712
0
LINE
8
Cyan 2
10
111.023
20
-61.6712
11
110.947
21
-61.5442
0
LINE
8
Cyan 2
10
110.947
20
-61.5442
11
110.947
21
-61.3918
0
LINE
8
Cyan 2
10
110.947
20
-61.3918
11
111.023
21
-61.2394
0
LINE
8
Cyan 2
10
111.023
20
-61.2394
11
111.176
21
-61.1632
0
LINE
8
Cyan 2
10
111.176
20
-61.1632
11
111.531
21
-61.1632
0
LINE
8
Cyan 2
10
111.531
20
-61.1632
11
111.684
21
-61.087
0
LINE
8
Cyan 2
10
113.055
20
-61.7474
11
113.055
21
-60.2234
0
LINE
8
Cyan 2
10
113.055
20
-61.6712
11
112.903
21
-61.7474
0
LINE
8
Cyan 2
10
112.903
20
-61.7474
11
112.624
21
-61.7474
0
LINE
8
Cyan 2
10
112.624
20
-61.7474
11
112.471
21
-61.6712
0
LINE
8
Cyan 2
10
112.471
20
-61.6712
11
112.395
21
-61.595
0
LINE
8
Cyan 2
10
112.395
20
-61.595
11
112.319
21
-61.468
0
LINE
8
Cyan 2
10
112.319
20
-61.468
11
112.319
21
-61.0362
0
LINE
8
Cyan 2
10
112.319
20
-61.0362
11
112.395
21
-60.8838
0
LINE
8
Cyan 2
10
112.395
20
-60.8838
11
112.471
21
-60.8076
0
LINE
8
Cyan 2
10
112.471
20
-60.8076
11
112.624
21
-60.7314
0
LINE
8
Cyan 2
10
112.624
20
-60.7314
11
112.903
21
-60.7314
0
LINE
8
Cyan 2
10
112.903
20
-60.7314
11
113.055
21
-60.8076
0
LINE
8
Cyan 2
10
114.427
20
-61.6712
11
114.275
21
-61.7474
0
LINE
8
Cyan 2
10
114.275
20
-61.7474
11
113.995
21
-61.7474
0
LINE
8
Cyan 2
10
113.995
20
-61.7474
11
113.843
21
-61.6712
0
LINE
8
Cyan 2
10
113.843
20
-61.6712
11
113.767
21
-61.595
0
LINE
8
Cyan 2
10
113.767
20
-61.595
11
113.69
21
-61.468
0
LINE
8
Cyan 2
10
113.69
20
-61.468
11
113.69
21
-61.0362
0
LINE
8
Cyan 2
10
113.69
20
-61.0362
11
113.767
21
-60.8838
0
LINE
8
Cyan 2
10
113.767
20
-60.8838
11
113.843
21
-60.8076
0
LINE
8
Cyan 2
10
113.843
20
-60.8076
11
113.995
21
-60.7314
0
LINE
8
Cyan 2
10
113.995
20
-60.7314
11
114.275
21
-60.7314
0
LINE
8
Cyan 2
10
114.275
20
-60.7314
11
114.427
21
-60.8076
0
LINE
8
Cyan 2
10
114.706
20
-61.8998
11
115.875
21
-61.8998
0
LINE
8
Cyan 2
10
116.23
20
-61.7474
11
116.23
21
-60.2234
0
LINE
8
Cyan 2
10
116.23
20
-60.8076
11
116.383
21
-60.7314
0
LINE
8
Cyan 2
10
116.383
20
-60.7314
11
116.662
21
-60.7314
0
LINE
8
Cyan 2
10
116.662
20
-60.7314
11
116.815
21
-60.8076
0
LINE
8
Cyan 2
10
116.815
20
-60.8076
11
116.891
21
-60.8838
0
LINE
8
Cyan 2
10
116.891
20
-60.8838
11
116.967
21
-61.0362
0
LINE
8
Cyan 2
10
116.967
20
-61.0362
11
116.967
21
-61.468
0
LINE
8
Cyan 2
10
116.967
20
-61.468
11
116.891
21
-61.595
0
LINE
8
Cyan 2
10
116.891
20
-61.595
11
116.815
21
-61.6712
0
LINE
8
Cyan 2
10
116.815
20
-61.6712
11
116.662
21
-61.7474
0
LINE
8
Cyan 2
10
116.662
20
-61.7474
11
116.383
21
-61.7474
0
LINE
8
Cyan 2
10
116.383
20
-61.7474
11
116.23
21
-61.6712
0
LINE
8
Cyan 2
10
117.602
20
-61.7474
11
117.602
21
-60.7314
0
LINE
8
Cyan 2
10
117.602
20
-61.0362
11
117.678
21
-60.8838
0
LINE
8
Cyan 2
10
117.678
20
-60.8838
11
117.754
21
-60.8076
0
LINE
8
Cyan 2
10
117.754
20
-60.8076
11
117.907
21
-60.7314
0
LINE
8
Cyan 2
10
117.907
20
-60.7314
11
118.034
21
-60.7314
0
LINE
8
Cyan 2
10
118.542
20
-61.7474
11
118.542
21
-60.7314
0
LINE
8
Cyan 2
10
118.542
20
-60.2234
11
118.466
21
-60.2996
0
LINE
8
Cyan 2
10
118.466
20
-60.2996
11
118.542
21
-60.3758
0
LINE
8
Cyan 2
10
118.542
20
-60.3758
11
118.618
21
-60.2996
0
LINE
8
Cyan 2
10
118.618
20
-60.2996
11
118.542
21
-60.2234
0
LINE
8
Cyan 2
10
118.542
20
-60.2234
11
118.542
21
-60.3758
0
LINE
8
Cyan 2
10
119.939
20
-61.7474
11
119.939
21
-60.2234
0
LINE
8
Cyan 2
10
119.939
20
-61.6712
11
119.786
21
-61.7474
0
LINE
8
Cyan 2
10
119.786
20
-61.7474
11
119.507
21
-61.7474
0
LINE
8
Cyan 2
10
119.507
20
-61.7474
11
119.355
21
-61.6712
0
LINE
8
Cyan 2
10
119.355
20
-61.6712
11
119.278
21
-61.595
0
LINE
8
Cyan 2
10
119.278
20
-61.595
11
119.202
21
-61.468
0
LINE
8
Cyan 2
10
119.202
20
-61.468
11
119.202
21
-61.0362
0
LINE
8
Cyan 2
10
119.202
20
-61.0362
11
119.278
21
-60.8838
0
LINE
8
Cyan 2
10
119.278
20
-60.8838
11
119.355
21
-60.8076
0
LINE
8
Cyan 2
10
119.355
20
-60.8076
11
119.507
21
-60.7314
0
LINE
8
Cyan 2
10
119.507
20
-60.7314
11
119.786
21
-60.7314
0
LINE
8
Cyan 2
10
119.786
20
-60.7314
11
119.939
21
-60.8076
0
LINE
8
Cyan 2
10
121.31
20
-60.7314
11
121.31
21
-61.976
0
LINE
8
Cyan 2
10
121.31
20
-61.976
11
121.234
21
-62.103
0
LINE
8
Cyan 2
10
121.234
20
-62.103
11
121.158
21
-62.1792
0
LINE
8
Cyan 2
10
121.158
20
-62.1792
11
121.031
21
-62.2554
0
LINE
8
Cyan 2
10
121.031
20
-62.2554
11
120.802
21
-62.2554
0
LINE
8
Cyan 2
10
120.802
20
-62.2554
11
120.65
21
-62.1792
0
LINE
8
Cyan 2
10
121.31
20
-61.6712
11
121.158
21
-61.7474
0
LINE
8
Cyan 2
10
121.158
20
-61.7474
11
120.879
21
-61.7474
0
LINE
8
Cyan 2
10
120.879
20
-61.7474
11
120.726
21
-61.6712
0
LINE
8
Cyan 2
10
120.726
20
-61.6712
11
120.65
21
-61.595
0
LINE
8
Cyan 2
10
120.65
20
-61.595
11
120.574
21
-61.468
0
LINE
8
Cyan 2
10
120.574
20
-61.468
11
120.574
21
-61.0362
0
LINE
8
Cyan 2
10
120.574
20
-61.0362
11
120.65
21
-60.8838
0
LINE
8
Cyan 2
10
120.65
20
-60.8838
11
120.726
21
-60.8076
0
LINE
8
Cyan 2
10
120.726
20
-60.8076
11
120.879
21
-60.7314
0
LINE
8
Cyan 2
10
120.879
20
-60.7314
11
121.158
21
-60.7314
0
LINE
8
Cyan 2
10
121.158
20
-60.7314
11
121.31
21
-60.8076
0
LINE
8
Cyan 2
10
122.606
20
-61.6712
11
122.453
21
-61.7474
0
LINE
8
Cyan 2
10
122.453
20
-61.7474
11
122.174
21
-61.7474
0
LINE
8
Cyan 2
10
122.174
20
-61.7474
11
122.022
21
-61.6712
0
LINE
8
Cyan 2
10
122.022
20
-61.6712
11
121.945
21
-61.5442
0
LINE
8
Cyan 2
10
121.945
20
-61.5442
11
121.945
21
-60.96
0
LINE
8
Cyan 2
10
121.945
20
-60.96
11
122.022
21
-60.8076
0
LINE
8
Cyan 2
10
122.022
20
-60.8076
11
122.174
21
-60.7314
0
LINE
8
Cyan 2
10
122.174
20
-60.7314
11
122.453
21
-60.7314
0
LINE
8
Cyan 2
10
122.453
20
-60.7314
11
122.606
21
-60.8076
0
LINE
8
Cyan 2
10
122.606
20
-60.8076
11
122.682
21
-60.96
0
LINE
8
Cyan 2
10
122.682
20
-60.96
11
122.682
21
-61.087
0
LINE
8
Cyan 2
10
122.682
20
-61.087
11
121.945
21
-61.2394
0
LINE
8
Cyan 2
10
122.961
20
-61.8998
11
124.13
21
-61.8998
0
LINE
8
Cyan 2
10
125.298
20
-61.7474
11
124.409
21
-61.7474
0
LINE
8
Cyan 2
10
124.866
20
-61.7474
11
124.866
21
-60.2234
0
LINE
8
Cyan 2
10
124.866
20
-60.2234
11
124.714
21
-60.452
0
LINE
8
Cyan 2
10
124.714
20
-60.452
11
124.562
21
-60.579
0
LINE
8
Cyan 2
10
124.562
20
-60.579
11
124.409
21
-60.6552
0
LINE
8
Red 2
10
175.26
20
-59.69
11
175.26
21
-66.04
0
LINE
8
Red 2
10
175.26
20
-66.04
11
194.31
21
-66.04
0
LINE
8
Red 2
10
194.31
20
-66.04
11
194.31
21
-59.69
0
LINE
8
Red 2
10
194.31
20
-59.69
11
175.26
21
-59.69
0
LINE
8
Red 2
10
175.26
20
-63.5
11
170.18
21
-63.5
0
LINE
8
Cyan 2
10
176.581
20
-64.0842
11
176.581
21
-62.8142
0
LINE
8
Cyan 2
10
177.19
20
-64.0842
11
177.19
21
-62.8142
0
LINE
8
Cyan 2
10
177.19
20
-62.8142
11
177.902
21
-64.0842
0
LINE
8
Cyan 2
10
177.902
20
-64.0842
11
177.902
21
-62.8142
0
LINE
8
Cyan 2
10
179.172
20
-64.0842
11
178.46
21
-64.0842
0
LINE
8
Cyan 2
10
178.816
20
-64.0842
11
178.816
21
-62.8142
0
LINE
8
Cyan 2
10
178.816
20
-62.8142
11
178.689
21
-62.992
0
LINE
8
Cyan 2
10
178.689
20
-62.992
11
178.562
21
-63.119
0
LINE
8
Cyan 2
10
178.562
20
-63.119
11
178.46
21
-63.1698
0
LINE
8
Red 2
10
173.076
20
-63.1952
11
172.364
21
-63.1952
0
LINE
8
Red 2
10
172.72
20
-63.1952
11
172.72
21
-61.9252
0
LINE
8
Red 2
10
172.72
20
-61.9252
11
172.593
21
-62.103
0
LINE
8
Red 2
10
172.593
20
-62.103
11
172.466
21
-62.23
0
LINE
8
Red 2
10
172.466
20
-62.23
11
172.364
21
-62.2808
0
LINE
8
Red 2
10
194.31
20
-63.5
11
199.39
21
-63.5
0
LINE
8
Cyan 2
10
189.001
20
-62.8142
11
189.255
21
-62.8142
0
LINE
8
Cyan 2
10
189.255
20
-62.8142
11
189.382
21
-62.865
0
LINE
8
Cyan 2
10
189.382
20
-62.865
11
189.484
21
-62.992
0
LINE
8
Cyan 2
10
189.484
20
-62.992
11
189.56
21
-63.2206
0
LINE
8
Cyan 2
10
189.56
20
-63.2206
11
189.56
21
-63.6524
0
LINE
8
Cyan 2
10
189.56
20
-63.6524
11
189.484
21
-63.881
0
LINE
8
Cyan 2
10
189.484
20
-63.881
11
189.382
21
-64.008
0
LINE
8
Cyan 2
10
189.382
20
-64.008
11
189.255
21
-64.0842
0
LINE
8
Cyan 2
10
189.255
20
-64.0842
11
189.001
21
-64.0842
0
LINE
8
Cyan 2
10
189.001
20
-64.0842
11
188.9
21
-64.008
0
LINE
8
Cyan 2
10
188.9
20
-64.008
11
188.773
21
-63.881
0
LINE
8
Cyan 2
10
188.773
20
-63.881
11
188.722
21
-63.6524
0
LINE
8
Cyan 2
10
188.722
20
-63.6524
11
188.722
21
-63.2206
0
LINE
8
Cyan 2
10
188.722
20
-63.2206
11
188.773
21
-62.992
0
LINE
8
Cyan 2
10
188.773
20
-62.992
11
188.9
21
-62.865
0
LINE
8
Cyan 2
10
188.9
20
-62.865
11
189.001
21
-62.8142
0
LINE
8
Cyan 2
10
190.094
20
-62.8142
11
190.094
21
-63.8302
0
LINE
8
Cyan 2
10
190.094
20
-63.8302
11
190.144
21
-63.9572
0
LINE
8
Cyan 2
10
190.144
20
-63.9572
11
190.221
21
-64.008
0
LINE
8
Cyan 2
10
190.221
20
-64.008
11
190.322
21
-64.0842
0
LINE
8
Cyan 2
10
190.322
20
-64.0842
11
190.576
21
-64.0842
0
LINE
8
Cyan 2
10
190.576
20
-64.0842
11
190.703
21
-64.008
0
LINE
8
Cyan 2
10
190.703
20
-64.008
11
190.754
21
-63.9572
0
LINE
8
Cyan 2
10
190.754
20
-63.9572
11
190.805
21
-63.8302
0
LINE
8
Cyan 2
10
190.805
20
-63.8302
11
190.805
21
-62.8142
0
LINE
8
Cyan 2
10
191.237
20
-62.8142
11
191.948
21
-62.8142
0
LINE
8
Cyan 2
10
191.592
20
-64.0842
11
191.592
21
-62.8142
0
LINE
8
Cyan 2
10
193.04
20
-64.0842
11
192.329
21
-64.0842
0
LINE
8
Cyan 2
10
192.684
20
-64.0842
11
192.684
21
-62.8142
0
LINE
8
Cyan 2
10
192.684
20
-62.8142
11
192.557
21
-62.992
0
LINE
8
Cyan 2
10
192.557
20
-62.992
11
192.43
21
-63.119
0
LINE
8
Cyan 2
10
192.43
20
-63.119
11
192.329
21
-63.1698
0
LINE
8
Red 2
10
196.494
20
-62.0268
11
196.545
21
-61.976
0
LINE
8
Red 2
10
196.545
20
-61.976
11
196.672
21
-61.9252
0
LINE
8
Red 2
10
196.672
20
-61.9252
11
196.977
21
-61.9252
0
LINE
8
Red 2
10
196.977
20
-61.9252
11
197.079
21
-61.976
0
LINE
8
Red 2
10
197.079
20
-61.976
11
197.155
21
-62.0268
0
LINE
8
Red 2
10
197.155
20
-62.0268
11
197.206
21
-62.1538
0
LINE
8
Red 2
10
197.206
20
-62.1538
11
197.206
21
-62.2808
0
LINE
8
Red 2
10
197.206
20
-62.2808
11
197.155
21
-62.4586
0
LINE
8
Red 2
10
197.155
20
-62.4586
11
196.418
21
-63.1952
0
LINE
8
Red 2
10
196.418
20
-63.1952
11
197.206
21
-63.1952
0
LINE
8
Cyan 2
10
184.252
20
-64.0334
11
184.252
21
-65.278
0
LINE
8
Cyan 2
10
184.252
20
-65.278
11
184.328
21
-65.405
0
LINE
8
Cyan 2
10
184.328
20
-65.405
11
184.404
21
-65.4812
0
LINE
8
Cyan 2
10
184.404
20
-65.4812
11
184.556
21
-65.5574
0
LINE
8
Cyan 2
10
184.556
20
-65.5574
11
184.836
21
-65.5574
0
LINE
8
Cyan 2
10
184.836
20
-65.5574
11
184.988
21
-65.4812
0
LINE
8
Cyan 2
10
184.988
20
-65.4812
11
185.064
21
-65.405
0
LINE
8
Cyan 2
10
185.064
20
-65.405
11
185.141
21
-65.278
0
LINE
8
Cyan 2
10
185.141
20
-65.278
11
185.141
21
-64.0334
0
LINE
8
Cyan 2
10
185.725
20
-64.0334
11
186.665
21
-64.0334
0
LINE
8
Cyan 2
10
186.665
20
-64.0334
11
186.157
21
-64.6176
0
LINE
8
Cyan 2
10
186.157
20
-64.6176
11
186.36
21
-64.6176
0
LINE
8
Cyan 2
10
186.36
20
-64.6176
11
186.512
21
-64.6938
0
LINE
8
Cyan 2
10
186.512
20
-64.6938
11
186.588
21
-64.77
0
LINE
8
Cyan 2
10
186.588
20
-64.77
11
186.665
21
-64.897
0
LINE
8
Cyan 2
10
186.665
20
-64.897
11
186.665
21
-65.278
0
LINE
8
Cyan 2
10
186.665
20
-65.278
11
186.588
21
-65.405
0
LINE
8
Cyan 2
10
186.588
20
-65.405
11
186.512
21
-65.4812
0
LINE
8
Cyan 2
10
186.512
20
-65.4812
11
186.36
21
-65.5574
0
LINE
8
Cyan 2
10
186.36
20
-65.5574
11
185.928
21
-65.5574
0
LINE
8
Cyan 2
10
185.928
20
-65.5574
11
185.776
21
-65.4812
0
LINE
8
Cyan 2
10
185.776
20
-65.4812
11
185.725
21
-65.405
0
LINE
8
Cyan 2
10
178.994
20
-61.7474
11
178.994
21
-60.2234
0
LINE
8
Cyan 2
10
178.994
20
-61.6712
11
178.841
21
-61.7474
0
LINE
8
Cyan 2
10
178.841
20
-61.7474
11
178.562
21
-61.7474
0
LINE
8
Cyan 2
10
178.562
20
-61.7474
11
178.41
21
-61.6712
0
LINE
8
Cyan 2
10
178.41
20
-61.6712
11
178.333
21
-61.595
0
LINE
8
Cyan 2
10
178.333
20
-61.595
11
178.257
21
-61.468
0
LINE
8
Cyan 2
10
178.257
20
-61.468
11
178.257
21
-61.0362
0
LINE
8
Cyan 2
10
178.257
20
-61.0362
11
178.333
21
-60.8838
0
LINE
8
Cyan 2
10
178.333
20
-60.8838
11
178.41
21
-60.8076
0
LINE
8
Cyan 2
10
178.41
20
-60.8076
11
178.562
21
-60.7314
0
LINE
8
Cyan 2
10
178.562
20
-60.7314
11
178.841
21
-60.7314
0
LINE
8
Cyan 2
10
178.841
20
-60.7314
11
178.994
21
-60.8076
0
LINE
8
Cyan 2
10
180.365
20
-61.7474
11
180.365
21
-60.96
0
LINE
8
Cyan 2
10
180.365
20
-60.96
11
180.289
21
-60.8076
0
LINE
8
Cyan 2
10
180.289
20
-60.8076
11
180.137
21
-60.7314
0
LINE
8
Cyan 2
10
180.137
20
-60.7314
11
179.857
21
-60.7314
0
LINE
8
Cyan 2
10
179.857
20
-60.7314
11
179.705
21
-60.8076
0
LINE
8
Cyan 2
10
180.365
20
-61.6712
11
180.213
21
-61.7474
0
LINE
8
Cyan 2
10
180.213
20
-61.7474
11
179.857
21
-61.7474
0
LINE
8
Cyan 2
10
179.857
20
-61.7474
11
179.705
21
-61.6712
0
LINE
8
Cyan 2
10
179.705
20
-61.6712
11
179.629
21
-61.5442
0
LINE
8
Cyan 2
10
179.629
20
-61.5442
11
179.629
21
-61.3918
0
LINE
8
Cyan 2
10
179.629
20
-61.3918
11
179.705
21
-61.2394
0
LINE
8
Cyan 2
10
179.705
20
-61.2394
11
179.857
21
-61.1632
0
LINE
8
Cyan 2
10
179.857
20
-61.1632
11
180.213
21
-61.1632
0
LINE
8
Cyan 2
10
180.213
20
-61.1632
11
180.365
21
-61.087
0
LINE
8
Cyan 2
10
181.737
20
-61.6712
11
181.585
21
-61.7474
0
LINE
8
Cyan 2
10
181.585
20
-61.7474
11
181.305
21
-61.7474
0
LINE
8
Cyan 2
10
181.305
20
-61.7474
11
181.153
21
-61.6712
0
LINE
8
Cyan 2
10
181.153
20
-61.6712
11
181.077
21
-61.595
0
LINE
8
Cyan 2
10
181.077
20
-61.595
11
181
21
-61.468
0
LINE
8
Cyan 2
10
181
20
-61.468
11
181
21
-61.0362
0
LINE
8
Cyan 2
10
181
20
-61.0362
11
181.077
21
-60.8838
0
LINE
8
Cyan 2
10
181.077
20
-60.8838
11
181.153
21
-60.8076
0
LINE
8
Cyan 2
10
181.153
20
-60.8076
11
181.305
21
-60.7314
0
LINE
8
Cyan 2
10
181.305
20
-60.7314
11
181.585
21
-60.7314
0
LINE
8
Cyan 2
10
181.585
20
-60.7314
11
181.737
21
-60.8076
0
LINE
8
Cyan 2
10
182.016
20
-61.8998
11
183.185
21
-61.8998
0
LINE
8
Cyan 2
10
183.54
20
-61.7474
11
183.54
21
-60.2234
0
LINE
8
Cyan 2
10
183.54
20
-60.8076
11
183.693
21
-60.7314
0
LINE
8
Cyan 2
10
183.693
20
-60.7314
11
183.972
21
-60.7314
0
LINE
8
Cyan 2
10
183.972
20
-60.7314
11
184.125
21
-60.8076
0
LINE
8
Cyan 2
10
184.125
20
-60.8076
11
184.201
21
-60.8838
0
LINE
8
Cyan 2
10
184.201
20
-60.8838
11
184.277
21
-61.0362
0
LINE
8
Cyan 2
10
184.277
20
-61.0362
11
184.277
21
-61.468
0
LINE
8
Cyan 2
10
184.277
20
-61.468
11
184.201
21
-61.595
0
LINE
8
Cyan 2
10
184.201
20
-61.595
11
184.125
21
-61.6712
0
LINE
8
Cyan 2
10
184.125
20
-61.6712
11
183.972
21
-61.7474
0
LINE
8
Cyan 2
10
183.972
20
-61.7474
11
183.693
21
-61.7474
0
LINE
8
Cyan 2
10
183.693
20
-61.7474
11
183.54
21
-61.6712
0
LINE
8
Cyan 2
10
184.912
20
-61.7474
11
184.912
21
-60.7314
0
LINE
8
Cyan 2
10
184.912
20
-61.0362
11
184.988
21
-60.8838
0
LINE
8
Cyan 2
10
184.988
20
-60.8838
11
185.064
21
-60.8076
0
LINE
8
Cyan 2
10
185.064
20
-60.8076
11
185.217
21
-60.7314
0
LINE
8
Cyan 2
10
185.217
20
-60.7314
11
185.344
21
-60.7314
0
LINE
8
Cyan 2
10
185.852
20
-61.7474
11
185.852
21
-60.7314
0
LINE
8
Cyan 2
10
185.852
20
-60.2234
11
185.776
21
-60.2996
0
LINE
8
Cyan 2
10
185.776
20
-60.2996
11
185.852
21
-60.3758
0
LINE
8
Cyan 2
10
185.852
20
-60.3758
11
185.928
21
-60.2996
0
LINE
8
Cyan 2
10
185.928
20
-60.2996
11
185.852
21
-60.2234
0
LINE
8
Cyan 2
10
185.852
20
-60.2234
11
185.852
21
-60.3758
0
LINE
8
Cyan 2
10
187.249
20
-61.7474
11
187.249
21
-60.2234
0
LINE
8
Cyan 2
10
187.249
20
-61.6712
11
187.096
21
-61.7474
0
LINE
8
Cyan 2
10
187.096
20
-61.7474
11
186.817
21
-61.7474
0
LINE
8
Cyan 2
10
186.817
20
-61.7474
11
186.665
21
-61.6712
0
LINE
8
Cyan 2
10
186.665
20
-61.6712
11
186.588
21
-61.595
0
LINE
8
Cyan 2
10
186.588
20
-61.595
11
186.512
21
-61.468
0
LINE
8
Cyan 2
10
186.512
20
-61.468
11
186.512
21
-61.0362
0
LINE
8
Cyan 2
10
186.512
20
-61.0362
11
186.588
21
-60.8838
0
LINE
8
Cyan 2
10
186.588
20
-60.8838
11
186.665
21
-60.8076
0
LINE
8
Cyan 2
10
186.665
20
-60.8076
11
186.817
21
-60.7314
0
LINE
8
Cyan 2
10
186.817
20
-60.7314
11
187.096
21
-60.7314
0
LINE
8
Cyan 2
10
187.096
20
-60.7314
11
187.249
21
-60.8076
0
LINE
8
Cyan 2
10
188.62
20
-60.7314
11
188.62
21
-61.976
0
LINE
8
Cyan 2
10
188.62
20
-61.976
11
188.544
21
-62.103
0
LINE
8
Cyan 2
10
188.544
20
-62.103
11
188.468
21
-62.1792
0
LINE
8
Cyan 2
10
188.468
20
-62.1792
11
188.341
21
-62.2554
0
LINE
8
Cyan 2
10
188.341
20
-62.2554
11
188.112
21
-62.2554
0
LINE
8
Cyan 2
10
188.112
20
-62.2554
11
187.96
21
-62.1792
0
LINE
8
Cyan 2
10
188.62
20
-61.6712
11
188.468
21
-61.7474
0
LINE
8
Cyan 2
10
188.468
20
-61.7474
11
188.189
21
-61.7474
0
LINE
8
Cyan 2
10
188.189
20
-61.7474
11
188.036
21
-61.6712
0
LINE
8
Cyan 2
10
188.036
20
-61.6712
11
187.96
21
-61.595
0
LINE
8
Cyan 2
10
187.96
20
-61.595
11
187.884
21
-61.468
0
LINE
8
Cyan 2
10
187.884
20
-61.468
11
187.884
21
-61.0362
0
LINE
8
Cyan 2
10
187.884
20
-61.0362
11
187.96
21
-60.8838
0
LINE
8
Cyan 2
10
187.96
20
-60.8838
11
188.036
21
-60.8076
0
LINE
8
Cyan 2
10
188.036
20
-60.8076
11
188.189
21
-60.7314
0
LINE
8
Cyan 2
10
188.189
20
-60.7314
11
188.468
21
-60.7314
0
LINE
8
Cyan 2
10
188.468
20
-60.7314
11
188.62
21
-60.8076
0
LINE
8
Cyan 2
10
189.916
20
-61.6712
11
189.763
21
-61.7474
0
LINE
8
Cyan 2
10
189.763
20
-61.7474
11
189.484
21
-61.7474
0
LINE
8
Cyan 2
10
189.484
20
-61.7474
11
189.332
21
-61.6712
0
LINE
8
Cyan 2
10
189.332
20
-61.6712
11
189.255
21
-61.5442
0
LINE
8
Cyan 2
10
189.255
20
-61.5442
11
189.255
21
-60.96
0
LINE
8
Cyan 2
10
189.255
20
-60.96
11
189.332
21
-60.8076
0
LINE
8
Cyan 2
10
189.332
20
-60.8076
11
189.484
21
-60.7314
0
LINE
8
Cyan 2
10
189.484
20
-60.7314
11
189.763
21
-60.7314
0
LINE
8
Cyan 2
10
189.763
20
-60.7314
11
189.916
21
-60.8076
0
LINE
8
Cyan 2
10
189.916
20
-60.8076
11
189.992
21
-60.96
0
LINE
8
Cyan 2
10
189.992
20
-60.96
11
189.992
21
-61.087
0
LINE
8
Cyan 2
10
189.992
20
-61.087
11
189.255
21
-61.2394
0
LINE
8
Cyan 2
10
190.271
20
-61.8998
11
191.44
21
-61.8998
0
LINE
8
Cyan 2
10
192.608
20
-61.7474
11
191.719
21
-61.7474
0
LINE
8
Cyan 2
10
192.176
20
-61.7474
11
192.176
21
-60.2234
0
LINE
8
Cyan 2
10
192.176
20
-60.2234
11
192.024
21
-60.452
0
LINE
8
Cyan 2
10
192.024
20
-60.452
11
191.872
21
-60.579
0
LINE
8
Cyan 2
10
191.872
20
-60.579
11
191.719
21
-60.6552
0
LINE
8
Red 2
10
98.806
20
-71.12
11
98.806
21
-76.2
0
LINE
8
Red 2
10
98.806
20
-76.2
11
96.774
21
-76.2
0
LINE
8
Red 2
10
96.774
20
-76.2
11
96.774
21
-71.12
0
LINE
8
Red 2
10
96.774
20
-71.12
11
98.806
21
-71.12
0
LINE
8
Red 2
10
97.79
20
-76.2
11
97.79
21
-77.47
0
LINE
8
Red 2
10
97.79
20
-71.12
11
97.79
21
-69.85
0
LINE
8
Cyan 2
10
96.4184
20
-73.8886
11
95.8088
21
-74.295
0
LINE
8
Cyan 2
10
96.4184
20
-74.5998
11
95.1484
21
-74.5998
0
LINE
8
Cyan 2
10
95.1484
20
-74.5998
11
95.1484
21
-74.1172
0
LINE
8
Cyan 2
10
95.1484
20
-74.1172
11
95.1992
21
-73.9902
0
LINE
8
Cyan 2
10
95.1992
20
-73.9902
11
95.25
21
-73.9394
0
LINE
8
Cyan 2
10
95.25
20
-73.9394
11
95.377
21
-73.8886
0
LINE
8
Cyan 2
10
95.377
20
-73.8886
11
95.5548
21
-73.8886
0
LINE
8
Cyan 2
10
95.5548
20
-73.8886
11
95.6818
21
-73.9394
0
LINE
8
Cyan 2
10
95.6818
20
-73.9394
11
95.7326
21
-73.9902
0
LINE
8
Cyan 2
10
95.7326
20
-73.9902
11
95.8088
21
-74.1172
0
LINE
8
Cyan 2
10
95.8088
20
-74.1172
11
95.8088
21
-74.5998
0
LINE
8
Cyan 2
10
96.4184
20
-72.6694
11
96.4184
21
-73.3806
0
LINE
8
Cyan 2
10
96.4184
20
-73.025
11
95.1484
21
-73.025
0
LINE
8
Cyan 2
10
95.1484
20
-73.025
11
95.3262
21
-73.152
0
LINE
8
Cyan 2
10
95.3262
20
-73.152
11
95.4532
21
-73.279
0
LINE
8
Cyan 2
10
95.4532
20
-73.279
11
95.504
21
-73.3806
0
LINE
8
Cyan 2
10
100.99
20
-75.0316
11
100.99
21
-75.7428
0
LINE
8
Cyan 2
10
100.99
20
-75.3872
11
99.7204
21
-75.3872
0
LINE
8
Cyan 2
10
99.7204
20
-75.3872
11
99.8982
21
-75.5142
0
LINE
8
Cyan 2
10
99.8982
20
-75.5142
11
100.025
21
-75.6412
0
LINE
8
Cyan 2
10
100.025
20
-75.6412
11
100.076
21
-75.7428
0
LINE
8
Cyan 2
10
99.7204
20
-74.2442
11
99.7204
21
-74.1172
0
LINE
8
Cyan 2
10
99.7204
20
-74.1172
11
99.7712
21
-73.9902
0
LINE
8
Cyan 2
10
99.7712
20
-73.9902
11
99.822
21
-73.9394
0
LINE
8
Cyan 2
10
99.822
20
-73.9394
11
99.949
21
-73.8632
0
LINE
8
Cyan 2
10
99.949
20
-73.8632
11
100.203
21
-73.8124
0
LINE
8
Cyan 2
10
100.203
20
-73.8124
11
100.508
21
-73.8124
0
LINE
8
Cyan 2
10
100.508
20
-73.8124
11
100.736
21
-73.8632
0
LINE
8
Cyan 2
10
100.736
20
-73.8632
11
100.863
21
-73.9394
0
LINE
8
Cyan 2
10
100.863
20
-73.9394
11
100.914
21
-73.9902
0
LINE
8
Cyan 2
10
100.914
20
-73.9902
11
100.99
21
-74.1172
0
LINE
8
Cyan 2
10
100.99
20
-74.1172
11
100.99
21
-74.2442
0
LINE
8
Cyan 2
10
100.99
20
-74.2442
11
100.914
21
-74.3458
0
LINE
8
Cyan 2
10
100.914
20
-74.3458
11
100.863
21
-74.422
0
LINE
8
Cyan 2
10
100.863
20
-74.422
11
100.736
21
-74.4728
0
LINE
8
Cyan 2
10
100.736
20
-74.4728
11
100.508
21
-74.5236
0
LINE
8
Cyan 2
10
100.508
20
-74.5236
11
100.203
21
-74.5236
0
LINE
8
Cyan 2
10
100.203
20
-74.5236
11
99.949
21
-74.4728
0
LINE
8
Cyan 2
10
99.949
20
-74.4728
11
99.822
21
-74.422
0
LINE
8
Cyan 2
10
99.822
20
-74.422
11
99.7712
21
-74.3458
0
LINE
8
Cyan 2
10
99.7712
20
-74.3458
11
99.7204
21
-74.2442
0
LINE
8
Cyan 2
10
99.7204
20
-73.025
11
99.7204
21
-72.898
0
LINE
8
Cyan 2
10
99.7204
20
-72.898
11
99.7712
21
-72.771
0
LINE
8
Cyan 2
10
99.7712
20
-72.771
11
99.822
21
-72.7202
0
LINE
8
Cyan 2
10
99.822
20
-72.7202
11
99.949
21
-72.644
0
LINE
8
Cyan 2
10
99.949
20
-72.644
11
100.203
21
-72.5932
0
LINE
8
Cyan 2
10
100.203
20
-72.5932
11
100.508
21
-72.5932
0
LINE
8
Cyan 2
10
100.508
20
-72.5932
11
100.736
21
-72.644
0
LINE
8
Cyan 2
10
100.736
20
-72.644
11
100.863
21
-72.7202
0
LINE
8
Cyan 2
10
100.863
20
-72.7202
11
100.914
21
-72.771
0
LINE
8
Cyan 2
10
100.914
20
-72.771
11
100.99
21
-72.898
0
LINE
8
Cyan 2
10
100.99
20
-72.898
11
100.99
21
-73.025
0
LINE
8
Cyan 2
10
100.99
20
-73.025
11
100.914
21
-73.1266
0
LINE
8
Cyan 2
10
100.914
20
-73.1266
11
100.863
21
-73.2028
0
LINE
8
Cyan 2
10
100.863
20
-73.2028
11
100.736
21
-73.2536
0
LINE
8
Cyan 2
10
100.736
20
-73.2536
11
100.508
21
-73.3044
0
LINE
8
Cyan 2
10
100.508
20
-73.3044
11
100.203
21
-73.3044
0
LINE
8
Cyan 2
10
100.203
20
-73.3044
11
99.949
21
-73.2536
0
LINE
8
Cyan 2
10
99.949
20
-73.2536
11
99.822
21
-73.2028
0
LINE
8
Cyan 2
10
99.822
20
-73.2028
11
99.7712
21
-73.1266
0
LINE
8
Cyan 2
10
99.7712
20
-73.1266
11
99.7204
21
-73.025
0
LINE
8
Cyan 2
10
100.99
20
-72.0344
11
99.7204
21
-72.0344
0
LINE
8
Cyan 2
10
100.508
20
-71.9074
11
100.99
21
-71.5518
0
LINE
8
Cyan 2
10
100.127
20
-71.5518
11
100.609
21
-72.0344
0
LINE
8
Red 2
10
205.486
20
-69.85
11
205.486
21
-74.93
0
LINE
8
Red 2
10
205.486
20
-74.93
11
203.454
21
-74.93
0
LINE
8
Red 2
10
203.454
20
-74.93
11
203.454
21
-69.85
0
LINE
8
Red 2
10
203.454
20
-69.85
11
205.486
21
-69.85
0
LINE
8
Red 2
10
204.47
20
-74.93
11
204.47
21
-76.2
0
LINE
8
Red 2
10
204.47
20
-69.85
11
204.47
21
-68.58
0
LINE
8
Cyan 2
10
203.098
20
-72.6186
11
202.489
21
-73.025
0
LINE
8
Cyan 2
10
203.098
20
-73.3298
11
201.828
21
-73.3298
0
LINE
8
Cyan 2
10
201.828
20
-73.3298
11
201.828
21
-72.8472
0
LINE
8
Cyan 2
10
201.828
20
-72.8472
11
201.879
21
-72.7202
0
LINE
8
Cyan 2
10
201.879
20
-72.7202
11
201.93
21
-72.6694
0
LINE
8
Cyan 2
10
201.93
20
-72.6694
11
202.057
21
-72.6186
0
LINE
8
Cyan 2
10
202.057
20
-72.6186
11
202.235
21
-72.6186
0
LINE
8
Cyan 2
10
202.235
20
-72.6186
11
202.362
21
-72.6694
0
LINE
8
Cyan 2
10
202.362
20
-72.6694
11
202.413
21
-72.7202
0
LINE
8
Cyan 2
10
202.413
20
-72.7202
11
202.489
21
-72.8472
0
LINE
8
Cyan 2
10
202.489
20
-72.8472
11
202.489
21
-73.3298
0
LINE
8
Cyan 2
10
201.93
20
-72.1106
11
201.879
21
-72.0598
0
LINE
8
Cyan 2
10
201.879
20
-72.0598
11
201.828
21
-71.9328
0
LINE
8
Cyan 2
10
201.828
20
-71.9328
11
201.828
21
-71.628
0
LINE
8
Cyan 2
10
201.828
20
-71.628
11
201.879
21
-71.5264
0
LINE
8
Cyan 2
10
201.879
20
-71.5264
11
201.93
21
-71.4502
0
LINE
8
Cyan 2
10
201.93
20
-71.4502
11
202.057
21
-71.3994
0
LINE
8
Cyan 2
10
202.057
20
-71.3994
11
202.184
21
-71.3994
0
LINE
8
Cyan 2
10
202.184
20
-71.3994
11
202.362
21
-71.4502
0
LINE
8
Cyan 2
10
202.362
20
-71.4502
11
203.098
21
-72.1868
0
LINE
8
Cyan 2
10
203.098
20
-72.1868
11
203.098
21
-71.3994
0
LINE
8
Cyan 2
10
207.67
20
-73.7616
11
207.67
21
-74.4728
0
LINE
8
Cyan 2
10
207.67
20
-74.1172
11
206.4
21
-74.1172
0
LINE
8
Cyan 2
10
206.4
20
-74.1172
11
206.578
21
-74.2442
0
LINE
8
Cyan 2
10
206.578
20
-74.2442
11
206.705
21
-74.3712
0
LINE
8
Cyan 2
10
206.705
20
-74.3712
11
206.756
21
-74.4728
0
LINE
8
Cyan 2
10
206.4
20
-72.9742
11
206.4
21
-72.8472
0
LINE
8
Cyan 2
10
206.4
20
-72.8472
11
206.451
21
-72.7202
0
LINE
8
Cyan 2
10
206.451
20
-72.7202
11
206.502
21
-72.6694
0
LINE
8
Cyan 2
10
206.502
20
-72.6694
11
206.629
21
-72.5932
0
LINE
8
Cyan 2
10
206.629
20
-72.5932
11
206.883
21
-72.5424
0
LINE
8
Cyan 2
10
206.883
20
-72.5424
11
207.188
21
-72.5424
0
LINE
8
Cyan 2
10
207.188
20
-72.5424
11
207.416
21
-72.5932
0
LINE
8
Cyan 2
10
207.416
20
-72.5932
11
207.543
21
-72.6694
0
LINE
8
Cyan 2
10
207.543
20
-72.6694
11
207.594
21
-72.7202
0
LINE
8
Cyan 2
10
207.594
20
-72.7202
11
207.67
21
-72.8472
0
LINE
8
Cyan 2
10
207.67
20
-72.8472
11
207.67
21
-72.9742
0
LINE
8
Cyan 2
10
207.67
20
-72.9742
11
207.594
21
-73.0758
0
LINE
8
Cyan 2
10
207.594
20
-73.0758
11
207.543
21
-73.152
0
LINE
8
Cyan 2
10
207.543
20
-73.152
11
207.416
21
-73.2028
0
LINE
8
Cyan 2
10
207.416
20
-73.2028
11
207.188
21
-73.2536
0
LINE
8
Cyan 2
10
207.188
20
-73.2536
11
206.883
21
-73.2536
0
LINE
8
Cyan 2
10
206.883
20
-73.2536
11
206.629
21
-73.2028
0
LINE
8
Cyan 2
10
206.629
20
-73.2028
11
206.502
21
-73.152
0
LINE
8
Cyan 2
10
206.502
20
-73.152
11
206.451
21
-73.0758
0
LINE
8
Cyan 2
10
206.451
20
-73.0758
11
206.4
21
-72.9742
0
LINE
8
Cyan 2
10
206.4
20
-71.755
11
206.4
21
-71.628
0
LINE
8
Cyan 2
10
206.4
20
-71.628
11
206.451
21
-71.501
0
LINE
8
Cyan 2
10
206.451
20
-71.501
11
206.502
21
-71.4502
0
LINE
8
Cyan 2
10
206.502
20
-71.4502
11
206.629
21
-71.374
0
LINE
8
Cyan 2
10
206.629
20
-71.374
11
206.883
21
-71.3232
0
LINE
8
Cyan 2
10
206.883
20
-71.3232
11
207.188
21
-71.3232
0
LINE
8
Cyan 2
10
207.188
20
-71.3232
11
207.416
21
-71.374
0
LINE
8
Cyan 2
10
207.416
20
-71.374
11
207.543
21
-71.4502
0
LINE
8
Cyan 2
10
207.543
20
-71.4502
11
207.594
21
-71.501
0
LINE
8
Cyan 2
10
207.594
20
-71.501
11
207.67
21
-71.628
0
LINE
8
Cyan 2
10
207.67
20
-71.628
11
207.67
21
-71.755
0
LINE
8
Cyan 2
10
207.67
20
-71.755
11
207.594
21
-71.8566
0
LINE
8
Cyan 2
10
207.594
20
-71.8566
11
207.543
21
-71.9328
0
LINE
8
Cyan 2
10
207.543
20
-71.9328
11
207.416
21
-71.9836
0
LINE
8
Cyan 2
10
207.416
20
-71.9836
11
207.188
21
-72.0344
0
LINE
8
Cyan 2
10
207.188
20
-72.0344
11
206.883
21
-72.0344
0
LINE
8
Cyan 2
10
206.883
20
-72.0344
11
206.629
21
-71.9836
0
LINE
8
Cyan 2
10
206.629
20
-71.9836
11
206.502
21
-71.9328
0
LINE
8
Cyan 2
10
206.502
20
-71.9328
11
206.451
21
-71.8566
0
LINE
8
Cyan 2
10
206.451
20
-71.8566
11
206.4
21
-71.755
0
LINE
8
Cyan 2
10
207.67
20
-70.7644
11
206.4
21
-70.7644
0
LINE
8
Cyan 2
10
207.188
20
-70.6374
11
207.67
21
-70.2818
0
LINE
8
Cyan 2
10
206.807
20
-70.2818
11
207.289
21
-70.7644
0
ARC
8
Red 2
10
85.725
20
-93.98
40
12.7254
50
-272.9
51
-267.2
0
ARC
8
Red 2
10
86.995
20
-72.39
40
11.4554
50
-93.1
51
-86.8
0
ARC
8
Red 2
10
88.265
20
-67.31
40
13.9954
50
-92.6
51
-87.3
0
ARC
8
Red 2
10
95.25
20
-82.55
40
10.2362
50
-187.2
51
-172.8
0
ARC
8
Red 2
10
97.79
20
-82.55
40
11.5062
50
-186.4
51
-173.6
0
ARC
8
Red 2
10
101.6
20
-82.55
40
14.0208
50
-185.2
51
-174.8
0
CIRCLE
8
Red 2
10
86.36
20
-82.55
40
3.81
0
LINE
8
Red 2
10
86.36
20
-78.74
11
86.36
21
-71.12
0
LINE
8
Cyan 2
10
86.4616
20
-81.026
11
86.4616
21
-80.0608
0
LINE
8
Cyan 2
10
86.9442
20
-80.5434
11
85.979
21
-80.5434
0
LINE
8
Red 2
10
86.0552
20
-74.5744
11
86.0552
21
-75.2856
0
LINE
8
Red 2
10
86.0552
20
-74.93
11
84.7852
21
-74.93
0
LINE
8
Red 2
10
84.7852
20
-74.93
11
84.963
21
-75.057
0
LINE
8
Red 2
10
84.963
20
-75.057
11
85.09
21
-75.184
0
LINE
8
Red 2
10
85.09
20
-75.184
11
85.1408
21
-75.2856
0
LINE
8
Red 2
10
86.36
20
-86.36
11
86.36
21
-93.98
0
LINE
8
Cyan 2
10
86.4616
20
-85.0392
11
86.4616
21
-84.074
0
LINE
8
Red 2
10
84.8868
20
-90.5256
11
84.836
21
-90.4748
0
LINE
8
Red 2
10
84.836
20
-90.4748
11
84.7852
21
-90.3478
0
LINE
8
Red 2
10
84.7852
20
-90.3478
11
84.7852
21
-90.043
0
LINE
8
Red 2
10
84.7852
20
-90.043
11
84.836
21
-89.9414
0
LINE
8
Red 2
10
84.836
20
-89.9414
11
84.8868
21
-89.8652
0
LINE
8
Red 2
10
84.8868
20
-89.8652
11
85.0138
21
-89.8144
0
LINE
8
Red 2
10
85.0138
20
-89.8144
11
85.1408
21
-89.8144
0
LINE
8
Red 2
10
85.1408
20
-89.8144
11
85.3186
21
-89.8652
0
LINE
8
Red 2
10
85.3186
20
-89.8652
11
86.0552
21
-90.6018
0
LINE
8
Red 2
10
86.0552
20
-90.6018
11
86.0552
21
-89.8144
0
LINE
8
Cyan 2
10
80.2132
20
-79.7814
11
80.5688
21
-80.7974
0
LINE
8
Cyan 2
10
80.5688
20
-80.7974
11
80.9244
21
-79.7814
0
LINE
8
Cyan 2
10
82.3214
20
-80.7974
11
81.4324
21
-80.7974
0
LINE
8
Cyan 2
10
81.8896
20
-80.7974
11
81.8896
21
-79.2734
0
LINE
8
Cyan 2
10
81.8896
20
-79.2734
11
81.7372
21
-79.502
0
LINE
8
Cyan 2
10
81.7372
20
-79.502
11
81.5848
21
-79.629
0
LINE
8
Cyan 2
10
81.5848
20
-79.629
11
81.4324
21
-79.7052
0
LINE
8
Cyan 2
10
78.613
20
-83.5914
11
78.613
21
-85.1154
0
LINE
8
Cyan 2
10
78.613
20
-83.6676
11
78.7654
21
-83.5914
0
LINE
8
Cyan 2
10
78.7654
20
-83.5914
11
79.0448
21
-83.5914
0
LINE
8
Cyan 2
10
79.0448
20
-83.5914
11
79.1972
21
-83.6676
0
LINE
8
Cyan 2
10
79.1972
20
-83.6676
11
79.2734
21
-83.7438
0
LINE
8
Cyan 2
10
79.2734
20
-83.7438
11
79.3496
21
-83.8962
0
LINE
8
Cyan 2
10
79.3496
20
-83.8962
11
79.3496
21
-84.328
0
LINE
8
Cyan 2
10
79.3496
20
-84.328
11
79.2734
21
-84.455
0
LINE
8
Cyan 2
10
79.2734
20
-84.455
11
79.1972
21
-84.5312
0
LINE
8
Cyan 2
10
79.1972
20
-84.5312
11
79.0448
21
-84.6074
0
LINE
8
Cyan 2
10
79.0448
20
-84.6074
11
78.7654
21
-84.6074
0
LINE
8
Cyan 2
10
78.7654
20
-84.6074
11
78.613
21
-84.5312
0
LINE
8
Cyan 2
10
80.645
20
-83.5914
11
80.645
21
-84.6074
0
LINE
8
Cyan 2
10
79.9846
20
-83.5914
11
79.9846
21
-84.4042
0
LINE
8
Cyan 2
10
79.9846
20
-84.4042
11
80.0608
21
-84.5312
0
LINE
8
Cyan 2
10
80.0608
20
-84.5312
11
80.2132
21
-84.6074
0
LINE
8
Cyan 2
10
80.2132
20
-84.6074
11
80.4164
21
-84.6074
0
LINE
8
Cyan 2
10
80.4164
20
-84.6074
11
80.5688
21
-84.5312
0
LINE
8
Cyan 2
10
80.5688
20
-84.5312
11
80.645
21
-84.455
0
LINE
8
Cyan 2
10
81.5848
20
-84.6074
11
81.4324
21
-84.5312
0
LINE
8
Cyan 2
10
81.4324
20
-84.5312
11
81.3562
21
-84.4042
0
LINE
8
Cyan 2
10
81.3562
20
-84.4042
11
81.3562
21
-83.0834
0
LINE
8
Cyan 2
10
82.0674
20
-84.5312
11
82.2198
21
-84.6074
0
LINE
8
Cyan 2
10
82.2198
20
-84.6074
11
82.5246
21
-84.6074
0
LINE
8
Cyan 2
10
82.5246
20
-84.6074
11
82.6516
21
-84.5312
0
LINE
8
Cyan 2
10
82.6516
20
-84.5312
11
82.7278
21
-84.4042
0
LINE
8
Cyan 2
10
82.7278
20
-84.4042
11
82.7278
21
-84.328
0
LINE
8
Cyan 2
10
82.7278
20
-84.328
11
82.6516
21
-84.1756
0
LINE
8
Cyan 2
10
82.6516
20
-84.1756
11
82.5246
21
-84.0994
0
LINE
8
Cyan 2
10
82.5246
20
-84.0994
11
82.296
21
-84.0994
0
LINE
8
Cyan 2
10
82.296
20
-84.0994
11
82.1436
21
-84.0232
0
LINE
8
Cyan 2
10
82.1436
20
-84.0232
11
82.0674
21
-83.8962
0
LINE
8
Cyan 2
10
82.0674
20
-83.8962
11
82.0674
21
-83.82
0
LINE
8
Cyan 2
10
82.0674
20
-83.82
11
82.1436
21
-83.6676
0
LINE
8
Cyan 2
10
82.1436
20
-83.6676
11
82.296
21
-83.5914
0
LINE
8
Cyan 2
10
82.296
20
-83.5914
11
82.5246
21
-83.5914
0
LINE
8
Cyan 2
10
82.5246
20
-83.5914
11
82.6516
21
-83.6676
0
LINE
8
Cyan 2
10
83.9724
20
-84.5312
11
83.82
21
-84.6074
0
LINE
8
Cyan 2
10
83.82
20
-84.6074
11
83.5406
21
-84.6074
0
LINE
8
Cyan 2
10
83.5406
20
-84.6074
11
83.3882
21
-84.5312
0
LINE
8
Cyan 2
10
83.3882
20
-84.5312
11
83.312
21
-84.4042
0
LINE
8
Cyan 2
10
83.312
20
-84.4042
11
83.312
21
-83.82
0
LINE
8
Cyan 2
10
83.312
20
-83.82
11
83.3882
21
-83.6676
0
LINE
8
Cyan 2
10
83.3882
20
-83.6676
11
83.5406
21
-83.5914
0
LINE
8
Cyan 2
10
83.5406
20
-83.5914
11
83.82
21
-83.5914
0
LINE
8
Cyan 2
10
83.82
20
-83.5914
11
83.9724
21
-83.6676
0
LINE
8
Cyan 2
10
83.9724
20
-83.6676
11
84.0486
21
-83.82
0
LINE
8
Cyan 2
10
84.0486
20
-83.82
11
84.0486
21
-83.947
0
LINE
8
Cyan 2
10
84.0486
20
-83.947
11
83.312
21
-84.0994
0
LINE
8
Magenta 2
10
78.5114
20
-83.3374
11
78.0034
21
-82.6262
0
LINE
8
Magenta 2
10
77.6224
20
-83.3374
11
77.6224
21
-81.8134
0
LINE
8
Magenta 2
10
77.6224
20
-81.8134
11
78.2066
21
-81.8134
0
LINE
8
Magenta 2
10
78.2066
20
-81.8134
11
78.359
21
-81.8896
0
LINE
8
Magenta 2
10
78.359
20
-81.8896
11
78.4352
21
-81.9658
0
LINE
8
Magenta 2
10
78.4352
20
-81.9658
11
78.5114
21
-82.1182
0
LINE
8
Magenta 2
10
78.5114
20
-82.1182
11
78.5114
21
-82.3214
0
LINE
8
Magenta 2
10
78.5114
20
-82.3214
11
78.4352
21
-82.4738
0
LINE
8
Magenta 2
10
78.4352
20
-82.4738
11
78.359
21
-82.55
0
LINE
8
Magenta 2
10
78.359
20
-82.55
11
78.2066
21
-82.6262
0
LINE
8
Magenta 2
10
78.2066
20
-82.6262
11
77.6224
21
-82.6262
0
LINE
8
Magenta 2
10
79.9592
20
-83.3374
11
79.0702
21
-83.3374
0
LINE
8
Magenta 2
10
79.5274
20
-83.3374
11
79.5274
21
-81.8134
0
LINE
8
Magenta 2
10
79.5274
20
-81.8134
11
79.375
21
-82.042
0
LINE
8
Magenta 2
10
79.375
20
-82.042
11
79.2226
21
-82.169
0
LINE
8
Magenta 2
10
79.2226
20
-82.169
11
79.0702
21
-82.2452
0
LINE
8
Red 2
10
140.97
20
-91.44
11
140.97
21
-90.17
0
LINE
8
Red 2
10
140.97
20
-90.17
11
139.954
21
-89.535
0
LINE
8
Red 2
10
139.954
20
-89.535
11
140.97
21
-88.9
0
LINE
8
Red 2
10
140.97
20
-88.9
11
141.986
21
-89.535
0
LINE
8
Red 2
10
141.986
20
-89.535
11
140.97
21
-90.17
0
LINE
8
Cyan 2
10
136.576
20
-88.2904
11
136.576
21
-87.0204
0
LINE
8
Cyan 2
10
136.576
20
-87.0204
11
137.058
21
-87.0204
0
LINE
8
Cyan 2
10
137.058
20
-87.0204
11
137.185
21
-87.0712
0
LINE
8
Cyan 2
10
137.185
20
-87.0712
11
137.236
21
-87.122
0
LINE
8
Cyan 2
10
137.236
20
-87.122
11
137.287
21
-87.249
0
LINE
8
Cyan 2
10
137.287
20
-87.249
11
137.287
21
-87.4268
0
LINE
8
Cyan 2
10
137.287
20
-87.4268
11
137.236
21
-87.5538
0
LINE
8
Cyan 2
10
137.236
20
-87.5538
11
137.185
21
-87.6046
0
LINE
8
Cyan 2
10
137.185
20
-87.6046
11
137.058
21
-87.6808
0
LINE
8
Cyan 2
10
137.058
20
-87.6808
11
136.576
21
-87.6808
0
LINE
8
Cyan 2
10
137.719
20
-87.0204
11
138.024
21
-88.2904
0
LINE
8
Cyan 2
10
138.024
20
-88.2904
11
138.278
21
-87.376
0
LINE
8
Cyan 2
10
138.278
20
-87.376
11
138.506
21
-88.2904
0
LINE
8
Cyan 2
10
138.506
20
-88.2904
11
138.811
21
-87.0204
0
LINE
8
Cyan 2
10
140.005
20
-88.2904
11
139.598
21
-87.6808
0
LINE
8
Cyan 2
10
139.294
20
-88.2904
11
139.294
21
-87.0204
0
LINE
8
Cyan 2
10
139.294
20
-87.0204
11
139.776
21
-87.0204
0
LINE
8
Cyan 2
10
139.776
20
-87.0204
11
139.903
21
-87.0712
0
LINE
8
Cyan 2
10
139.903
20
-87.0712
11
139.954
21
-87.122
0
LINE
8
Cyan 2
10
139.954
20
-87.122
11
140.005
21
-87.249
0
LINE
8
Cyan 2
10
140.005
20
-87.249
11
140.005
21
-87.4268
0
LINE
8
Cyan 2
10
140.005
20
-87.4268
11
139.954
21
-87.5538
0
LINE
8
Cyan 2
10
139.954
20
-87.5538
11
139.903
21
-87.6046
0
LINE
8
Cyan 2
10
139.903
20
-87.6046
11
139.776
21
-87.6808
0
LINE
8
Cyan 2
10
139.776
20
-87.6808
11
139.294
21
-87.6808
0
LINE
8
Cyan 2
10
140.259
20
-88.392
11
141.224
21
-88.392
0
LINE
8
Cyan 2
10
141.961
20
-87.6046
11
141.529
21
-87.6046
0
LINE
8
Cyan 2
10
141.529
20
-88.2904
11
141.529
21
-87.0204
0
LINE
8
Cyan 2
10
141.529
20
-87.0204
11
142.138
21
-87.0204
0
LINE
8
Cyan 2
10
143.231
20
-88.2904
11
142.621
21
-88.2904
0
LINE
8
Cyan 2
10
142.621
20
-88.2904
11
142.621
21
-87.0204
0
LINE
8
Cyan 2
10
143.586
20
-87.9094
11
144.17
21
-87.9094
0
LINE
8
Cyan 2
10
143.459
20
-88.2904
11
143.866
21
-87.0204
0
LINE
8
Cyan 2
10
143.866
20
-87.0204
11
144.297
21
-88.2904
0
LINE
8
Cyan 2
10
145.39
20
-87.0712
11
145.263
21
-87.0204
0
LINE
8
Cyan 2
10
145.263
20
-87.0204
11
145.085
21
-87.0204
0
LINE
8
Cyan 2
10
145.085
20
-87.0204
11
144.907
21
-87.0712
0
LINE
8
Cyan 2
10
144.907
20
-87.0712
11
144.78
21
-87.1982
0
LINE
8
Cyan 2
10
144.78
20
-87.1982
11
144.729
21
-87.3252
0
LINE
8
Cyan 2
10
144.729
20
-87.3252
11
144.678
21
-87.5538
0
LINE
8
Cyan 2
10
144.678
20
-87.5538
11
144.678
21
-87.7316
0
LINE
8
Cyan 2
10
144.678
20
-87.7316
11
144.729
21
-87.9856
0
LINE
8
Cyan 2
10
144.729
20
-87.9856
11
144.78
21
-88.0872
0
LINE
8
Cyan 2
10
144.78
20
-88.0872
11
144.907
21
-88.2142
0
LINE
8
Cyan 2
10
144.907
20
-88.2142
11
145.085
21
-88.2904
0
LINE
8
Cyan 2
10
145.085
20
-88.2904
11
145.212
21
-88.2904
0
LINE
8
Cyan 2
10
145.212
20
-88.2904
11
145.39
21
-88.2142
0
LINE
8
Cyan 2
10
145.39
20
-88.2142
11
145.44
21
-88.1634
0
LINE
8
Cyan 2
10
145.44
20
-88.1634
11
145.44
21
-87.7316
0
LINE
8
Cyan 2
10
145.44
20
-87.7316
11
145.212
21
-87.7316
0
LINE
8
Red 2
10
140.97
20
-97.79
11
140.97
21
-99.06
0
LINE
8
Red 2
10
140.97
20
-99.06
11
142.24
21
-99.06
0
LINE
8
Red 2
10
142.24
20
-99.06
11
140.97
21
-100.33
0
LINE
8
Red 2
10
140.97
20
-100.33
11
139.7
21
-99.06
0
LINE
8
Red 2
10
139.7
20
-99.06
11
140.97
21
-99.06
0
LINE
8
Cyan 2
10
140.005
20
-101.041
11
139.878
21
-100.99
0
LINE
8
Cyan 2
10
139.878
20
-100.99
11
139.7
21
-100.99
0
LINE
8
Cyan 2
10
139.7
20
-100.99
11
139.522
21
-101.041
0
LINE
8
Cyan 2
10
139.522
20
-101.041
11
139.395
21
-101.168
0
LINE
8
Cyan 2
10
139.395
20
-101.168
11
139.344
21
-101.295
0
LINE
8
Cyan 2
10
139.344
20
-101.295
11
139.294
21
-101.524
0
LINE
8
Cyan 2
10
139.294
20
-101.524
11
139.294
21
-101.702
0
LINE
8
Cyan 2
10
139.294
20
-101.702
11
139.344
21
-101.956
0
LINE
8
Cyan 2
10
139.344
20
-101.956
11
139.395
21
-102.057
0
LINE
8
Cyan 2
10
139.395
20
-102.057
11
139.522
21
-102.184
0
LINE
8
Cyan 2
10
139.522
20
-102.184
11
139.7
21
-102.26
0
LINE
8
Cyan 2
10
139.7
20
-102.26
11
139.827
21
-102.26
0
LINE
8
Cyan 2
10
139.827
20
-102.26
11
140.005
21
-102.184
0
LINE
8
Cyan 2
10
140.005
20
-102.184
11
140.056
21
-102.133
0
LINE
8
Cyan 2
10
140.056
20
-102.133
11
140.056
21
-101.702
0
LINE
8
Cyan 2
10
140.056
20
-101.702
11
139.827
21
-101.702
0
LINE
8
Cyan 2
10
140.614
20
-102.26
11
140.614
21
-100.99
0
LINE
8
Cyan 2
10
140.614
20
-100.99
11
141.326
21
-102.26
0
LINE
8
Cyan 2
10
141.326
20
-102.26
11
141.326
21
-100.99
0
LINE
8
Cyan 2
10
141.935
20
-102.26
11
141.935
21
-100.99
0
LINE
8
Cyan 2
10
141.935
20
-100.99
11
142.24
21
-100.99
0
LINE
8
Cyan 2
10
142.24
20
-100.99
11
142.418
21
-101.041
0
LINE
8
Cyan 2
10
142.418
20
-101.041
11
142.545
21
-101.168
0
LINE
8
Cyan 2
10
142.545
20
-101.168
11
142.596
21
-101.295
0
LINE
8
Cyan 2
10
142.596
20
-101.295
11
142.646
21
-101.524
0
LINE
8
Cyan 2
10
142.646
20
-101.524
11
142.646
21
-101.702
0
LINE
8
Cyan 2
10
142.646
20
-101.702
11
142.596
21
-101.956
0
LINE
8
Cyan 2
10
142.596
20
-101.956
11
142.545
21
-102.057
0
LINE
8
Cyan 2
10
142.545
20
-102.057
11
142.418
21
-102.184
0
LINE
8
Cyan 2
10
142.418
20
-102.184
11
142.24
21
-102.26
0
LINE
8
Cyan 2
10
142.24
20
-102.26
11
141.935
21
-102.26
0
LINE
8
Green 2
10
86.36
20
-63.5
11
86.36
21
-71.12
0
LINE
8
Green 2
10
132.08
20
-63.5
11
138.43
21
-63.5
0
LINE
8
Green 2
10
163.83
20
-63.5
11
170.18
21
-63.5
0
LINE
8
Green 2
10
204.47
20
-93.98
11
204.47
21
-76.2
0
LINE
8
Green 2
10
86.36
20
-93.98
11
204.47
21
-93.98
0
LINE
8
Green 2
10
140.97
20
-91.44
11
140.97
21
-97.79
0
LINE
8
Green 2
10
86.36
20
-63.5
11
102.87
21
-63.5
0
POLYLINE
8
Green 2
66
1
70
1
40
0.508
41
0.508
0
VERTEX
8
Green 2
10
97.536
 20
-63.5
42
1.0
0
VERTEX
8
Green 2
10
98.044
 20
-63.5
42
1.0
0
SEQEND
0
LINE
8
Green 2
10
97.79
20
-77.47
11
97.79
21
-93.98
0
POLYLINE
8
Green 2
66
1
70
1
40
0.508
41
0.508
0
VERTEX
8
Green 2
10
97.536
 20
-93.98
42
1.0
0
VERTEX
8
Green 2
10
98.044
 20
-93.98
42
1.0
0
SEQEND
0
LINE
8
Green 2
10
97.79
20
-63.5
11
97.79
21
-69.85
0
LINE
8
Green 2
10
199.39
20
-63.5
11
204.47
21
-63.5
0
LINE
8
Green 2
10
204.47
20
-63.5
11
204.47
21
-68.58
  0
ENDSEC
  0
EOF
